G04 Layer_Color=20142*
%FSLAX43Y43*%
%MOMM*%
G71*
G01*
G75*
%ADD33O,0.803X2.103*%
%ADD34C,1.727*%
%ADD35C,1.903*%
%ADD36R,1.903X1.903*%
%ADD37C,2.003*%
%ADD38R,1.219X1.219*%
%ADD39C,1.219*%
%ADD40R,1.473X2.743*%
%ADD41O,1.473X2.743*%
%ADD42C,1.981*%
%ADD43R,1.981X1.981*%
%ADD44C,9.203*%
%ADD45C,1.803*%
%ADD46C,1.203*%
D33*
X17905Y50350D02*
D03*
X16635D02*
D03*
X15365D02*
D03*
X14095D02*
D03*
X17905Y45650D02*
D03*
X16635D02*
D03*
X15365D02*
D03*
X14095D02*
D03*
D34*
X67660Y4000D02*
D03*
X57500D02*
D03*
X46500Y26000D02*
D03*
Y15840D02*
D03*
X53500Y26000D02*
D03*
Y15840D02*
D03*
X60500Y16000D02*
D03*
Y26160D02*
D03*
X67500Y16000D02*
D03*
Y26160D02*
D03*
X12500Y28160D02*
D03*
Y18000D02*
D03*
X4500Y21481D02*
D03*
Y23487D02*
D03*
Y25494D02*
D03*
X40540Y55000D02*
D03*
X35460D02*
D03*
X38540Y47500D02*
D03*
X33460D02*
D03*
X86000Y50960D02*
D03*
Y56040D02*
D03*
D35*
X50540Y32500D02*
D03*
X48000D02*
D03*
X63540D02*
D03*
X61000D02*
D03*
X50540Y9000D02*
D03*
X48000D02*
D03*
X63040D02*
D03*
X60500D02*
D03*
D36*
X45460Y32500D02*
D03*
X58460D02*
D03*
X45460Y9000D02*
D03*
X57960D02*
D03*
D37*
X4500Y19398D02*
D03*
Y27602D02*
D03*
X73750Y9500D02*
D03*
X86250D02*
D03*
X73750Y4500D02*
D03*
X86250D02*
D03*
D38*
X93865Y44040D02*
D03*
Y21540D02*
D03*
Y33040D02*
D03*
D39*
X95135Y44040D02*
D03*
X93865Y42770D02*
D03*
X95135D02*
D03*
X93865Y41500D02*
D03*
X95135D02*
D03*
X93865Y40230D02*
D03*
X95135D02*
D03*
X93865Y38960D02*
D03*
X95135D02*
D03*
Y21540D02*
D03*
X93865Y20270D02*
D03*
X95135D02*
D03*
X93865Y19000D02*
D03*
X95135D02*
D03*
X93865Y17730D02*
D03*
X95135D02*
D03*
X93865Y16460D02*
D03*
X95135D02*
D03*
Y33040D02*
D03*
X93865Y31770D02*
D03*
X95135D02*
D03*
X93865Y30500D02*
D03*
X95135D02*
D03*
X93865Y29230D02*
D03*
X95135D02*
D03*
X93865Y27960D02*
D03*
X95135D02*
D03*
D40*
X44000Y40000D02*
D03*
D03*
D41*
X46540D02*
D03*
X49080D02*
D03*
X51620D02*
D03*
X54160D02*
D03*
X56700D02*
D03*
X59240D02*
D03*
X61780D02*
D03*
X64320D02*
D03*
X66860D02*
D03*
X69400D02*
D03*
X71940D02*
D03*
X44000Y55240D02*
D03*
X46540D02*
D03*
X49080D02*
D03*
X51620D02*
D03*
X54160D02*
D03*
X56700D02*
D03*
X59240D02*
D03*
X61780D02*
D03*
X64320D02*
D03*
X66860D02*
D03*
X69400D02*
D03*
X71940D02*
D03*
X46540Y40000D02*
D03*
X49080D02*
D03*
X51620D02*
D03*
X54160D02*
D03*
X56700D02*
D03*
X59240D02*
D03*
X61780D02*
D03*
X64320D02*
D03*
X66860D02*
D03*
X69400D02*
D03*
X71940D02*
D03*
X44000Y55240D02*
D03*
X46540D02*
D03*
X49080D02*
D03*
X51620D02*
D03*
X54160D02*
D03*
X56700D02*
D03*
X59240D02*
D03*
X61780D02*
D03*
X64320D02*
D03*
X66860D02*
D03*
X69400D02*
D03*
X71940D02*
D03*
D42*
X37120Y38740D02*
D03*
Y36200D02*
D03*
Y33660D02*
D03*
Y31120D02*
D03*
Y28580D02*
D03*
Y26040D02*
D03*
Y23500D02*
D03*
Y20960D02*
D03*
Y18420D02*
D03*
Y15880D02*
D03*
Y13340D02*
D03*
Y10800D02*
D03*
Y8260D02*
D03*
Y5720D02*
D03*
X21880D02*
D03*
Y8260D02*
D03*
Y10800D02*
D03*
Y13340D02*
D03*
Y15880D02*
D03*
Y18420D02*
D03*
Y20960D02*
D03*
Y23500D02*
D03*
Y26040D02*
D03*
Y28580D02*
D03*
Y31120D02*
D03*
Y33660D02*
D03*
X37120Y41280D02*
D03*
X21880Y36200D02*
D03*
Y38740D02*
D03*
X18580Y57000D02*
D03*
X16040D02*
D03*
X13500D02*
D03*
X2000Y46580D02*
D03*
Y44040D02*
D03*
Y41500D02*
D03*
D43*
X21880Y41280D02*
D03*
D44*
X93500Y53500D02*
D03*
Y6500D02*
D03*
X6500Y53500D02*
D03*
Y6500D02*
D03*
D45*
X4500Y15603D02*
D03*
Y13063D02*
D03*
D46*
X31500Y36200D02*
D03*
X30500Y27500D02*
D03*
X16635Y48000D02*
D03*
X40500Y22500D02*
D03*
X41500Y21500D02*
D03*
X53500Y26000D02*
D03*
X46500Y26000D02*
D03*
X30500Y16000D02*
D03*
X29500Y13500D02*
D03*
Y29500D02*
D03*
X90500Y20500D02*
D03*
X89000Y19500D02*
D03*
X87500Y20000D02*
D03*
X86000Y20500D02*
D03*
X84000Y21500D02*
D03*
Y24000D02*
D03*
Y44000D02*
D03*
X87000Y43500D02*
D03*
X67660Y12340D02*
D03*
X40500Y27500D02*
D03*
Y38000D02*
D03*
X45500Y51500D02*
D03*
M02*
