G04 Layer_Color=15132400*
%FSLAX43Y43*%
%MOMM*%
G71*
G01*
G75*
%ADD11C,0.254*%
%ADD12C,0.250*%
%ADD28C,0.127*%
%ADD29C,0.400*%
%ADD30C,0.200*%
%ADD31C,0.178*%
%ADD32C,0.152*%
D11*
X42730Y46985D02*
G03*
X42730Y48255I0J635D01*
G01*
Y46985D02*
G03*
X42730Y48255I0J635D01*
G01*
X59278Y2730D02*
Y5270D01*
Y2730D02*
X65755D01*
Y5270D01*
X59278D02*
X65755D01*
X47770Y17745D02*
Y24222D01*
X45230Y17745D02*
X47770D01*
X45230D02*
Y24222D01*
X47770D01*
X54770Y17745D02*
Y24222D01*
X52230Y17745D02*
X54770D01*
X52230D02*
Y24222D01*
X54770D01*
X59230Y17778D02*
Y24255D01*
X61770D01*
Y17778D02*
Y24255D01*
X59230Y17778D02*
X61770D01*
X66230D02*
Y24255D01*
X68770D01*
Y17778D02*
Y24255D01*
X66230Y17778D02*
X68770D01*
X11230Y19778D02*
X13770D01*
Y26255D01*
X11230D02*
X13770D01*
X11230Y19778D02*
Y26255D01*
X36730Y54111D02*
X39397D01*
X36730Y55889D02*
X39397D01*
X42730Y42159D02*
Y46985D01*
Y48255D02*
Y53081D01*
X73210D01*
Y42159D02*
Y53081D01*
X42730Y42159D02*
X73210D01*
X42730D02*
Y46985D01*
Y48255D02*
Y53081D01*
X73210D01*
Y42159D02*
Y53081D01*
X42730Y42159D02*
X73210D01*
X34730Y46611D02*
X37397D01*
X34730Y48389D02*
X37397D01*
X35596Y4196D02*
Y4704D01*
X23912Y4196D02*
X35596D01*
X23912D02*
Y42804D01*
X35596D01*
Y4704D02*
Y42804D01*
X20483Y132D02*
X38517D01*
X20483D02*
Y45090D01*
X38517D01*
Y132D02*
Y45090D01*
X85111Y52103D02*
Y54770D01*
X86889Y52103D02*
Y54770D01*
X66356Y27785D02*
Y29309D01*
X67118D01*
X67372Y29055D01*
Y28547D01*
X67118Y28293D01*
X66356D01*
X66864D02*
X67372Y27785D01*
X68895Y29309D02*
X68388Y29055D01*
X67880Y28547D01*
Y28039D01*
X68134Y27785D01*
X68641D01*
X68895Y28039D01*
Y28293D01*
X68641Y28547D01*
X67880D01*
X59346Y27785D02*
Y29309D01*
X60108D01*
X60361Y29055D01*
Y28547D01*
X60108Y28293D01*
X59346D01*
X59854D02*
X60361Y27785D01*
X61885Y29309D02*
X60869D01*
Y28547D01*
X61377Y28801D01*
X61631D01*
X61885Y28547D01*
Y28039D01*
X61631Y27785D01*
X61123D01*
X60869Y28039D01*
X52361Y27633D02*
Y29156D01*
X53123D01*
X53376Y28902D01*
Y28394D01*
X53123Y28140D01*
X52361D01*
X52869D02*
X53376Y27633D01*
X54646D02*
Y29156D01*
X53884Y28394D01*
X54900D01*
X45350Y27633D02*
Y29156D01*
X46112D01*
X46366Y28902D01*
Y28394D01*
X46112Y28140D01*
X45350D01*
X45858D02*
X46366Y27633D01*
X46874Y28902D02*
X47128Y29156D01*
X47636D01*
X47890Y28902D01*
Y28648D01*
X47636Y28394D01*
X47382D01*
X47636D01*
X47890Y28140D01*
Y27887D01*
X47636Y27633D01*
X47128D01*
X46874Y27887D01*
X55713Y12951D02*
Y13967D01*
X55459Y14221D01*
X54952D01*
X54698Y13967D01*
Y12951D01*
X54952Y12697D01*
X55459D01*
X55205Y13205D02*
X55713Y12697D01*
X55459D02*
X55713Y12951D01*
X56983Y12697D02*
Y14221D01*
X56221Y13459D01*
X57237D01*
X43216Y12951D02*
Y13967D01*
X42963Y14221D01*
X42455D01*
X42201Y13967D01*
Y12951D01*
X42455Y12697D01*
X42963D01*
X42709Y13205D02*
X43216Y12697D01*
X42963D02*
X43216Y12951D01*
X43724Y13967D02*
X43978Y14221D01*
X44486D01*
X44740Y13967D01*
Y13713D01*
X44486Y13459D01*
X44232D01*
X44486D01*
X44740Y13205D01*
Y12951D01*
X44486Y12697D01*
X43978D01*
X43724Y12951D01*
X56221Y36472D02*
Y37487D01*
X55967Y37741D01*
X55460D01*
X55206Y37487D01*
Y36472D01*
X55460Y36218D01*
X55967D01*
X55713Y36726D02*
X56221Y36218D01*
X55967D02*
X56221Y36472D01*
X57745Y36218D02*
X56729D01*
X57745Y37233D01*
Y37487D01*
X57491Y37741D01*
X56983D01*
X56729Y37487D01*
X43216Y36472D02*
Y37487D01*
X42963Y37741D01*
X42455D01*
X42201Y37487D01*
Y36472D01*
X42455Y36218D01*
X42963D01*
X42709Y36726D02*
X43216Y36218D01*
X42963D02*
X43216Y36472D01*
X43724Y36218D02*
X44232D01*
X43978D01*
Y37741D01*
X43724Y37487D01*
X33387Y50873D02*
X33133Y51127D01*
X32625D01*
X32371Y50873D01*
Y49858D01*
X32625Y49604D01*
X33133D01*
X33387Y49858D01*
X34910Y49604D02*
X33895D01*
X34910Y50619D01*
Y50873D01*
X34656Y51127D01*
X34148D01*
X33895Y50873D01*
X35393Y58366D02*
X35139Y58620D01*
X34632D01*
X34378Y58366D01*
Y57351D01*
X34632Y57097D01*
X35139D01*
X35393Y57351D01*
X35901Y58366D02*
X36155Y58620D01*
X36663D01*
X36917Y58366D01*
Y58112D01*
X36663Y57858D01*
X36409D01*
X36663D01*
X36917Y57604D01*
Y57351D01*
X36663Y57097D01*
X36155D01*
X35901Y57351D01*
X43877Y58646D02*
X43623Y58900D01*
X43115D01*
X42861Y58646D01*
Y57630D01*
X43115Y57376D01*
X43623D01*
X43877Y57630D01*
X44639Y57376D02*
X45146D01*
X45400Y57630D01*
Y58138D01*
X45146Y58392D01*
X44639D01*
X44385Y58138D01*
Y57630D01*
X44639Y57376D01*
X45908D02*
X46416D01*
X46162D01*
Y58900D01*
X45908D01*
X47178Y57376D02*
X47686D01*
X47432D01*
Y58900D01*
X47178D01*
X48447Y58392D02*
Y57630D01*
X48701Y57376D01*
X49463D01*
Y58392D01*
X49971Y57376D02*
Y58392D01*
X50225D01*
X50479Y58138D01*
Y57376D01*
Y58138D01*
X50733Y58392D01*
X50987Y58138D01*
Y57376D01*
X51494D02*
Y58900D01*
X52002Y58392D01*
X52510Y58900D01*
Y57376D01*
X53018Y58900D02*
Y57630D01*
X53272Y57376D01*
X53780D01*
X54034Y57630D01*
Y58900D01*
X54541D02*
X55557Y57376D01*
Y58900D02*
X54541Y57376D01*
X56065D02*
X56573D01*
X56319D01*
Y58900D01*
X56065Y58646D01*
X7000Y15024D02*
Y13500D01*
X7762D01*
X8016Y13754D01*
Y14770D01*
X7762Y15024D01*
X7000D01*
X8524Y13500D02*
X9031D01*
X8777D01*
Y15024D01*
X8524Y14770D01*
X21516Y58024D02*
X21008D01*
X21262D01*
Y56754D01*
X21008Y56500D01*
X20754D01*
X20500Y56754D01*
X22024Y56500D02*
X22531D01*
X22277D01*
Y58024D01*
X22024Y57770D01*
X4516Y47524D02*
X4008D01*
X4262D01*
Y46254D01*
X4008Y46000D01*
X3754D01*
X3500Y46254D01*
X6039Y46000D02*
X5024D01*
X6039Y47016D01*
Y47270D01*
X5785Y47524D01*
X5277D01*
X5024Y47270D01*
X20611Y45971D02*
Y47495D01*
X21119Y46987D01*
X21626Y47495D01*
Y45971D01*
X23150Y47241D02*
X22896Y47495D01*
X22388D01*
X22134Y47241D01*
Y46225D01*
X22388Y45971D01*
X22896D01*
X23150Y46225D01*
X23658Y47495D02*
Y46225D01*
X23912Y45971D01*
X24420D01*
X24673Y46225D01*
Y47495D01*
X25181Y45971D02*
X25689D01*
X25435D01*
Y47495D01*
X25181Y47241D01*
X92798Y35126D02*
Y36649D01*
X93559D01*
X93813Y36395D01*
Y35887D01*
X93559Y35633D01*
X92798D01*
X94321Y35126D02*
X94829D01*
X94575D01*
Y36649D01*
X94321Y36395D01*
X92798Y46124D02*
Y47647D01*
X93559D01*
X93813Y47393D01*
Y46886D01*
X93559Y46632D01*
X92798D01*
X95337Y46124D02*
X94321D01*
X95337Y47139D01*
Y47393D01*
X95083Y47647D01*
X94575D01*
X94321Y47393D01*
X92798Y23645D02*
Y25168D01*
X93559D01*
X93813Y24914D01*
Y24407D01*
X93559Y24153D01*
X92798D01*
X94321Y24914D02*
X94575Y25168D01*
X95083D01*
X95337Y24914D01*
Y24660D01*
X95083Y24407D01*
X94829D01*
X95083D01*
X95337Y24153D01*
Y23899D01*
X95083Y23645D01*
X94575D01*
X94321Y23899D01*
X8000Y34000D02*
X9524D01*
Y33238D01*
X9270Y32984D01*
X8762D01*
X8508Y33238D01*
Y34000D01*
X8000Y32223D02*
Y31715D01*
X8254Y31461D01*
X8762D01*
X9016Y31715D01*
Y32223D01*
X8762Y32476D01*
X8254D01*
X8000Y32223D01*
X9016Y30953D02*
X8254D01*
X8000Y30699D01*
X8254Y30445D01*
X8000Y30191D01*
X8254Y29937D01*
X9016D01*
X8000Y28668D02*
Y29176D01*
X8254Y29429D01*
X8762D01*
X9016Y29176D01*
Y28668D01*
X8762Y28414D01*
X8508D01*
Y29429D01*
X9016Y27906D02*
X8000D01*
X8508D01*
X8762Y27652D01*
X9016Y27398D01*
Y27144D01*
X9270Y25367D02*
X9524Y25621D01*
Y26129D01*
X9270Y26382D01*
X9016D01*
X8762Y26129D01*
Y25621D01*
X8508Y25367D01*
X8254D01*
X8000Y25621D01*
Y26129D01*
X8254Y26382D01*
X9016Y24859D02*
X8254D01*
X8000Y24605D01*
X8254Y24351D01*
X8000Y24097D01*
X8254Y23843D01*
X9016D01*
X8000Y23335D02*
Y22828D01*
Y23082D01*
X9016D01*
Y23335D01*
X9270Y21812D02*
X9016D01*
Y22066D01*
Y21558D01*
Y21812D01*
X8254D01*
X8000Y21558D01*
X9016Y19781D02*
Y20542D01*
X8762Y20796D01*
X8254D01*
X8000Y20542D01*
Y19781D01*
X9524Y19273D02*
X8000D01*
X8762D01*
X9016Y19019D01*
Y18511D01*
X8762Y18257D01*
X8000D01*
Y17749D02*
Y17241D01*
Y17495D01*
X9524D01*
X9270Y17749D01*
X15000Y28000D02*
X16524D01*
Y27238D01*
X16270Y26984D01*
X15762D01*
X15508Y27238D01*
Y28000D01*
Y27492D02*
X15000Y26984D01*
Y25461D02*
Y26476D01*
X16016Y25461D01*
X16270D01*
X16524Y25715D01*
Y26223D01*
X16270Y26476D01*
X58000Y6500D02*
Y8024D01*
X58762D01*
X59016Y7770D01*
Y7262D01*
X58762Y7008D01*
X58000D01*
X58508D02*
X59016Y6500D01*
X59524D02*
X60031D01*
X59777D01*
Y8024D01*
X59524Y7770D01*
X72681Y13815D02*
Y15339D01*
X73443D01*
X73696Y15085D01*
Y14577D01*
X73443Y14323D01*
X72681D01*
X73189D02*
X73696Y13815D01*
X74966D02*
X74458D01*
X74204Y14069D01*
Y14577D01*
X74458Y14831D01*
X74966D01*
X75220Y14577D01*
Y14323D01*
X74204D01*
X75728Y13815D02*
X76490D01*
X76743Y14069D01*
X76490Y14323D01*
X75982D01*
X75728Y14577D01*
X75982Y14831D01*
X76743D01*
X78013Y13815D02*
X77505D01*
X77251Y14069D01*
Y14577D01*
X77505Y14831D01*
X78013D01*
X78267Y14577D01*
Y14323D01*
X77251D01*
X79029Y15085D02*
Y14831D01*
X78775D01*
X79283D01*
X79029D01*
Y14069D01*
X79283Y13815D01*
X81060Y15085D02*
X80806Y15339D01*
X80298D01*
X80044Y15085D01*
Y14831D01*
X80298Y14577D01*
X80806D01*
X81060Y14323D01*
Y14069D01*
X80806Y13815D01*
X80298D01*
X80044Y14069D01*
X81568Y15339D02*
Y13815D01*
X82076Y14323D01*
X82584Y13815D01*
Y15339D01*
X83091Y13815D02*
X83599D01*
X83345D01*
Y15339D01*
X83091Y15085D01*
X13626Y53718D02*
Y52448D01*
X13880Y52194D01*
X14388D01*
X14641Y52448D01*
Y53718D01*
X15149Y52194D02*
X15657D01*
X15403D01*
Y53718D01*
X15149Y53464D01*
X83316Y53970D02*
X83062Y54224D01*
X82554D01*
X82300Y53970D01*
Y52954D01*
X82554Y52700D01*
X83062D01*
X83316Y52954D01*
X83824Y52700D02*
X84331D01*
X84077D01*
Y54224D01*
X83824Y53970D01*
X26960Y5212D02*
Y6228D01*
X26452D01*
X26283Y6059D01*
Y5382D01*
X26452Y5212D01*
X26960D01*
X25944Y6228D02*
X25606D01*
X25775D01*
Y5212D01*
X25944Y5382D01*
X24421Y6228D02*
X25098D01*
X24421Y5551D01*
Y5382D01*
X24590Y5212D01*
X24929D01*
X25098Y5382D01*
X26960Y7752D02*
Y8768D01*
X26452D01*
X26283Y8599D01*
Y7922D01*
X26452Y7752D01*
X26960D01*
X25944Y8768D02*
X25606D01*
X25775D01*
Y7752D01*
X25944Y7922D01*
X25098Y8768D02*
X24759D01*
X24929D01*
Y7752D01*
X25098Y7922D01*
X26960Y10292D02*
Y11308D01*
X26452D01*
X26283Y11139D01*
Y10462D01*
X26452Y10292D01*
X26960D01*
X25944Y11308D02*
X25606D01*
X25775D01*
Y10292D01*
X25944Y10462D01*
X25098D02*
X24929Y10292D01*
X24590D01*
X24421Y10462D01*
Y11139D01*
X24590Y11308D01*
X24929D01*
X25098Y11139D01*
Y10462D01*
X26960Y17912D02*
Y18928D01*
X26452D01*
X26283Y18759D01*
Y18082D01*
X26452Y17912D01*
X26960D01*
X25944D02*
X25267D01*
Y18082D01*
X25944Y18759D01*
Y18928D01*
X26960Y15372D02*
Y16388D01*
X26452D01*
X26283Y16219D01*
Y15542D01*
X26452Y15372D01*
X26960D01*
X25944Y15542D02*
X25775Y15372D01*
X25436D01*
X25267Y15542D01*
Y15711D01*
X25436Y15880D01*
X25267Y16049D01*
Y16219D01*
X25436Y16388D01*
X25775D01*
X25944Y16219D01*
Y16049D01*
X25775Y15880D01*
X25944Y15711D01*
Y15542D01*
X25775Y15880D02*
X25436D01*
X26960Y12832D02*
Y13848D01*
X26452D01*
X26283Y13679D01*
Y13002D01*
X26452Y12832D01*
X26960D01*
X25944Y13679D02*
X25775Y13848D01*
X25436D01*
X25267Y13679D01*
Y13002D01*
X25436Y12832D01*
X25775D01*
X25944Y13002D01*
Y13171D01*
X25775Y13340D01*
X25267D01*
X26960Y25532D02*
Y26548D01*
X26452D01*
X26283Y26379D01*
Y25702D01*
X26452Y25532D01*
X26960D01*
X25436Y26548D02*
Y25532D01*
X25944Y26040D01*
X25267D01*
X26960Y22992D02*
Y24008D01*
X26452D01*
X26283Y23839D01*
Y23162D01*
X26452Y22992D01*
X26960D01*
X25267D02*
X25944D01*
Y23500D01*
X25606Y23331D01*
X25436D01*
X25267Y23500D01*
Y23839D01*
X25436Y24008D01*
X25775D01*
X25944Y23839D01*
X26960Y20452D02*
Y21468D01*
X26452D01*
X26283Y21299D01*
Y20622D01*
X26452Y20452D01*
X26960D01*
X25267D02*
X25606Y20622D01*
X25944Y20960D01*
Y21299D01*
X25775Y21468D01*
X25436D01*
X25267Y21299D01*
Y21129D01*
X25436Y20960D01*
X25944D01*
X26283Y33322D02*
X26452Y33152D01*
X26791D01*
X26960Y33322D01*
Y33999D01*
X26791Y34168D01*
X26452D01*
X26283Y33999D01*
Y33660D01*
X26621D01*
X25944Y34168D02*
Y33152D01*
X25267Y34168D01*
Y33152D01*
X24929D02*
Y34168D01*
X24421D01*
X24252Y33999D01*
Y33322D01*
X24421Y33152D01*
X24929D01*
X26960Y30612D02*
Y31628D01*
X26452D01*
X26283Y31459D01*
Y30782D01*
X26452Y30612D01*
X26960D01*
X25267Y31628D02*
X25944D01*
X25267Y30951D01*
Y30782D01*
X25436Y30612D01*
X25775D01*
X25944Y30782D01*
X26960Y28072D02*
Y29088D01*
X26452D01*
X26283Y28919D01*
Y28242D01*
X26452Y28072D01*
X26960D01*
X25944Y28242D02*
X25775Y28072D01*
X25436D01*
X25267Y28242D01*
Y28411D01*
X25436Y28580D01*
X25606D01*
X25436D01*
X25267Y28749D01*
Y28919D01*
X25436Y29088D01*
X25775D01*
X25944Y28919D01*
X26960Y40772D02*
X26283D01*
X26621D01*
Y41788D01*
X25944Y40772D02*
X25267Y41788D01*
Y40772D02*
X25944Y41788D01*
X24929D02*
X24590D01*
X24759D01*
Y40772D01*
X24929Y40942D01*
X26960Y39248D02*
Y38232D01*
X26452D01*
X26283Y38402D01*
Y38740D01*
X26452Y38909D01*
X26960D01*
X26621D02*
X26283Y39248D01*
X25944Y38232D02*
X25267Y39248D01*
Y38232D02*
X25944Y39248D01*
X24929D02*
X24590D01*
X24759D01*
Y38232D01*
X24929Y38402D01*
X26960Y36708D02*
Y35692D01*
X26452D01*
X26283Y35862D01*
Y36200D01*
X26452Y36369D01*
X26960D01*
X26621D02*
X26283Y36708D01*
X25267Y35862D02*
X25436Y35692D01*
X25775D01*
X25944Y35862D01*
Y36031D01*
X25775Y36200D01*
X25436D01*
X25267Y36369D01*
Y36539D01*
X25436Y36708D01*
X25775D01*
X25944Y36539D01*
X24929Y35692D02*
X24252D01*
X24590D01*
Y36708D01*
X34707D02*
Y35692D01*
X34199D01*
X34030Y35862D01*
Y36200D01*
X34199Y36369D01*
X34707D01*
X34368D02*
X34030Y36708D01*
X33014Y35862D02*
X33183Y35692D01*
X33522D01*
X33691Y35862D01*
Y36031D01*
X33522Y36200D01*
X33183D01*
X33014Y36369D01*
Y36539D01*
X33183Y36708D01*
X33522D01*
X33691Y36539D01*
X32676Y35692D02*
X31999D01*
X32337D01*
Y36708D01*
X34030Y38402D02*
X34199Y38232D01*
X34538D01*
X34707Y38402D01*
Y39079D01*
X34538Y39248D01*
X34199D01*
X34030Y39079D01*
Y38740D01*
X34368D01*
X33691Y39248D02*
Y38232D01*
X33014Y39248D01*
Y38232D01*
X32676D02*
Y39248D01*
X32168D01*
X31999Y39079D01*
Y38402D01*
X32168Y38232D01*
X32676D01*
X34707Y40772D02*
Y41449D01*
X34368Y41788D01*
X34030Y41449D01*
Y40772D01*
X33691D02*
X33353D01*
X33522D01*
Y41788D01*
X33691D01*
X33353D01*
X32845D02*
Y40772D01*
X32168Y41788D01*
Y40772D01*
X34707Y29088D02*
Y28411D01*
X34368Y28072D01*
X34030Y28411D01*
Y29088D01*
Y28580D01*
X34707D01*
X33014Y28072D02*
X33353Y28242D01*
X33691Y28580D01*
Y28919D01*
X33522Y29088D01*
X33183D01*
X33014Y28919D01*
Y28749D01*
X33183Y28580D01*
X33691D01*
X34707Y31628D02*
Y30951D01*
X34368Y30612D01*
X34030Y30951D01*
Y31628D01*
Y31120D01*
X34707D01*
X33691Y30612D02*
X33014D01*
Y30782D01*
X33691Y31459D01*
Y31628D01*
X34030Y33152D02*
X34707D01*
Y33660D01*
X34368Y33491D01*
X34199D01*
X34030Y33660D01*
Y33999D01*
X34199Y34168D01*
X34538D01*
X34707Y33999D01*
X33691Y33152D02*
Y33829D01*
X33353Y34168D01*
X33014Y33829D01*
Y33152D01*
X34707Y21468D02*
Y20791D01*
X34368Y20452D01*
X34030Y20791D01*
Y21468D01*
Y20960D01*
X34707D01*
X33691Y20622D02*
X33522Y20452D01*
X33183D01*
X33014Y20622D01*
Y20791D01*
X33183Y20960D01*
X33353D01*
X33183D01*
X33014Y21129D01*
Y21299D01*
X33183Y21468D01*
X33522D01*
X33691Y21299D01*
X34707Y24008D02*
Y23331D01*
X34368Y22992D01*
X34030Y23331D01*
Y24008D01*
Y23500D01*
X34707D01*
X33183Y24008D02*
Y22992D01*
X33691Y23500D01*
X33014D01*
X34707Y26548D02*
Y25871D01*
X34368Y25532D01*
X34030Y25871D01*
Y26548D01*
Y26040D01*
X34707D01*
X33014Y25532D02*
X33691D01*
Y26040D01*
X33353Y25871D01*
X33183D01*
X33014Y26040D01*
Y26379D01*
X33183Y26548D01*
X33522D01*
X33691Y26379D01*
X34707Y13848D02*
Y13171D01*
X34368Y12832D01*
X34030Y13171D01*
Y13848D01*
Y13340D01*
X34707D01*
X33691Y13002D02*
X33522Y12832D01*
X33183D01*
X33014Y13002D01*
Y13679D01*
X33183Y13848D01*
X33522D01*
X33691Y13679D01*
Y13002D01*
X34707Y16388D02*
Y15711D01*
X34368Y15372D01*
X34030Y15711D01*
Y16388D01*
Y15880D01*
X34707D01*
X33691Y16388D02*
X33353D01*
X33522D01*
Y15372D01*
X33691Y15542D01*
X34707Y18928D02*
Y18251D01*
X34368Y17912D01*
X34030Y18251D01*
Y18928D01*
Y18420D01*
X34707D01*
X33014Y18928D02*
X33691D01*
X33014Y18251D01*
Y18082D01*
X33183Y17912D01*
X33522D01*
X33691Y18082D01*
X34707Y10292D02*
Y10969D01*
X34368Y11308D01*
X34030Y10969D01*
Y10292D01*
X33691Y11308D02*
Y10292D01*
X33183D01*
X33014Y10462D01*
Y10800D01*
X33183Y10969D01*
X33691D01*
X33353D02*
X33014Y11308D01*
X31999Y10292D02*
X32676D01*
Y11308D01*
X31999D01*
X32676Y10800D02*
X32337D01*
X30983Y10292D02*
X31660D01*
Y10800D01*
X31321D01*
X31660D01*
Y11308D01*
X34707Y7922D02*
X34538Y7752D01*
X34199D01*
X34030Y7922D01*
Y8091D01*
X34199Y8260D01*
X34368D01*
X34199D01*
X34030Y8429D01*
Y8599D01*
X34199Y8768D01*
X34538D01*
X34707Y8599D01*
X33691Y7752D02*
Y8429D01*
X33353Y8768D01*
X33014Y8429D01*
Y7752D01*
X32676Y7922D02*
X32506Y7752D01*
X32168D01*
X31999Y7922D01*
Y8091D01*
X32168Y8260D01*
X32337D01*
X32168D01*
X31999Y8429D01*
Y8599D01*
X32168Y8768D01*
X32506D01*
X32676Y8599D01*
X34707Y5212D02*
Y6228D01*
X34199D01*
X34030Y6059D01*
Y5382D01*
X34199Y5212D01*
X34707D01*
X33691Y6228D02*
X33353D01*
X33522D01*
Y5212D01*
X33691Y5382D01*
X32845D02*
X32676Y5212D01*
X32337D01*
X32168Y5382D01*
Y5551D01*
X32337Y5720D01*
X32506D01*
X32337D01*
X32168Y5889D01*
Y6059D01*
X32337Y6228D01*
X32676D01*
X32845Y6059D01*
D12*
X42325Y32500D02*
G03*
X42325Y32500I-125J0D01*
G01*
X55325D02*
G03*
X55325Y32500I-125J0D01*
G01*
X42325Y9000D02*
G03*
X42325Y9000I-125J0D01*
G01*
X54825D02*
G03*
X54825Y9000I-125J0D01*
G01*
X18880Y50350D02*
G03*
X18880Y50350I-125J0D01*
G01*
D28*
X83500Y7000D02*
G03*
X83500Y7000I-3500J0D01*
G01*
X92722Y44421D02*
X92849D01*
Y45056D02*
X93484D01*
X92976Y44929D02*
X96024D01*
Y37944D02*
Y44929D01*
X92976Y37944D02*
X96024D01*
X92976D02*
Y44929D01*
X92849Y44421D02*
Y45056D01*
X92722Y44421D02*
Y45183D01*
X93484D01*
Y45056D02*
Y45183D01*
Y45056D02*
Y45310D01*
X92595D02*
X93484D01*
X92595Y44421D02*
Y45310D01*
Y44421D02*
X92849D01*
X92722Y21921D02*
X92849D01*
Y22556D02*
X93484D01*
X92976Y22429D02*
X96024D01*
Y15444D02*
Y22429D01*
X92976Y15444D02*
X96024D01*
X92976D02*
Y22429D01*
X92849Y21921D02*
Y22556D01*
X92722Y21921D02*
Y22683D01*
X93484D01*
Y22556D02*
Y22683D01*
Y22556D02*
Y22810D01*
X92595D02*
X93484D01*
X92595Y21921D02*
Y22810D01*
Y21921D02*
X92849D01*
X92722Y33421D02*
X92849D01*
Y34056D02*
X93484D01*
X92976Y33929D02*
X96024D01*
Y26944D02*
Y33929D01*
X92976Y26944D02*
X96024D01*
X92976D02*
Y33929D01*
X92849Y33421D02*
Y34056D01*
X92722Y33421D02*
Y34183D01*
X93484D01*
Y34056D02*
Y34183D01*
Y34056D02*
Y34310D01*
X92595D02*
X93484D01*
X92595Y33421D02*
Y34310D01*
Y33421D02*
X92849D01*
X86000Y5750D02*
Y8250D01*
X74000Y5750D02*
Y8250D01*
Y10750D02*
Y13000D01*
Y1000D02*
Y3250D01*
X86000Y10750D02*
Y13000D01*
Y1000D02*
Y3250D01*
X74000Y1000D02*
X86000D01*
X74000Y13000D02*
X86000D01*
X74000Y1000D02*
X86000D01*
X74000Y13000D02*
X86000D01*
D29*
X17900Y48200D02*
G03*
X17900Y48200I-200J0D01*
G01*
D30*
X3478Y15994D02*
G03*
X3121Y12954I1022J-1661D01*
G01*
X5943Y13021D02*
G03*
X5522Y15994I-1443J1312D01*
G01*
X42850Y34695D02*
X53150D01*
X42850Y35195D02*
X53150D01*
X42850Y30295D02*
X53150D01*
Y35195D01*
X42850Y30295D02*
Y35195D01*
X55850Y34695D02*
X66150D01*
X55850Y35195D02*
X66150D01*
X55850Y30295D02*
X66150D01*
Y35195D01*
X55850Y30295D02*
Y35195D01*
X42850Y11195D02*
X53150D01*
X42850Y11695D02*
X53150D01*
X42850Y6795D02*
X53150D01*
Y11695D01*
X42850Y6795D02*
Y11695D01*
X55350Y11195D02*
X65650D01*
X55350Y11695D02*
X65650D01*
X55350Y6795D02*
X65650D01*
Y11695D01*
X55350Y6795D02*
Y11695D01*
X13500Y49000D02*
X18500D01*
X13500Y47000D02*
X18500D01*
Y49000D01*
X13500Y47000D02*
Y49000D01*
X5858Y12936D02*
X5943Y13021D01*
X3121Y12936D02*
X3484D01*
X5516D02*
X5858D01*
X75000Y9000D02*
X75423D01*
X75212D01*
Y10270D01*
X75000Y10058D01*
X84846Y9000D02*
X84000D01*
X84846Y9846D01*
Y10058D01*
X84635Y10270D01*
X84212D01*
X84000Y10058D01*
X75000Y5058D02*
X75212Y5270D01*
X75635D01*
X75846Y5058D01*
Y4846D01*
X75635Y4635D01*
X75423D01*
X75635D01*
X75846Y4423D01*
Y4212D01*
X75635Y4000D01*
X75212D01*
X75000Y4212D01*
X84635Y4000D02*
Y5270D01*
X84000Y4635D01*
X84846D01*
D31*
X6700Y18000D02*
Y29000D01*
X2300Y18000D02*
X6700D01*
X2300D02*
Y29000D01*
X6700D01*
D32*
X3992Y11793D02*
X3230D01*
X3484D01*
X3992Y11285D01*
X3611Y11666D01*
X3230Y11285D01*
M02*
