G04 Layer_Physical_Order=2*
G04 Layer_Color=11436288*
%FSLAX43Y43*%
%MOMM*%
G71*
G01*
G75*
%ADD11C,0.254*%
%ADD12C,0.250*%
%ADD13C,0.500*%
%ADD14C,0.260*%
%ADD15C,1.524*%
%ADD16C,1.700*%
%ADD17R,1.700X1.700*%
%ADD18C,1.800*%
%ADD19R,1.016X1.016*%
%ADD20C,1.016*%
%ADD21R,1.270X2.540*%
%ADD22O,1.270X2.540*%
%ADD23C,1.778*%
%ADD24R,1.778X1.778*%
%ADD25C,9.000*%
%ADD26C,1.600*%
%ADD27C,1.000*%
G36*
X91619Y57873D02*
X91118Y57626D01*
X90600Y57280D01*
X90131Y56869D01*
X89720Y56400D01*
X89374Y55882D01*
X89098Y55323D01*
X88898Y54733D01*
X88777Y54122D01*
X88736Y53500D01*
X88777Y52878D01*
X88898Y52267D01*
X89098Y51677D01*
X89207Y51456D01*
X89140Y51348D01*
X86939D01*
X86887Y51472D01*
X86725Y51685D01*
X86512Y51847D01*
X86265Y51950D01*
X86000Y51985D01*
X85735Y51950D01*
X85488Y51847D01*
X85275Y51685D01*
X85113Y51472D01*
X85010Y51225D01*
X84975Y50960D01*
X85010Y50695D01*
X85113Y50448D01*
X85275Y50235D01*
X85488Y50073D01*
X85735Y49970D01*
X86000Y49935D01*
X86265Y49970D01*
X86512Y50073D01*
X86725Y50235D01*
X86887Y50448D01*
X86939Y50572D01*
X89745D01*
X90131Y50131D01*
X90600Y49720D01*
X91118Y49374D01*
X91677Y49098D01*
X92267Y48898D01*
X92878Y48777D01*
X93500Y48736D01*
X94122Y48777D01*
X94733Y48898D01*
X95323Y49098D01*
X95882Y49374D01*
X96400Y49720D01*
X96869Y50131D01*
X97280Y50600D01*
X97626Y51118D01*
X97873Y51619D01*
X98000Y51589D01*
Y8411D01*
X97873Y8381D01*
X97626Y8882D01*
X97280Y9400D01*
X96869Y9869D01*
X96400Y10280D01*
X95882Y10626D01*
X95323Y10902D01*
X94733Y11102D01*
X94122Y11223D01*
X93500Y11264D01*
X92878Y11223D01*
X92267Y11102D01*
X91677Y10902D01*
X91118Y10626D01*
X90600Y10280D01*
X90131Y9869D01*
X89720Y9400D01*
X89374Y8882D01*
X89098Y8323D01*
X88898Y7733D01*
X88777Y7122D01*
X88736Y6500D01*
X88777Y5878D01*
X88898Y5267D01*
X89098Y4677D01*
X89374Y4118D01*
X89720Y3600D01*
X90131Y3131D01*
X90600Y2720D01*
X91118Y2374D01*
X91619Y2127D01*
X91589Y2000D01*
X8411D01*
X8381Y2127D01*
X8882Y2374D01*
X9400Y2720D01*
X9869Y3131D01*
X10280Y3600D01*
X10626Y4118D01*
X10902Y4677D01*
X11102Y5267D01*
X11223Y5878D01*
X11264Y6500D01*
X11223Y7122D01*
X11102Y7733D01*
X10902Y8323D01*
X10626Y8882D01*
X10280Y9400D01*
X9869Y9869D01*
X9400Y10280D01*
X8882Y10626D01*
X8323Y10902D01*
X7733Y11102D01*
X7122Y11223D01*
X6500Y11264D01*
X5878Y11223D01*
X5267Y11102D01*
X4677Y10902D01*
X4118Y10626D01*
X3600Y10280D01*
X3131Y9869D01*
X2720Y9400D01*
X2374Y8882D01*
X2127Y8381D01*
X2000Y8411D01*
Y40347D01*
X2298Y40386D01*
X2576Y40502D01*
X2815Y40685D01*
X2998Y40924D01*
X3114Y41202D01*
X3153Y41500D01*
X3114Y41798D01*
X2998Y42076D01*
X2815Y42315D01*
X2576Y42498D01*
X2298Y42614D01*
X2000Y42653D01*
Y42887D01*
X2298Y42926D01*
X2576Y43042D01*
X2815Y43225D01*
X2998Y43464D01*
X3114Y43742D01*
X3153Y44040D01*
X3114Y44338D01*
X2998Y44616D01*
X2815Y44855D01*
X2576Y45038D01*
X2298Y45154D01*
X2000Y45193D01*
Y45427D01*
X2298Y45466D01*
X2576Y45582D01*
X2815Y45765D01*
X2998Y46004D01*
X3114Y46282D01*
X3136Y46453D01*
X2000D01*
Y46707D01*
X3136D01*
X3114Y46878D01*
X2998Y47156D01*
X2815Y47395D01*
X2576Y47578D01*
X2298Y47694D01*
X2000Y47733D01*
Y51589D01*
X2127Y51619D01*
X2374Y51118D01*
X2720Y50600D01*
X3131Y50131D01*
X3600Y49720D01*
X4118Y49374D01*
X4677Y49098D01*
X5267Y48898D01*
X5878Y48777D01*
X6500Y48736D01*
X7122Y48777D01*
X7733Y48898D01*
X8323Y49098D01*
X8882Y49374D01*
X9400Y49720D01*
X9869Y50131D01*
X10280Y50600D01*
X10626Y51118D01*
X10902Y51677D01*
X11102Y52267D01*
X11223Y52878D01*
X11264Y53500D01*
X11223Y54122D01*
X11102Y54733D01*
X10902Y55323D01*
X10626Y55882D01*
X10280Y56400D01*
X9869Y56869D01*
X9400Y57280D01*
X8882Y57626D01*
X8381Y57873D01*
X8411Y58000D01*
X12717D01*
X12760Y57873D01*
X12685Y57815D01*
X12502Y57576D01*
X12386Y57298D01*
X12347Y57000D01*
X12386Y56702D01*
X12502Y56424D01*
X12685Y56185D01*
X12924Y56002D01*
X13202Y55886D01*
X13500Y55847D01*
X13798Y55886D01*
X14076Y56002D01*
X14315Y56185D01*
X14498Y56424D01*
X14614Y56702D01*
X14653Y57000D01*
X14614Y57298D01*
X14498Y57576D01*
X14315Y57815D01*
X14240Y57873D01*
X14283Y58000D01*
X15257D01*
X15300Y57873D01*
X15225Y57815D01*
X15042Y57576D01*
X14926Y57298D01*
X14887Y57000D01*
X14926Y56702D01*
X15042Y56424D01*
X15225Y56185D01*
X15464Y56002D01*
X15742Y55886D01*
X16040Y55847D01*
X16338Y55886D01*
X16616Y56002D01*
X16855Y56185D01*
X17038Y56424D01*
X17154Y56702D01*
X17193Y57000D01*
X17154Y57298D01*
X17038Y57576D01*
X16855Y57815D01*
X16780Y57873D01*
X16823Y58000D01*
X17797D01*
X17840Y57873D01*
X17765Y57815D01*
X17582Y57576D01*
X17466Y57298D01*
X17444Y57127D01*
X19716D01*
X19694Y57298D01*
X19578Y57576D01*
X19395Y57815D01*
X19320Y57873D01*
X19363Y58000D01*
X91589D01*
X91619Y57873D01*
D02*
G37*
%LPC*%
G36*
X61508Y26033D02*
X60627D01*
Y25152D01*
X60765Y25170D01*
X61012Y25273D01*
X61225Y25435D01*
X61387Y25648D01*
X61490Y25895D01*
X61508Y26033D01*
D02*
G37*
G36*
X60373D02*
X59492D01*
X59510Y25895D01*
X59613Y25648D01*
X59775Y25435D01*
X59988Y25273D01*
X60235Y25170D01*
X60373Y25152D01*
Y26033D01*
D02*
G37*
G36*
X37120Y27193D02*
X36822Y27154D01*
X36544Y27038D01*
X36305Y26855D01*
X36122Y26616D01*
X36006Y26338D01*
X35967Y26040D01*
X36006Y25742D01*
X36122Y25464D01*
X36305Y25225D01*
X36544Y25042D01*
X36822Y24926D01*
X36958Y24908D01*
X37090Y24777D01*
X37044Y24643D01*
X36822Y24614D01*
X36544Y24498D01*
X36305Y24315D01*
X36122Y24076D01*
X36006Y23798D01*
X35967Y23500D01*
X36006Y23202D01*
X36122Y22924D01*
X36305Y22685D01*
X36544Y22502D01*
X36822Y22386D01*
X37101Y22350D01*
X37231Y22220D01*
X37175Y22106D01*
X37120Y22113D01*
X36822Y22074D01*
X36544Y21958D01*
X36305Y21775D01*
X36122Y21536D01*
X36006Y21258D01*
X35967Y20960D01*
X36006Y20662D01*
X36122Y20384D01*
X36305Y20145D01*
X36544Y19962D01*
X36822Y19846D01*
X37120Y19807D01*
X37418Y19846D01*
X37606Y19924D01*
X38544Y18986D01*
X38620Y18935D01*
X38582Y18808D01*
X38196D01*
X38118Y18996D01*
X37935Y19235D01*
X37696Y19418D01*
X37418Y19534D01*
X37120Y19573D01*
X36822Y19534D01*
X36544Y19418D01*
X36305Y19235D01*
X36122Y18996D01*
X36006Y18718D01*
X35967Y18420D01*
X36006Y18122D01*
X36122Y17844D01*
X36305Y17605D01*
X36544Y17422D01*
X36822Y17306D01*
X37120Y17267D01*
X37418Y17306D01*
X37696Y17422D01*
X37935Y17605D01*
X38118Y17844D01*
X38196Y18032D01*
X39098D01*
X39146Y17914D01*
X37931Y16699D01*
X37696Y16878D01*
X37418Y16994D01*
X37120Y17033D01*
X36822Y16994D01*
X36544Y16878D01*
X36305Y16695D01*
X36122Y16456D01*
X36006Y16178D01*
X35967Y15880D01*
X36006Y15582D01*
X36122Y15304D01*
X36305Y15065D01*
X36544Y14882D01*
X36822Y14766D01*
X37044Y14737D01*
X37090Y14603D01*
X36958Y14472D01*
X36822Y14454D01*
X36544Y14338D01*
X36305Y14155D01*
X36122Y13916D01*
X36006Y13638D01*
X35967Y13340D01*
X36006Y13042D01*
X36122Y12764D01*
X36305Y12525D01*
X36544Y12342D01*
X36822Y12226D01*
X37120Y12187D01*
X37418Y12226D01*
X37696Y12342D01*
X37935Y12525D01*
X38118Y12764D01*
X38234Y13042D01*
X38273Y13340D01*
X38234Y13638D01*
X38118Y13916D01*
X37935Y14155D01*
X37902Y14181D01*
X37893Y14308D01*
X38665Y15079D01*
X38749Y15205D01*
X38754Y15230D01*
X38778Y15354D01*
Y15729D01*
X40398Y17349D01*
X89737D01*
X89886Y17378D01*
X90012Y17462D01*
X92991Y20442D01*
X93111Y20382D01*
X93096Y20270D01*
X93123Y20071D01*
X93199Y19886D01*
X93322Y19727D01*
X93358Y19698D01*
Y19572D01*
X93322Y19543D01*
X93199Y19384D01*
X93123Y19199D01*
X93096Y19000D01*
X93123Y18801D01*
X93199Y18616D01*
X93322Y18457D01*
X93358Y18428D01*
Y18302D01*
X93322Y18273D01*
X93199Y18114D01*
X93123Y17929D01*
X93096Y17730D01*
X93123Y17531D01*
X93199Y17346D01*
X93322Y17187D01*
X93358Y17159D01*
Y17031D01*
X93322Y17003D01*
X93199Y16844D01*
X93123Y16659D01*
X93096Y16460D01*
X93123Y16261D01*
X93199Y16076D01*
X93322Y15917D01*
X93481Y15794D01*
X93666Y15718D01*
X93865Y15691D01*
X94064Y15718D01*
X94249Y15794D01*
X94408Y15917D01*
X94437Y15953D01*
X94563D01*
X94592Y15917D01*
X94751Y15794D01*
X94936Y15718D01*
X95135Y15691D01*
X95334Y15718D01*
X95519Y15794D01*
X95678Y15917D01*
X95801Y16076D01*
X95877Y16261D01*
X95904Y16460D01*
X95877Y16659D01*
X95801Y16844D01*
X95678Y17003D01*
X95642Y17031D01*
Y17159D01*
X95678Y17187D01*
X95801Y17346D01*
X95877Y17531D01*
X95904Y17730D01*
X95877Y17929D01*
X95801Y18114D01*
X95678Y18273D01*
X95642Y18302D01*
Y18428D01*
X95678Y18457D01*
X95801Y18616D01*
X95877Y18801D01*
X95904Y19000D01*
X95878Y19194D01*
X96807Y20122D01*
X96891Y20248D01*
X96896Y20273D01*
X96920Y20397D01*
Y22119D01*
X96891Y22267D01*
X96807Y22393D01*
X94917Y24283D01*
X94791Y24367D01*
X94643Y24396D01*
X84646D01*
X84538Y24538D01*
X84380Y24659D01*
X84197Y24735D01*
X84000Y24761D01*
X83803Y24735D01*
X83620Y24659D01*
X83462Y24538D01*
X83341Y24380D01*
X83265Y24197D01*
X83239Y24000D01*
X83265Y23803D01*
X83341Y23620D01*
X83462Y23462D01*
X83620Y23341D01*
X83803Y23265D01*
X84000Y23239D01*
X84197Y23265D01*
X84380Y23341D01*
X84538Y23462D01*
X84658Y23620D01*
X85904D01*
X85953Y23502D01*
X85339Y22888D01*
X41152D01*
X41038Y23038D01*
X40880Y23159D01*
X40697Y23235D01*
X40500Y23261D01*
X40303Y23235D01*
X40120Y23159D01*
X39962Y23038D01*
X39841Y22880D01*
X39765Y22697D01*
X39739Y22500D01*
X39765Y22303D01*
X39841Y22120D01*
X39962Y21962D01*
X40120Y21841D01*
X40303Y21765D01*
X40500Y21739D01*
X40654Y21760D01*
X40688Y21740D01*
X40740Y21688D01*
X40760Y21654D01*
X40739Y21500D01*
X40765Y21303D01*
X40841Y21120D01*
X40921Y21015D01*
X40859Y20888D01*
X40379D01*
X38778Y22489D01*
Y24026D01*
X38754Y24150D01*
X38749Y24175D01*
X38665Y24301D01*
X37893Y25072D01*
X37902Y25199D01*
X37935Y25225D01*
X38118Y25464D01*
X38234Y25742D01*
X38273Y26040D01*
X38234Y26338D01*
X38118Y26616D01*
X37935Y26855D01*
X37696Y27038D01*
X37418Y27154D01*
X37120Y27193D01*
D02*
G37*
G36*
X67373Y26033D02*
X66492D01*
X66510Y25895D01*
X66613Y25648D01*
X66775Y25435D01*
X66988Y25273D01*
X67235Y25170D01*
X67373Y25152D01*
Y26033D01*
D02*
G37*
G36*
X60627Y27168D02*
Y26287D01*
X61508D01*
X61490Y26425D01*
X61387Y26672D01*
X61225Y26885D01*
X61012Y27047D01*
X60765Y27150D01*
X60627Y27168D01*
D02*
G37*
G36*
X60373D02*
X60235Y27150D01*
X59988Y27047D01*
X59775Y26885D01*
X59613Y26672D01*
X59510Y26425D01*
X59492Y26287D01*
X60373D01*
Y27168D01*
D02*
G37*
G36*
X68508Y26033D02*
X67627D01*
Y25152D01*
X67765Y25170D01*
X68012Y25273D01*
X68225Y25435D01*
X68387Y25648D01*
X68490Y25895D01*
X68508Y26033D01*
D02*
G37*
G36*
X4500Y28766D02*
X4199Y28726D01*
X3918Y28610D01*
X3677Y28425D01*
X3492Y28184D01*
X3376Y27903D01*
X3336Y27602D01*
X3376Y27301D01*
X3492Y27020D01*
X3677Y26779D01*
X3918Y26594D01*
X4044Y26542D01*
Y26405D01*
X3988Y26381D01*
X3775Y26219D01*
X3613Y26006D01*
X3510Y25759D01*
X3475Y25494D01*
X3510Y25229D01*
X3613Y24982D01*
X3775Y24769D01*
X3988Y24606D01*
X4101Y24559D01*
Y24422D01*
X3988Y24375D01*
X3775Y24212D01*
X3613Y24000D01*
X3510Y23753D01*
X3475Y23487D01*
X3510Y23222D01*
X3613Y22975D01*
X3775Y22763D01*
X3988Y22600D01*
X4101Y22553D01*
Y22415D01*
X3988Y22368D01*
X3775Y22205D01*
X3613Y21993D01*
X3510Y21746D01*
X3492Y21608D01*
X5508D01*
X5490Y21746D01*
X5387Y21993D01*
X5225Y22205D01*
X5012Y22368D01*
X4899Y22415D01*
Y22553D01*
X5012Y22600D01*
X5225Y22763D01*
X5387Y22975D01*
X5490Y23222D01*
X5525Y23487D01*
X5490Y23753D01*
X5387Y24000D01*
X5225Y24212D01*
X5012Y24375D01*
X4899Y24422D01*
Y24559D01*
X5012Y24606D01*
X5225Y24769D01*
X5387Y24982D01*
X5490Y25229D01*
X5525Y25494D01*
X5490Y25759D01*
X5387Y26006D01*
X5225Y26219D01*
X5012Y26381D01*
X4956Y26405D01*
Y26542D01*
X5082Y26594D01*
X5323Y26779D01*
X5508Y27020D01*
X5624Y27301D01*
X5664Y27602D01*
X5624Y27903D01*
X5508Y28184D01*
X5323Y28425D01*
X5082Y28610D01*
X4801Y28726D01*
X4500Y28766D01*
D02*
G37*
G36*
X53627Y16848D02*
Y15967D01*
X54508D01*
X54490Y16105D01*
X54387Y16352D01*
X54225Y16565D01*
X54012Y16727D01*
X53765Y16830D01*
X53627Y16848D01*
D02*
G37*
G36*
X53373D02*
X53235Y16830D01*
X52988Y16727D01*
X52775Y16565D01*
X52613Y16352D01*
X52510Y16105D01*
X52492Y15967D01*
X53373D01*
Y16848D01*
D02*
G37*
G36*
X46627D02*
Y15967D01*
X47508D01*
X47490Y16105D01*
X47387Y16352D01*
X47225Y16565D01*
X47012Y16727D01*
X46765Y16830D01*
X46627Y16848D01*
D02*
G37*
G36*
X12500Y19025D02*
X12235Y18990D01*
X11988Y18887D01*
X11775Y18725D01*
X11613Y18512D01*
X11510Y18265D01*
X11475Y18000D01*
X11510Y17735D01*
X11613Y17488D01*
X11775Y17275D01*
X11988Y17113D01*
X12235Y17010D01*
X12500Y16975D01*
X12765Y17010D01*
X13012Y17113D01*
X13225Y17275D01*
X13387Y17488D01*
X13490Y17735D01*
X13525Y18000D01*
X13490Y18265D01*
X13387Y18512D01*
X13225Y18725D01*
X13012Y18887D01*
X12765Y18990D01*
X12500Y19025D01*
D02*
G37*
G36*
X21880Y22113D02*
X21582Y22074D01*
X21304Y21958D01*
X21065Y21775D01*
X20882Y21536D01*
X20766Y21258D01*
X20727Y20960D01*
X20766Y20662D01*
X20882Y20384D01*
X21065Y20145D01*
X21304Y19962D01*
X21582Y19846D01*
X21880Y19807D01*
X22178Y19846D01*
X22456Y19962D01*
X22695Y20145D01*
X22878Y20384D01*
X22994Y20662D01*
X23033Y20960D01*
X22994Y21258D01*
X22878Y21536D01*
X22695Y21775D01*
X22456Y21958D01*
X22178Y22074D01*
X21880Y22113D01*
D02*
G37*
G36*
X5508Y21354D02*
X3492D01*
X3510Y21215D01*
X3613Y20968D01*
X3775Y20756D01*
X3988Y20593D01*
X4026Y20577D01*
Y20450D01*
X3918Y20406D01*
X3677Y20221D01*
X3492Y19980D01*
X3376Y19699D01*
X3336Y19398D01*
X3376Y19097D01*
X3492Y18816D01*
X3677Y18575D01*
X3918Y18390D01*
X4199Y18274D01*
X4500Y18234D01*
X4801Y18274D01*
X5082Y18390D01*
X5323Y18575D01*
X5508Y18816D01*
X5624Y19097D01*
X5664Y19398D01*
X5624Y19699D01*
X5508Y19980D01*
X5323Y20221D01*
X5082Y20406D01*
X4974Y20450D01*
Y20577D01*
X5012Y20593D01*
X5225Y20756D01*
X5387Y20968D01*
X5490Y21215D01*
X5508Y21354D01*
D02*
G37*
G36*
X21880Y19573D02*
X21582Y19534D01*
X21304Y19418D01*
X21065Y19235D01*
X20882Y18996D01*
X20766Y18718D01*
X20727Y18420D01*
X20766Y18122D01*
X20882Y17844D01*
X21065Y17605D01*
X21304Y17422D01*
X21582Y17306D01*
X21880Y17267D01*
X22178Y17306D01*
X22456Y17422D01*
X22695Y17605D01*
X22878Y17844D01*
X22994Y18122D01*
X23033Y18420D01*
X22994Y18718D01*
X22878Y18996D01*
X22695Y19235D01*
X22456Y19418D01*
X22178Y19534D01*
X21880Y19573D01*
D02*
G37*
G36*
X37247Y29716D02*
Y28707D01*
X38256D01*
X38234Y28878D01*
X38118Y29156D01*
X37935Y29395D01*
X37696Y29578D01*
X37418Y29694D01*
X37247Y29716D01*
D02*
G37*
G36*
X36993D02*
X36822Y29694D01*
X36544Y29578D01*
X36305Y29395D01*
X36122Y29156D01*
X36006Y28878D01*
X35984Y28707D01*
X36993D01*
Y29716D01*
D02*
G37*
G36*
X31500Y36961D02*
X31303Y36935D01*
X31120Y36859D01*
X30962Y36738D01*
X30841Y36580D01*
X30765Y36397D01*
X30739Y36200D01*
X30765Y36003D01*
X30841Y35820D01*
X30962Y35662D01*
X31104Y35554D01*
Y28147D01*
X30977Y28085D01*
X30880Y28159D01*
X30697Y28235D01*
X30500Y28261D01*
X30303Y28235D01*
X30120Y28159D01*
X30015Y28079D01*
X29888Y28141D01*
Y28848D01*
X30038Y28962D01*
X30159Y29120D01*
X30235Y29303D01*
X30261Y29500D01*
X30235Y29697D01*
X30159Y29880D01*
X30038Y30038D01*
X29880Y30159D01*
X29697Y30235D01*
X29500Y30261D01*
X29303Y30235D01*
X29120Y30159D01*
X28962Y30038D01*
X28841Y29880D01*
X28765Y29697D01*
X28739Y29500D01*
X28765Y29303D01*
X28841Y29120D01*
X28962Y28962D01*
X29112Y28848D01*
Y14152D01*
X28962Y14038D01*
X28841Y13880D01*
X28765Y13697D01*
X28739Y13500D01*
X28765Y13303D01*
X28841Y13120D01*
X28962Y12962D01*
X29120Y12841D01*
X29303Y12765D01*
X29500Y12739D01*
X29697Y12765D01*
X29880Y12841D01*
X30038Y12962D01*
X30159Y13120D01*
X30235Y13303D01*
X30261Y13500D01*
X30235Y13697D01*
X30159Y13880D01*
X30038Y14038D01*
X29888Y14152D01*
Y15359D01*
X30015Y15421D01*
X30120Y15341D01*
X30303Y15265D01*
X30500Y15240D01*
X30697Y15265D01*
X30880Y15341D01*
X30977Y15415D01*
X31104Y15353D01*
Y5008D01*
X31133Y4859D01*
X31217Y4733D01*
X32225Y3725D01*
X32351Y3641D01*
X32500Y3612D01*
X56561D01*
X56613Y3488D01*
X56775Y3275D01*
X56988Y3113D01*
X57235Y3010D01*
X57500Y2975D01*
X57765Y3010D01*
X58012Y3113D01*
X58225Y3275D01*
X58387Y3488D01*
X58439Y3612D01*
X64839D01*
X65868Y2582D01*
X65994Y2498D01*
X66143Y2469D01*
X72107D01*
X72256Y2498D01*
X72382Y2582D01*
X73255Y3456D01*
X73449Y3376D01*
X73750Y3336D01*
X74051Y3376D01*
X74332Y3492D01*
X74573Y3677D01*
X74758Y3918D01*
X74838Y4112D01*
X85162D01*
X85242Y3918D01*
X85427Y3677D01*
X85668Y3492D01*
X85949Y3376D01*
X86250Y3336D01*
X86551Y3376D01*
X86832Y3492D01*
X87073Y3677D01*
X87258Y3918D01*
X87374Y4199D01*
X87414Y4500D01*
X87374Y4801D01*
X87258Y5082D01*
X87073Y5323D01*
X86832Y5508D01*
X86551Y5624D01*
X86250Y5664D01*
X85949Y5624D01*
X85668Y5508D01*
X85427Y5323D01*
X85242Y5082D01*
X85162Y4888D01*
X74838D01*
X74758Y5082D01*
X74573Y5323D01*
X74332Y5508D01*
X74051Y5624D01*
X73750Y5664D01*
X73449Y5624D01*
X73168Y5508D01*
X72927Y5323D01*
X72742Y5082D01*
X72626Y4801D01*
X72586Y4500D01*
X72626Y4199D01*
X72706Y4005D01*
X71946Y3245D01*
X68522D01*
X68459Y3372D01*
X68547Y3488D01*
X68650Y3735D01*
X68685Y4000D01*
X68650Y4265D01*
X68547Y4512D01*
X68385Y4725D01*
X68174Y4886D01*
Y11784D01*
X68198Y11802D01*
X68319Y11960D01*
X68395Y12143D01*
X68421Y12340D01*
X68395Y12537D01*
X68319Y12720D01*
X68198Y12878D01*
X68040Y12999D01*
X67857Y13075D01*
X67660Y13101D01*
X67463Y13075D01*
X67280Y12999D01*
X67122Y12878D01*
X67001Y12720D01*
X66925Y12537D01*
X66899Y12340D01*
X66925Y12143D01*
X67001Y11960D01*
X67122Y11802D01*
X67146Y11784D01*
Y4886D01*
X66935Y4725D01*
X66773Y4512D01*
X66670Y4265D01*
X66635Y4000D01*
X66670Y3735D01*
X66773Y3488D01*
X66861Y3372D01*
X66798Y3245D01*
X66304D01*
X65275Y4275D01*
X65149Y4359D01*
X65000Y4388D01*
X58439D01*
X58387Y4512D01*
X58225Y4725D01*
X58012Y4887D01*
X57765Y4990D01*
X57500Y5025D01*
X57235Y4990D01*
X56988Y4887D01*
X56775Y4725D01*
X56613Y4512D01*
X56561Y4388D01*
X32661D01*
X31880Y5169D01*
Y35542D01*
X32038Y35662D01*
X32159Y35820D01*
X32235Y36003D01*
X32261Y36200D01*
X32235Y36397D01*
X32159Y36580D01*
X32038Y36738D01*
X31880Y36859D01*
X31697Y36935D01*
X31500Y36961D01*
D02*
G37*
G36*
X21880Y32273D02*
X21582Y32234D01*
X21304Y32118D01*
X21065Y31935D01*
X20882Y31696D01*
X20766Y31418D01*
X20727Y31120D01*
X20766Y30822D01*
X20882Y30544D01*
X21065Y30305D01*
X21304Y30122D01*
X21582Y30006D01*
X21880Y29967D01*
X22178Y30006D01*
X22456Y30122D01*
X22695Y30305D01*
X22878Y30544D01*
X22994Y30822D01*
X23033Y31120D01*
X22994Y31418D01*
X22878Y31696D01*
X22695Y31935D01*
X22456Y32118D01*
X22178Y32234D01*
X21880Y32273D01*
D02*
G37*
G36*
X36993Y32256D02*
X36822Y32234D01*
X36544Y32118D01*
X36305Y31935D01*
X36122Y31696D01*
X36006Y31418D01*
X35984Y31247D01*
X36993D01*
Y32256D01*
D02*
G37*
G36*
X38256Y30993D02*
X37247D01*
Y29984D01*
X37418Y30006D01*
X37696Y30122D01*
X37935Y30305D01*
X38118Y30544D01*
X38234Y30822D01*
X38256Y30993D01*
D02*
G37*
G36*
X36993D02*
X35984D01*
X36006Y30822D01*
X36122Y30544D01*
X36305Y30305D01*
X36544Y30122D01*
X36822Y30006D01*
X36993Y29984D01*
Y30993D01*
D02*
G37*
G36*
X38256Y28453D02*
X37247D01*
Y27444D01*
X37418Y27466D01*
X37696Y27582D01*
X37935Y27765D01*
X38118Y28004D01*
X38234Y28282D01*
X38256Y28453D01*
D02*
G37*
G36*
X40500Y38761D02*
X40303Y38735D01*
X40120Y38659D01*
X39962Y38538D01*
X39841Y38380D01*
X39765Y38197D01*
X39739Y38000D01*
X39765Y37803D01*
X39841Y37620D01*
X39962Y37462D01*
X39986Y37444D01*
Y28056D01*
X39962Y28038D01*
X39841Y27880D01*
X39765Y27697D01*
X39739Y27500D01*
X39765Y27303D01*
X39841Y27120D01*
X39962Y26962D01*
X40120Y26841D01*
X40303Y26765D01*
X40500Y26739D01*
X40697Y26765D01*
X40880Y26841D01*
X41038Y26962D01*
X41159Y27120D01*
X41235Y27303D01*
X41261Y27500D01*
X41235Y27697D01*
X41159Y27880D01*
X41038Y28038D01*
X41014Y28056D01*
Y37444D01*
X41038Y37462D01*
X41159Y37620D01*
X41235Y37803D01*
X41261Y38000D01*
X41235Y38197D01*
X41159Y38380D01*
X41038Y38538D01*
X40880Y38659D01*
X40697Y38735D01*
X40500Y38761D01*
D02*
G37*
G36*
X67627Y27168D02*
Y26287D01*
X68508D01*
X68490Y26425D01*
X68387Y26672D01*
X68225Y26885D01*
X68012Y27047D01*
X67765Y27150D01*
X67627Y27168D01*
D02*
G37*
G36*
X67373D02*
X67235Y27150D01*
X66988Y27047D01*
X66775Y26885D01*
X66613Y26672D01*
X66510Y26425D01*
X66492Y26287D01*
X67373D01*
Y27168D01*
D02*
G37*
G36*
X48000Y33614D02*
X47712Y33576D01*
X47443Y33464D01*
X47213Y33287D01*
X47036Y33057D01*
X46924Y32788D01*
X46886Y32500D01*
X46924Y32212D01*
X47036Y31943D01*
X47213Y31713D01*
X47443Y31536D01*
X47614Y31465D01*
Y27660D01*
X46891Y26938D01*
X46765Y26990D01*
X46500Y27025D01*
X46235Y26990D01*
X45988Y26887D01*
X45775Y26725D01*
X45613Y26512D01*
X45510Y26265D01*
X45475Y26000D01*
X45510Y25735D01*
X45613Y25488D01*
X45775Y25275D01*
X45988Y25113D01*
X46235Y25010D01*
X46500Y24975D01*
X46765Y25010D01*
X47012Y25113D01*
X47225Y25275D01*
X47387Y25488D01*
X47490Y25735D01*
X47525Y26000D01*
X47490Y26265D01*
X47438Y26391D01*
X48273Y27227D01*
X48357Y27352D01*
X48386Y27500D01*
X48386Y27500D01*
Y31465D01*
X48557Y31536D01*
X48787Y31713D01*
X48964Y31943D01*
X49076Y32212D01*
X49114Y32500D01*
X49076Y32788D01*
X48964Y33057D01*
X48787Y33287D01*
X48557Y33464D01*
X48288Y33576D01*
X48000Y33614D01*
D02*
G37*
G36*
X36993Y28453D02*
X35984D01*
X36006Y28282D01*
X36122Y28004D01*
X36305Y27765D01*
X36544Y27582D01*
X36822Y27466D01*
X36993Y27444D01*
Y28453D01*
D02*
G37*
G36*
X69400Y41532D02*
X69168Y41501D01*
X68952Y41412D01*
X68766Y41269D01*
X68623Y41083D01*
X68534Y40867D01*
X68503Y40635D01*
Y39365D01*
X68534Y39133D01*
X68623Y38917D01*
X68766Y38731D01*
X68952Y38588D01*
X69014Y38563D01*
Y30600D01*
X69043Y30452D01*
X69127Y30327D01*
X71767Y27687D01*
X71892Y27603D01*
X72040Y27574D01*
X93201D01*
X93322Y27417D01*
X93481Y27294D01*
X93666Y27218D01*
X93865Y27191D01*
X94064Y27218D01*
X94249Y27294D01*
X94408Y27417D01*
X94437Y27453D01*
X94563D01*
X94592Y27417D01*
X94751Y27294D01*
X94936Y27218D01*
X95135Y27191D01*
X95334Y27218D01*
X95519Y27294D01*
X95678Y27417D01*
X95801Y27576D01*
X95877Y27761D01*
X95904Y27960D01*
X95877Y28159D01*
X95801Y28344D01*
X95678Y28503D01*
X95642Y28531D01*
Y28659D01*
X95678Y28687D01*
X95801Y28846D01*
X95877Y29031D01*
X95904Y29230D01*
X95877Y29429D01*
X95801Y29614D01*
X95678Y29773D01*
X95642Y29802D01*
Y29928D01*
X95678Y29957D01*
X95801Y30116D01*
X95877Y30301D01*
X95904Y30500D01*
X95877Y30699D01*
X95801Y30884D01*
X95678Y31043D01*
X95642Y31072D01*
Y31198D01*
X95678Y31227D01*
X95801Y31386D01*
X95877Y31571D01*
X95904Y31770D01*
X95877Y31969D01*
X95801Y32154D01*
X95678Y32313D01*
X95642Y32341D01*
Y32468D01*
X95678Y32497D01*
X95801Y32656D01*
X95877Y32841D01*
X95904Y33040D01*
X95877Y33239D01*
X95801Y33424D01*
X95678Y33583D01*
X95519Y33706D01*
X95334Y33782D01*
X95135Y33809D01*
X94936Y33782D01*
X94751Y33706D01*
X94741Y33698D01*
X94627Y33754D01*
Y33802D01*
X93103D01*
Y32278D01*
X93151D01*
X93207Y32164D01*
X93199Y32154D01*
X93123Y31969D01*
X93096Y31770D01*
X93123Y31571D01*
X93199Y31386D01*
X93322Y31227D01*
X93358Y31198D01*
Y31072D01*
X93322Y31043D01*
X93199Y30884D01*
X93123Y30699D01*
X93096Y30500D01*
X93123Y30301D01*
X93199Y30116D01*
X93322Y29957D01*
X93358Y29928D01*
Y29802D01*
X93322Y29773D01*
X93199Y29614D01*
X93123Y29429D01*
X93096Y29230D01*
X93123Y29031D01*
X93199Y28846D01*
X93322Y28687D01*
X93358Y28659D01*
Y28531D01*
X93322Y28503D01*
X93201Y28346D01*
X72200D01*
X69786Y30760D01*
Y38563D01*
X69848Y38588D01*
X70034Y38731D01*
X70177Y38917D01*
X70266Y39133D01*
X70297Y39365D01*
Y40635D01*
X70266Y40867D01*
X70177Y41083D01*
X70034Y41269D01*
X69848Y41412D01*
X69632Y41501D01*
X69400Y41532D01*
D02*
G37*
G36*
X12500Y29185D02*
X12235Y29150D01*
X11988Y29047D01*
X11775Y28885D01*
X11613Y28672D01*
X11510Y28425D01*
X11475Y28160D01*
X11510Y27895D01*
X11613Y27648D01*
X11775Y27435D01*
X11988Y27273D01*
X12235Y27170D01*
X12500Y27135D01*
X12765Y27170D01*
X13012Y27273D01*
X13225Y27435D01*
X13387Y27648D01*
X13490Y27895D01*
X13525Y28160D01*
X13490Y28425D01*
X13387Y28672D01*
X13225Y28885D01*
X13012Y29047D01*
X12765Y29150D01*
X12500Y29185D01*
D02*
G37*
G36*
X87397Y9373D02*
X86377D01*
Y8353D01*
X86551Y8376D01*
X86832Y8492D01*
X87073Y8677D01*
X87258Y8918D01*
X87374Y9199D01*
X87397Y9373D01*
D02*
G37*
G36*
X86123D02*
X85103D01*
X85126Y9199D01*
X85242Y8918D01*
X85427Y8677D01*
X85668Y8492D01*
X85949Y8376D01*
X86123Y8353D01*
Y9373D01*
D02*
G37*
G36*
X74897D02*
X73877D01*
Y8353D01*
X74051Y8376D01*
X74332Y8492D01*
X74573Y8677D01*
X74758Y8918D01*
X74874Y9199D01*
X74897Y9373D01*
D02*
G37*
G36*
X73623Y10647D02*
X73449Y10624D01*
X73168Y10508D01*
X72927Y10323D01*
X72742Y10082D01*
X72626Y9801D01*
X72603Y9627D01*
X73623D01*
Y10647D01*
D02*
G37*
G36*
X86377D02*
Y9627D01*
X87397D01*
X87374Y9801D01*
X87258Y10082D01*
X87073Y10323D01*
X86832Y10508D01*
X86551Y10624D01*
X86377Y10647D01*
D02*
G37*
G36*
X86123D02*
X85949Y10624D01*
X85668Y10508D01*
X85427Y10323D01*
X85242Y10082D01*
X85126Y9801D01*
X85103Y9627D01*
X86123D01*
Y10647D01*
D02*
G37*
G36*
X73877D02*
Y9627D01*
X74897D01*
X74874Y9801D01*
X74758Y10082D01*
X74573Y10323D01*
X74332Y10508D01*
X74051Y10624D01*
X73877Y10647D01*
D02*
G37*
G36*
X73623Y9373D02*
X72603D01*
X72626Y9199D01*
X72742Y8918D01*
X72927Y8677D01*
X73168Y8492D01*
X73449Y8376D01*
X73623Y8353D01*
Y9373D01*
D02*
G37*
G36*
X37120Y9413D02*
X36822Y9374D01*
X36544Y9258D01*
X36305Y9075D01*
X36122Y8836D01*
X36006Y8558D01*
X35967Y8260D01*
X36006Y7962D01*
X36122Y7684D01*
X36305Y7445D01*
X36544Y7262D01*
X36822Y7146D01*
X37120Y7107D01*
X37418Y7146D01*
X37696Y7262D01*
X37935Y7445D01*
X38118Y7684D01*
X38234Y7962D01*
X38273Y8260D01*
X38234Y8558D01*
X38118Y8836D01*
X37935Y9075D01*
X37696Y9258D01*
X37418Y9374D01*
X37120Y9413D01*
D02*
G37*
G36*
X21880D02*
X21582Y9374D01*
X21304Y9258D01*
X21065Y9075D01*
X20882Y8836D01*
X20766Y8558D01*
X20727Y8260D01*
X20766Y7962D01*
X20882Y7684D01*
X21065Y7445D01*
X21304Y7262D01*
X21582Y7146D01*
X21880Y7107D01*
X22178Y7146D01*
X22456Y7262D01*
X22695Y7445D01*
X22878Y7684D01*
X22994Y7962D01*
X23033Y8260D01*
X22994Y8558D01*
X22878Y8836D01*
X22695Y9075D01*
X22456Y9258D01*
X22178Y9374D01*
X21880Y9413D01*
D02*
G37*
G36*
Y6873D02*
X21582Y6834D01*
X21304Y6718D01*
X21065Y6535D01*
X20882Y6296D01*
X20766Y6018D01*
X20727Y5720D01*
X20766Y5422D01*
X20882Y5144D01*
X21065Y4905D01*
X21304Y4722D01*
X21582Y4606D01*
X21880Y4567D01*
X22178Y4606D01*
X22456Y4722D01*
X22695Y4905D01*
X22878Y5144D01*
X22994Y5422D01*
X23033Y5720D01*
X22994Y6018D01*
X22878Y6296D01*
X22695Y6535D01*
X22456Y6718D01*
X22178Y6834D01*
X21880Y6873D01*
D02*
G37*
G36*
X60500Y17025D02*
X60235Y16990D01*
X59988Y16887D01*
X59775Y16725D01*
X59613Y16512D01*
X59510Y16265D01*
X59475Y16000D01*
X59510Y15735D01*
X59613Y15488D01*
X59775Y15275D01*
X59988Y15113D01*
X60114Y15060D01*
Y14760D01*
X56240Y10886D01*
X49500D01*
X49352Y10857D01*
X49227Y10773D01*
X48459Y10005D01*
X48288Y10076D01*
X48000Y10114D01*
X47712Y10076D01*
X47443Y9964D01*
X47213Y9787D01*
X47036Y9557D01*
X46924Y9288D01*
X46886Y9000D01*
X46924Y8712D01*
X47036Y8443D01*
X47213Y8213D01*
X47443Y8036D01*
X47712Y7924D01*
X48000Y7886D01*
X48288Y7924D01*
X48557Y8036D01*
X48787Y8213D01*
X48964Y8443D01*
X49076Y8712D01*
X49114Y9000D01*
X49076Y9288D01*
X49005Y9459D01*
X49660Y10114D01*
X50012D01*
X50037Y9987D01*
X49983Y9964D01*
X49753Y9787D01*
X49576Y9557D01*
X49464Y9288D01*
X49426Y9000D01*
X49464Y8712D01*
X49576Y8443D01*
X49753Y8213D01*
X49983Y8036D01*
X50252Y7924D01*
X50540Y7886D01*
X50828Y7924D01*
X51097Y8036D01*
X51327Y8213D01*
X51504Y8443D01*
X51616Y8712D01*
X51654Y9000D01*
X51616Y9288D01*
X51504Y9557D01*
X51327Y9787D01*
X51097Y9964D01*
X51043Y9987D01*
X51068Y10114D01*
X56400D01*
X56548Y10143D01*
X56673Y10227D01*
X60773Y14327D01*
X60773Y14327D01*
X60829Y14411D01*
X60857Y14452D01*
X60886Y14600D01*
X60886Y14600D01*
Y15060D01*
X61012Y15113D01*
X61225Y15275D01*
X61387Y15488D01*
X61490Y15735D01*
X61525Y16000D01*
X61490Y16265D01*
X61387Y16512D01*
X61225Y16725D01*
X61012Y16887D01*
X60765Y16990D01*
X60500Y17025D01*
D02*
G37*
G36*
X59064Y10104D02*
X56856D01*
Y7896D01*
X59064D01*
Y10104D01*
D02*
G37*
G36*
X46564D02*
X44356D01*
Y7896D01*
X46564D01*
Y10104D01*
D02*
G37*
G36*
X63040Y10114D02*
X62752Y10076D01*
X62483Y9964D01*
X62253Y9787D01*
X62076Y9557D01*
X61964Y9288D01*
X61926Y9000D01*
X61964Y8712D01*
X62076Y8443D01*
X62253Y8213D01*
X62483Y8036D01*
X62752Y7924D01*
X63040Y7886D01*
X63328Y7924D01*
X63597Y8036D01*
X63827Y8213D01*
X64004Y8443D01*
X64116Y8712D01*
X64154Y9000D01*
X64116Y9288D01*
X64004Y9557D01*
X63827Y9787D01*
X63597Y9964D01*
X63328Y10076D01*
X63040Y10114D01*
D02*
G37*
G36*
X54508Y15713D02*
X53627D01*
Y14832D01*
X53765Y14850D01*
X54012Y14953D01*
X54225Y15115D01*
X54387Y15328D01*
X54490Y15575D01*
X54508Y15713D01*
D02*
G37*
G36*
X53373D02*
X52492D01*
X52510Y15575D01*
X52613Y15328D01*
X52775Y15115D01*
X52988Y14953D01*
X53235Y14850D01*
X53373Y14832D01*
Y15713D01*
D02*
G37*
G36*
X47508D02*
X46627D01*
Y14832D01*
X46765Y14850D01*
X47012Y14953D01*
X47225Y15115D01*
X47387Y15328D01*
X47490Y15575D01*
X47508Y15713D01*
D02*
G37*
G36*
X67500Y17025D02*
X67235Y16990D01*
X66988Y16887D01*
X66775Y16725D01*
X66613Y16512D01*
X66510Y16265D01*
X66475Y16000D01*
X66510Y15735D01*
X66562Y15609D01*
X60959Y10005D01*
X60788Y10076D01*
X60500Y10114D01*
X60212Y10076D01*
X59943Y9964D01*
X59713Y9787D01*
X59536Y9557D01*
X59424Y9288D01*
X59386Y9000D01*
X59424Y8712D01*
X59536Y8443D01*
X59713Y8213D01*
X59943Y8036D01*
X60212Y7924D01*
X60500Y7886D01*
X60788Y7924D01*
X61057Y8036D01*
X61287Y8213D01*
X61464Y8443D01*
X61576Y8712D01*
X61614Y9000D01*
X61576Y9288D01*
X61505Y9459D01*
X67109Y15062D01*
X67235Y15010D01*
X67500Y14975D01*
X67765Y15010D01*
X68012Y15113D01*
X68225Y15275D01*
X68387Y15488D01*
X68490Y15735D01*
X68525Y16000D01*
X68490Y16265D01*
X68387Y16512D01*
X68225Y16725D01*
X68012Y16887D01*
X67765Y16990D01*
X67500Y17025D01*
D02*
G37*
G36*
X46373Y16848D02*
X46235Y16830D01*
X45988Y16727D01*
X45775Y16565D01*
X45613Y16352D01*
X45510Y16105D01*
X45492Y15967D01*
X46373D01*
Y16848D01*
D02*
G37*
G36*
X4627Y16649D02*
Y15730D01*
X5546D01*
X5527Y15878D01*
X5421Y16135D01*
X5252Y16355D01*
X5032Y16524D01*
X4775Y16630D01*
X4627Y16649D01*
D02*
G37*
G36*
X4373D02*
X4225Y16630D01*
X3968Y16524D01*
X3748Y16355D01*
X3579Y16135D01*
X3473Y15878D01*
X3454Y15730D01*
X4373D01*
Y16649D01*
D02*
G37*
G36*
X46373Y15713D02*
X45492D01*
X45510Y15575D01*
X45613Y15328D01*
X45775Y15115D01*
X45988Y14953D01*
X46235Y14850D01*
X46373Y14832D01*
Y15713D01*
D02*
G37*
G36*
X4500Y14126D02*
X4225Y14090D01*
X3968Y13984D01*
X3748Y13815D01*
X3579Y13595D01*
X3473Y13338D01*
X3437Y13063D01*
X3473Y12788D01*
X3579Y12532D01*
X3748Y12311D01*
X3968Y12142D01*
X4225Y12036D01*
X4500Y12000D01*
X4775Y12036D01*
X5032Y12142D01*
X5252Y12311D01*
X5421Y12532D01*
X5527Y12788D01*
X5563Y13063D01*
X5527Y13338D01*
X5421Y13595D01*
X5252Y13815D01*
X5032Y13984D01*
X4775Y14090D01*
X4500Y14126D01*
D02*
G37*
G36*
X37120Y11953D02*
X36822Y11914D01*
X36544Y11798D01*
X36305Y11615D01*
X36122Y11376D01*
X36006Y11098D01*
X35967Y10800D01*
X36006Y10502D01*
X36122Y10224D01*
X36305Y9985D01*
X36544Y9802D01*
X36822Y9686D01*
X37120Y9647D01*
X37418Y9686D01*
X37696Y9802D01*
X37935Y9985D01*
X38118Y10224D01*
X38234Y10502D01*
X38273Y10800D01*
X38234Y11098D01*
X38118Y11376D01*
X37935Y11615D01*
X37696Y11798D01*
X37418Y11914D01*
X37120Y11953D01*
D02*
G37*
G36*
X21880D02*
X21582Y11914D01*
X21304Y11798D01*
X21065Y11615D01*
X20882Y11376D01*
X20766Y11098D01*
X20727Y10800D01*
X20766Y10502D01*
X20882Y10224D01*
X21065Y9985D01*
X21304Y9802D01*
X21582Y9686D01*
X21880Y9647D01*
X22178Y9686D01*
X22456Y9802D01*
X22695Y9985D01*
X22878Y10224D01*
X22994Y10502D01*
X23033Y10800D01*
X22994Y11098D01*
X22878Y11376D01*
X22695Y11615D01*
X22456Y11798D01*
X22178Y11914D01*
X21880Y11953D01*
D02*
G37*
G36*
Y14493D02*
X21582Y14454D01*
X21304Y14338D01*
X21065Y14155D01*
X20882Y13916D01*
X20766Y13638D01*
X20727Y13340D01*
X20766Y13042D01*
X20882Y12764D01*
X21065Y12525D01*
X21304Y12342D01*
X21582Y12226D01*
X21880Y12187D01*
X22178Y12226D01*
X22456Y12342D01*
X22695Y12525D01*
X22878Y12764D01*
X22994Y13042D01*
X23033Y13340D01*
X22994Y13638D01*
X22878Y13916D01*
X22695Y14155D01*
X22456Y14338D01*
X22178Y14454D01*
X21880Y14493D01*
D02*
G37*
G36*
Y17033D02*
X21582Y16994D01*
X21304Y16878D01*
X21065Y16695D01*
X20882Y16456D01*
X20766Y16178D01*
X20727Y15880D01*
X20766Y15582D01*
X20882Y15304D01*
X21065Y15065D01*
X21304Y14882D01*
X21582Y14766D01*
X21880Y14727D01*
X22178Y14766D01*
X22456Y14882D01*
X22695Y15065D01*
X22878Y15304D01*
X22994Y15582D01*
X23033Y15880D01*
X22994Y16178D01*
X22878Y16456D01*
X22695Y16695D01*
X22456Y16878D01*
X22178Y16994D01*
X21880Y17033D01*
D02*
G37*
G36*
X5546Y15476D02*
X4627D01*
Y14557D01*
X4775Y14576D01*
X5032Y14682D01*
X5252Y14851D01*
X5421Y15072D01*
X5527Y15328D01*
X5546Y15476D01*
D02*
G37*
G36*
X4373D02*
X3454D01*
X3473Y15328D01*
X3579Y15072D01*
X3748Y14851D01*
X3968Y14682D01*
X4225Y14576D01*
X4373Y14557D01*
Y15476D01*
D02*
G37*
G36*
X37247Y32256D02*
Y31247D01*
X38256D01*
X38234Y31418D01*
X38118Y31696D01*
X37935Y31935D01*
X37696Y32118D01*
X37418Y32234D01*
X37247Y32256D01*
D02*
G37*
G36*
X51620Y56772D02*
X51388Y56741D01*
X51172Y56652D01*
X50986Y56509D01*
X50843Y56323D01*
X50754Y56107D01*
X50723Y55875D01*
Y54605D01*
X50754Y54373D01*
X50843Y54157D01*
X50986Y53971D01*
X51131Y53860D01*
X51156Y53733D01*
X51150Y53700D01*
X50220Y52769D01*
X48985D01*
X48936Y52887D01*
X49355Y53305D01*
X49439Y53431D01*
X49468Y53580D01*
Y53804D01*
X49528Y53828D01*
X49714Y53971D01*
X49857Y54157D01*
X49946Y54373D01*
X49977Y54605D01*
Y55875D01*
X49946Y56107D01*
X49857Y56323D01*
X49714Y56509D01*
X49528Y56652D01*
X49312Y56741D01*
X49080Y56772D01*
X48848Y56741D01*
X48632Y56652D01*
X48446Y56509D01*
X48303Y56323D01*
X48214Y56107D01*
X48183Y55875D01*
Y54605D01*
X48214Y54373D01*
X48303Y54157D01*
X48446Y53971D01*
X48619Y53838D01*
X48633Y53793D01*
X48639Y53688D01*
X48228Y53277D01*
X30389D01*
X30240Y53248D01*
X30114Y53164D01*
X28209Y51259D01*
X28125Y51133D01*
X28096Y50984D01*
Y44079D01*
X28112Y43999D01*
Y31661D01*
X24149Y27698D01*
X22804D01*
X22742Y27825D01*
X22878Y28004D01*
X22994Y28282D01*
X23033Y28580D01*
X22994Y28878D01*
X22878Y29156D01*
X22695Y29395D01*
X22456Y29578D01*
X22178Y29694D01*
X21880Y29733D01*
X21582Y29694D01*
X21304Y29578D01*
X21065Y29395D01*
X20882Y29156D01*
X20766Y28878D01*
X20727Y28580D01*
X20766Y28282D01*
X20882Y28004D01*
X21065Y27765D01*
X21111Y27730D01*
X21106Y27603D01*
X21079Y27585D01*
X20335Y26841D01*
X20251Y26715D01*
X20222Y26566D01*
Y25514D01*
X20251Y25365D01*
X20335Y25239D01*
X21107Y24468D01*
X21098Y24341D01*
X21065Y24315D01*
X20882Y24076D01*
X20766Y23798D01*
X20727Y23500D01*
X20766Y23202D01*
X20882Y22924D01*
X21065Y22685D01*
X21304Y22502D01*
X21582Y22386D01*
X21880Y22347D01*
X22178Y22386D01*
X22456Y22502D01*
X22695Y22685D01*
X22878Y22924D01*
X22994Y23202D01*
X23033Y23500D01*
X22994Y23798D01*
X22878Y24076D01*
X22695Y24315D01*
X22456Y24498D01*
X22178Y24614D01*
X22042Y24632D01*
X21910Y24763D01*
X21956Y24897D01*
X22178Y24926D01*
X22456Y25042D01*
X22695Y25225D01*
X22878Y25464D01*
X22956Y25652D01*
X23758D01*
X23907Y25681D01*
X24033Y25765D01*
X29283Y31015D01*
X29367Y31141D01*
X29396Y31290D01*
Y43888D01*
X29514Y43937D01*
X32392Y41059D01*
Y5720D01*
X32421Y5571D01*
X32505Y5445D01*
X32631Y5361D01*
X32780Y5332D01*
X36044D01*
X36122Y5144D01*
X36305Y4905D01*
X36544Y4722D01*
X36822Y4606D01*
X37120Y4567D01*
X37418Y4606D01*
X37696Y4722D01*
X37935Y4905D01*
X38118Y5144D01*
X38234Y5422D01*
X38273Y5720D01*
X38234Y6018D01*
X38118Y6296D01*
X37935Y6535D01*
X37696Y6718D01*
X37418Y6834D01*
X37120Y6873D01*
X36822Y6834D01*
X36544Y6718D01*
X36305Y6535D01*
X36122Y6296D01*
X36044Y6108D01*
X33168D01*
Y41220D01*
X33139Y41369D01*
X33055Y41495D01*
X29888Y44661D01*
Y50339D01*
X30661Y51112D01*
X44848D01*
X44962Y50962D01*
X45120Y50841D01*
X45303Y50765D01*
X45500Y50739D01*
X45697Y50765D01*
X45880Y50841D01*
X46038Y50962D01*
X46159Y51120D01*
X46235Y51303D01*
X46261Y51500D01*
X46235Y51697D01*
X46165Y51866D01*
X46207Y51978D01*
X46214Y51993D01*
X50381D01*
X50530Y52022D01*
X50656Y52106D01*
X51895Y53345D01*
X51979Y53471D01*
X52008Y53620D01*
Y53804D01*
X52068Y53828D01*
X52254Y53971D01*
X52397Y54157D01*
X52486Y54373D01*
X52517Y54605D01*
Y55875D01*
X52486Y56107D01*
X52397Y56323D01*
X52254Y56509D01*
X52068Y56652D01*
X51852Y56741D01*
X51620Y56772D01*
D02*
G37*
G36*
X61780D02*
X61548Y56741D01*
X61332Y56652D01*
X61146Y56509D01*
X61003Y56323D01*
X60914Y56107D01*
X60883Y55875D01*
Y54605D01*
X60914Y54373D01*
X61003Y54157D01*
X61146Y53971D01*
X61332Y53828D01*
X61388Y53805D01*
Y52604D01*
X61271Y52556D01*
X59873Y53954D01*
X59874Y53971D01*
X60017Y54157D01*
X60106Y54373D01*
X60137Y54605D01*
Y55875D01*
X60106Y56107D01*
X60017Y56323D01*
X59874Y56509D01*
X59688Y56652D01*
X59472Y56741D01*
X59240Y56772D01*
X59008Y56741D01*
X58792Y56652D01*
X58606Y56509D01*
X58463Y56323D01*
X58374Y56107D01*
X58343Y55875D01*
Y54605D01*
X58374Y54373D01*
X58463Y54157D01*
X58606Y53971D01*
X58792Y53828D01*
X58962Y53758D01*
X58963Y53756D01*
X62510Y50209D01*
X62510Y50209D01*
X62586Y50158D01*
X62637Y50124D01*
X62787Y50094D01*
X75906D01*
X82994Y43006D01*
X82946Y42888D01*
X54120D01*
X53971Y42859D01*
X53845Y42775D01*
X52334Y41264D01*
X52254Y41269D01*
X52068Y41412D01*
X51852Y41501D01*
X51620Y41532D01*
X51388Y41501D01*
X51172Y41412D01*
X50986Y41269D01*
X50843Y41083D01*
X50754Y40867D01*
X50723Y40635D01*
Y39365D01*
X50754Y39133D01*
X50843Y38917D01*
X50986Y38731D01*
X51172Y38588D01*
X51388Y38499D01*
X51620Y38468D01*
X51852Y38499D01*
X52068Y38588D01*
X52254Y38731D01*
X52397Y38917D01*
X52486Y39133D01*
X52517Y39365D01*
Y40347D01*
X53241Y41072D01*
X53349Y41000D01*
X53294Y40867D01*
X53263Y40635D01*
Y39365D01*
X53294Y39133D01*
X53383Y38917D01*
X53526Y38731D01*
X53712Y38588D01*
X53928Y38499D01*
X54160Y38468D01*
X54392Y38499D01*
X54608Y38588D01*
X54794Y38731D01*
X54937Y38917D01*
X55026Y39133D01*
X55057Y39365D01*
Y40635D01*
X55026Y40867D01*
X54937Y41083D01*
X54794Y41269D01*
X54608Y41412D01*
X54392Y41501D01*
X54160Y41532D01*
X53928Y41501D01*
X53795Y41446D01*
X53723Y41554D01*
X54281Y42112D01*
X93214D01*
X93276Y41985D01*
X93199Y41884D01*
X93123Y41699D01*
X93096Y41500D01*
X93123Y41301D01*
X93199Y41116D01*
X93322Y40957D01*
X93358Y40929D01*
Y40801D01*
X93322Y40773D01*
X93199Y40614D01*
X93123Y40429D01*
X93096Y40230D01*
X93123Y40031D01*
X93199Y39846D01*
X93322Y39687D01*
X93358Y39659D01*
Y39532D01*
X93322Y39503D01*
X93199Y39344D01*
X93123Y39159D01*
X93096Y38960D01*
X93123Y38761D01*
X93199Y38576D01*
X93322Y38417D01*
X93481Y38294D01*
X93666Y38218D01*
X93865Y38191D01*
X94064Y38218D01*
X94249Y38294D01*
X94408Y38417D01*
X94437Y38453D01*
X94563D01*
X94592Y38417D01*
X94751Y38294D01*
X94936Y38218D01*
X95135Y38191D01*
X95334Y38218D01*
X95519Y38294D01*
X95678Y38417D01*
X95801Y38576D01*
X95877Y38761D01*
X95904Y38960D01*
X95877Y39159D01*
X95801Y39344D01*
X95678Y39503D01*
X95642Y39532D01*
Y39659D01*
X95678Y39687D01*
X95801Y39846D01*
X95877Y40031D01*
X95904Y40230D01*
X95877Y40429D01*
X95801Y40614D01*
X95678Y40773D01*
X95642Y40801D01*
Y40929D01*
X95678Y40957D01*
X95801Y41116D01*
X95877Y41301D01*
X95904Y41500D01*
X95877Y41699D01*
X95801Y41884D01*
X95678Y42043D01*
X95642Y42071D01*
Y42199D01*
X95678Y42227D01*
X95801Y42386D01*
X95877Y42571D01*
X95904Y42770D01*
X95877Y42969D01*
X95801Y43154D01*
X95678Y43313D01*
X95642Y43341D01*
Y43468D01*
X95678Y43497D01*
X95801Y43656D01*
X95877Y43841D01*
X95904Y44040D01*
X95877Y44239D01*
X95801Y44424D01*
X95678Y44583D01*
X95519Y44706D01*
X95334Y44782D01*
X95135Y44809D01*
X94936Y44782D01*
X94751Y44706D01*
X94741Y44698D01*
X94627Y44754D01*
Y44802D01*
X93103D01*
Y43278D01*
X93151D01*
X93207Y43164D01*
X93199Y43154D01*
X93123Y42969D01*
X93112Y42888D01*
X87641D01*
X87579Y43015D01*
X87659Y43120D01*
X87735Y43303D01*
X87761Y43500D01*
X87735Y43697D01*
X87659Y43880D01*
X87538Y44038D01*
X87380Y44159D01*
X87197Y44235D01*
X87000Y44261D01*
X86803Y44235D01*
X86620Y44159D01*
X86462Y44038D01*
X86341Y43880D01*
X86265Y43697D01*
X86240Y43508D01*
X84714D01*
X84707Y43521D01*
X84665Y43635D01*
X84735Y43803D01*
X84761Y44000D01*
X84735Y44197D01*
X84659Y44380D01*
X84538Y44538D01*
X84380Y44659D01*
X84197Y44735D01*
X84000Y44761D01*
X83817Y44736D01*
X77277Y51277D01*
X77150Y51362D01*
X77000Y51392D01*
X77000Y51392D01*
X63162D01*
X62172Y52382D01*
Y53805D01*
X62228Y53828D01*
X62414Y53971D01*
X62557Y54157D01*
X62646Y54373D01*
X62677Y54605D01*
Y55875D01*
X62646Y56107D01*
X62557Y56323D01*
X62414Y56509D01*
X62228Y56652D01*
X62012Y56741D01*
X61780Y56772D01*
D02*
G37*
G36*
X16762Y48744D02*
Y48127D01*
X17379D01*
X17370Y48197D01*
X17294Y48380D01*
X17173Y48538D01*
X17015Y48659D01*
X16832Y48735D01*
X16762Y48744D01*
D02*
G37*
G36*
X44000Y56772D02*
X43768Y56741D01*
X43552Y56652D01*
X43366Y56509D01*
X43223Y56323D01*
X43134Y56107D01*
X43103Y55875D01*
Y54605D01*
X43134Y54373D01*
X43223Y54157D01*
X43366Y53971D01*
X43552Y53828D01*
X43768Y53739D01*
X44000Y53708D01*
X44232Y53739D01*
X44448Y53828D01*
X44634Y53971D01*
X44777Y54157D01*
X44866Y54373D01*
X44897Y54605D01*
Y55875D01*
X44866Y56107D01*
X44777Y56323D01*
X44634Y56509D01*
X44448Y56652D01*
X44232Y56741D01*
X44000Y56772D01*
D02*
G37*
G36*
X56700D02*
X56468Y56741D01*
X56252Y56652D01*
X56066Y56509D01*
X55923Y56323D01*
X55834Y56107D01*
X55803Y55875D01*
Y54605D01*
X55834Y54373D01*
X55923Y54157D01*
X56066Y53971D01*
X56252Y53828D01*
X56468Y53739D01*
X56700Y53708D01*
X56932Y53739D01*
X57148Y53828D01*
X57334Y53971D01*
X57477Y54157D01*
X57566Y54373D01*
X57597Y54605D01*
Y55875D01*
X57566Y56107D01*
X57477Y56323D01*
X57334Y56509D01*
X57148Y56652D01*
X56932Y56741D01*
X56700Y56772D01*
D02*
G37*
G36*
X54160D02*
X53928Y56741D01*
X53712Y56652D01*
X53526Y56509D01*
X53383Y56323D01*
X53294Y56107D01*
X53263Y55875D01*
Y54605D01*
X53294Y54373D01*
X53383Y54157D01*
X53526Y53971D01*
X53712Y53828D01*
X53928Y53739D01*
X54160Y53708D01*
X54392Y53739D01*
X54608Y53828D01*
X54794Y53971D01*
X54937Y54157D01*
X55026Y54373D01*
X55057Y54605D01*
Y55875D01*
X55026Y56107D01*
X54937Y56323D01*
X54794Y56509D01*
X54608Y56652D01*
X54392Y56741D01*
X54160Y56772D01*
D02*
G37*
G36*
X46540D02*
X46308Y56741D01*
X46092Y56652D01*
X45906Y56509D01*
X45763Y56323D01*
X45674Y56107D01*
X45643Y55875D01*
Y54605D01*
X45674Y54373D01*
X45763Y54157D01*
X45906Y53971D01*
X46092Y53828D01*
X46308Y53739D01*
X46540Y53708D01*
X46772Y53739D01*
X46988Y53828D01*
X47174Y53971D01*
X47317Y54157D01*
X47406Y54373D01*
X47437Y54605D01*
Y55875D01*
X47406Y56107D01*
X47317Y56323D01*
X47174Y56509D01*
X46988Y56652D01*
X46772Y56741D01*
X46540Y56772D01*
D02*
G37*
G36*
X16508Y48744D02*
X16438Y48735D01*
X16255Y48659D01*
X16097Y48538D01*
X15976Y48380D01*
X15900Y48197D01*
X15891Y48127D01*
X16508D01*
Y48744D01*
D02*
G37*
G36*
X34468Y47373D02*
X33587D01*
Y46492D01*
X33725Y46510D01*
X33972Y46613D01*
X34185Y46775D01*
X34347Y46988D01*
X34450Y47235D01*
X34468Y47373D01*
D02*
G37*
G36*
X33333D02*
X32452D01*
X32470Y47235D01*
X32573Y46988D01*
X32735Y46775D01*
X32948Y46613D01*
X33195Y46510D01*
X33333Y46492D01*
Y47373D01*
D02*
G37*
G36*
X38540Y48525D02*
X38275Y48490D01*
X38028Y48387D01*
X37815Y48225D01*
X37653Y48012D01*
X37550Y47765D01*
X37515Y47500D01*
X37550Y47235D01*
X37653Y46988D01*
X37815Y46775D01*
X38028Y46613D01*
X38275Y46510D01*
X38540Y46475D01*
X38805Y46510D01*
X39052Y46613D01*
X39265Y46775D01*
X39427Y46988D01*
X39530Y47235D01*
X39565Y47500D01*
X39530Y47765D01*
X39427Y48012D01*
X39265Y48225D01*
X39052Y48387D01*
X38805Y48490D01*
X38540Y48525D01*
D02*
G37*
G36*
X16508Y47873D02*
X15891D01*
X15900Y47803D01*
X15976Y47620D01*
X16097Y47462D01*
X16255Y47341D01*
X16438Y47265D01*
X16508Y47256D01*
Y47873D01*
D02*
G37*
G36*
X33587Y48508D02*
Y47627D01*
X34468D01*
X34450Y47765D01*
X34347Y48012D01*
X34185Y48225D01*
X33972Y48387D01*
X33725Y48490D01*
X33587Y48508D01*
D02*
G37*
G36*
X33333D02*
X33195Y48490D01*
X32948Y48387D01*
X32735Y48225D01*
X32573Y48012D01*
X32470Y47765D01*
X32452Y47627D01*
X33333D01*
Y48508D01*
D02*
G37*
G36*
X17379Y47873D02*
X16762D01*
Y47256D01*
X16832Y47265D01*
X17015Y47341D01*
X17173Y47462D01*
X17294Y47620D01*
X17370Y47803D01*
X17379Y47873D01*
D02*
G37*
G36*
X35587Y56008D02*
Y55127D01*
X36468D01*
X36450Y55265D01*
X36347Y55512D01*
X36185Y55725D01*
X35972Y55887D01*
X35725Y55990D01*
X35587Y56008D01*
D02*
G37*
G36*
X35333D02*
X35195Y55990D01*
X34948Y55887D01*
X34735Y55725D01*
X34573Y55512D01*
X34470Y55265D01*
X34452Y55127D01*
X35333D01*
Y56008D01*
D02*
G37*
G36*
X87008Y55913D02*
X86127D01*
Y55032D01*
X86265Y55050D01*
X86512Y55153D01*
X86725Y55315D01*
X86887Y55528D01*
X86990Y55775D01*
X87008Y55913D01*
D02*
G37*
G36*
X18453Y56873D02*
X17444D01*
X17466Y56702D01*
X17582Y56424D01*
X17765Y56185D01*
X18004Y56002D01*
X18282Y55886D01*
X18453Y55864D01*
Y56873D01*
D02*
G37*
G36*
X86127Y57048D02*
Y56167D01*
X87008D01*
X86990Y56305D01*
X86887Y56552D01*
X86725Y56765D01*
X86512Y56927D01*
X86265Y57030D01*
X86127Y57048D01*
D02*
G37*
G36*
X85873D02*
X85735Y57030D01*
X85488Y56927D01*
X85275Y56765D01*
X85113Y56552D01*
X85010Y56305D01*
X84992Y56167D01*
X85873D01*
Y57048D01*
D02*
G37*
G36*
X19716Y56873D02*
X18707D01*
Y55864D01*
X18878Y55886D01*
X19156Y56002D01*
X19395Y56185D01*
X19578Y56424D01*
X19694Y56702D01*
X19716Y56873D01*
D02*
G37*
G36*
X85873Y55913D02*
X84992D01*
X85010Y55775D01*
X85113Y55528D01*
X85275Y55315D01*
X85488Y55153D01*
X85735Y55050D01*
X85873Y55032D01*
Y55913D01*
D02*
G37*
G36*
X69400Y56772D02*
X69168Y56741D01*
X68952Y56652D01*
X68766Y56509D01*
X68623Y56323D01*
X68534Y56107D01*
X68503Y55875D01*
Y54605D01*
X68534Y54373D01*
X68623Y54157D01*
X68766Y53971D01*
X68952Y53828D01*
X69168Y53739D01*
X69400Y53708D01*
X69632Y53739D01*
X69848Y53828D01*
X70034Y53971D01*
X70177Y54157D01*
X70266Y54373D01*
X70297Y54605D01*
Y55875D01*
X70266Y56107D01*
X70177Y56323D01*
X70034Y56509D01*
X69848Y56652D01*
X69632Y56741D01*
X69400Y56772D01*
D02*
G37*
G36*
X66860D02*
X66628Y56741D01*
X66412Y56652D01*
X66226Y56509D01*
X66083Y56323D01*
X65994Y56107D01*
X65963Y55875D01*
Y54605D01*
X65994Y54373D01*
X66083Y54157D01*
X66226Y53971D01*
X66412Y53828D01*
X66628Y53739D01*
X66860Y53708D01*
X67092Y53739D01*
X67308Y53828D01*
X67494Y53971D01*
X67637Y54157D01*
X67726Y54373D01*
X67757Y54605D01*
Y55875D01*
X67726Y56107D01*
X67637Y56323D01*
X67494Y56509D01*
X67308Y56652D01*
X67092Y56741D01*
X66860Y56772D01*
D02*
G37*
G36*
X64320D02*
X64088Y56741D01*
X63872Y56652D01*
X63686Y56509D01*
X63543Y56323D01*
X63454Y56107D01*
X63423Y55875D01*
Y54605D01*
X63454Y54373D01*
X63543Y54157D01*
X63686Y53971D01*
X63872Y53828D01*
X64088Y53739D01*
X64320Y53708D01*
X64552Y53739D01*
X64768Y53828D01*
X64954Y53971D01*
X65097Y54157D01*
X65186Y54373D01*
X65217Y54605D01*
Y55875D01*
X65186Y56107D01*
X65097Y56323D01*
X64954Y56509D01*
X64768Y56652D01*
X64552Y56741D01*
X64320Y56772D01*
D02*
G37*
G36*
X71940D02*
X71708Y56741D01*
X71492Y56652D01*
X71306Y56509D01*
X71163Y56323D01*
X71074Y56107D01*
X71043Y55875D01*
Y54605D01*
X71074Y54373D01*
X71163Y54157D01*
X71306Y53971D01*
X71492Y53828D01*
X71708Y53739D01*
X71940Y53708D01*
X72172Y53739D01*
X72388Y53828D01*
X72574Y53971D01*
X72717Y54157D01*
X72806Y54373D01*
X72837Y54605D01*
Y55875D01*
X72806Y56107D01*
X72717Y56323D01*
X72574Y56509D01*
X72388Y56652D01*
X72172Y56741D01*
X71940Y56772D01*
D02*
G37*
G36*
X36468Y54873D02*
X35587D01*
Y53992D01*
X35725Y54010D01*
X35972Y54113D01*
X36185Y54275D01*
X36347Y54488D01*
X36450Y54735D01*
X36468Y54873D01*
D02*
G37*
G36*
X35333D02*
X34452D01*
X34470Y54735D01*
X34573Y54488D01*
X34735Y54275D01*
X34948Y54113D01*
X35195Y54010D01*
X35333Y53992D01*
Y54873D01*
D02*
G37*
G36*
X40540Y56025D02*
X40275Y55990D01*
X40028Y55887D01*
X39815Y55725D01*
X39653Y55512D01*
X39550Y55265D01*
X39515Y55000D01*
X39550Y54735D01*
X39653Y54488D01*
X39815Y54275D01*
X40028Y54113D01*
X40275Y54010D01*
X40540Y53975D01*
X40805Y54010D01*
X41052Y54113D01*
X41265Y54275D01*
X41427Y54488D01*
X41530Y54735D01*
X41565Y55000D01*
X41530Y55265D01*
X41427Y55512D01*
X41265Y55725D01*
X41052Y55887D01*
X40805Y55990D01*
X40540Y56025D01*
D02*
G37*
G36*
X37120Y37353D02*
X36822Y37314D01*
X36544Y37198D01*
X36305Y37015D01*
X36122Y36776D01*
X36006Y36498D01*
X35967Y36200D01*
X36006Y35902D01*
X36122Y35624D01*
X36305Y35385D01*
X36544Y35202D01*
X36822Y35086D01*
X37120Y35047D01*
X37418Y35086D01*
X37696Y35202D01*
X37935Y35385D01*
X38118Y35624D01*
X38234Y35902D01*
X38273Y36200D01*
X38234Y36498D01*
X38118Y36776D01*
X37935Y37015D01*
X37696Y37198D01*
X37418Y37314D01*
X37120Y37353D01*
D02*
G37*
G36*
X21880D02*
X21582Y37314D01*
X21304Y37198D01*
X21065Y37015D01*
X20882Y36776D01*
X20766Y36498D01*
X20727Y36200D01*
X20766Y35902D01*
X20882Y35624D01*
X21065Y35385D01*
X21304Y35202D01*
X21582Y35086D01*
X21880Y35047D01*
X22178Y35086D01*
X22456Y35202D01*
X22695Y35385D01*
X22878Y35624D01*
X22994Y35902D01*
X23033Y36200D01*
X22994Y36498D01*
X22878Y36776D01*
X22695Y37015D01*
X22456Y37198D01*
X22178Y37314D01*
X21880Y37353D01*
D02*
G37*
G36*
X22007Y34796D02*
Y33787D01*
X23016D01*
X22994Y33958D01*
X22878Y34236D01*
X22695Y34475D01*
X22456Y34658D01*
X22178Y34774D01*
X22007Y34796D01*
D02*
G37*
G36*
X21880Y39893D02*
X21582Y39854D01*
X21304Y39738D01*
X21065Y39555D01*
X20882Y39316D01*
X20766Y39038D01*
X20727Y38740D01*
X20766Y38442D01*
X20882Y38164D01*
X21065Y37925D01*
X21304Y37742D01*
X21582Y37626D01*
X21880Y37587D01*
X22178Y37626D01*
X22456Y37742D01*
X22695Y37925D01*
X22878Y38164D01*
X22994Y38442D01*
X23033Y38740D01*
X22994Y39038D01*
X22878Y39316D01*
X22695Y39555D01*
X22456Y39738D01*
X22178Y39854D01*
X21880Y39893D01*
D02*
G37*
G36*
X46540Y41532D02*
X46308Y41501D01*
X46092Y41412D01*
X45906Y41269D01*
X45763Y41083D01*
X45674Y40867D01*
X45643Y40635D01*
Y39365D01*
X45674Y39133D01*
X45763Y38917D01*
X45906Y38731D01*
X46092Y38588D01*
X46308Y38499D01*
X46540Y38468D01*
X46772Y38499D01*
X46988Y38588D01*
X47174Y38731D01*
X47317Y38917D01*
X47406Y39133D01*
X47437Y39365D01*
Y40635D01*
X47406Y40867D01*
X47317Y41083D01*
X47174Y41269D01*
X46988Y41412D01*
X46772Y41501D01*
X46540Y41532D01*
D02*
G37*
G36*
X38256Y38613D02*
X37247D01*
Y37604D01*
X37418Y37626D01*
X37696Y37742D01*
X37935Y37925D01*
X38118Y38164D01*
X38234Y38442D01*
X38256Y38613D01*
D02*
G37*
G36*
X36993D02*
X35984D01*
X36006Y38442D01*
X36122Y38164D01*
X36305Y37925D01*
X36544Y37742D01*
X36822Y37626D01*
X36993Y37604D01*
Y38613D01*
D02*
G37*
G36*
X21753Y34796D02*
X21582Y34774D01*
X21304Y34658D01*
X21065Y34475D01*
X20882Y34236D01*
X20766Y33958D01*
X20744Y33787D01*
X21753D01*
Y34796D01*
D02*
G37*
G36*
X46564Y33604D02*
X44356D01*
Y31396D01*
X46564D01*
Y33604D01*
D02*
G37*
G36*
X63540Y33614D02*
X63252Y33576D01*
X62983Y33464D01*
X62753Y33287D01*
X62576Y33057D01*
X62464Y32788D01*
X62426Y32500D01*
X62464Y32212D01*
X62576Y31943D01*
X62753Y31713D01*
X62983Y31536D01*
X63252Y31424D01*
X63540Y31386D01*
X63828Y31424D01*
X64097Y31536D01*
X64327Y31713D01*
X64504Y31943D01*
X64616Y32212D01*
X64654Y32500D01*
X64616Y32788D01*
X64504Y33057D01*
X64327Y33287D01*
X64097Y33464D01*
X63828Y33576D01*
X63540Y33614D01*
D02*
G37*
G36*
X50540D02*
X50252Y33576D01*
X49983Y33464D01*
X49753Y33287D01*
X49576Y33057D01*
X49464Y32788D01*
X49426Y32500D01*
X49464Y32212D01*
X49576Y31943D01*
X49753Y31713D01*
X49983Y31536D01*
X50252Y31424D01*
X50540Y31386D01*
X50828Y31424D01*
X51097Y31536D01*
X51327Y31713D01*
X51504Y31943D01*
X51616Y32212D01*
X51654Y32500D01*
X51616Y32788D01*
X51504Y33057D01*
X51327Y33287D01*
X51097Y33464D01*
X50828Y33576D01*
X50540Y33614D01*
D02*
G37*
G36*
X61000D02*
X60712Y33576D01*
X60443Y33464D01*
X60213Y33287D01*
X60036Y33057D01*
X59924Y32788D01*
X59886Y32500D01*
X59924Y32212D01*
X59995Y32041D01*
X59681Y31728D01*
X59564Y31776D01*
Y33604D01*
X57356D01*
Y31396D01*
X58182D01*
X58222Y31287D01*
X58223Y31269D01*
X53891Y26938D01*
X53765Y26990D01*
X53500Y27025D01*
X53235Y26990D01*
X52988Y26887D01*
X52775Y26725D01*
X52613Y26512D01*
X52510Y26265D01*
X52475Y26000D01*
X52510Y25735D01*
X52613Y25488D01*
X52775Y25275D01*
X52988Y25113D01*
X53235Y25010D01*
X53500Y24975D01*
X53765Y25010D01*
X54012Y25113D01*
X54225Y25275D01*
X54387Y25488D01*
X54490Y25735D01*
X54525Y26000D01*
X54490Y26265D01*
X54438Y26391D01*
X58660Y30614D01*
X59500D01*
X59648Y30643D01*
X59773Y30727D01*
X60541Y31495D01*
X60712Y31424D01*
X61000Y31386D01*
X61288Y31424D01*
X61557Y31536D01*
X61787Y31713D01*
X61964Y31943D01*
X62076Y32212D01*
X62114Y32500D01*
X62076Y32788D01*
X61964Y33057D01*
X61787Y33287D01*
X61557Y33464D01*
X61288Y33576D01*
X61000Y33614D01*
D02*
G37*
G36*
X23016Y33533D02*
X22007D01*
Y32524D01*
X22178Y32546D01*
X22456Y32662D01*
X22695Y32845D01*
X22878Y33084D01*
X22994Y33362D01*
X23016Y33533D01*
D02*
G37*
G36*
X21753D02*
X20744D01*
X20766Y33362D01*
X20882Y33084D01*
X21065Y32845D01*
X21304Y32662D01*
X21582Y32546D01*
X21753Y32524D01*
Y33533D01*
D02*
G37*
G36*
X37120Y34813D02*
X36822Y34774D01*
X36544Y34658D01*
X36305Y34475D01*
X36122Y34236D01*
X36006Y33958D01*
X35967Y33660D01*
X36006Y33362D01*
X36122Y33084D01*
X36305Y32845D01*
X36544Y32662D01*
X36822Y32546D01*
X37120Y32507D01*
X37418Y32546D01*
X37696Y32662D01*
X37935Y32845D01*
X38118Y33084D01*
X38234Y33362D01*
X38273Y33660D01*
X38234Y33958D01*
X38118Y34236D01*
X37935Y34475D01*
X37696Y34658D01*
X37418Y34774D01*
X37120Y34813D01*
D02*
G37*
G36*
X37247Y39876D02*
Y38867D01*
X38256D01*
X38234Y39038D01*
X38118Y39316D01*
X37935Y39555D01*
X37696Y39738D01*
X37418Y39854D01*
X37247Y39876D01*
D02*
G37*
G36*
X36993D02*
X36822Y39854D01*
X36544Y39738D01*
X36305Y39555D01*
X36122Y39316D01*
X36006Y39038D01*
X35984Y38867D01*
X36993D01*
Y39876D01*
D02*
G37*
G36*
X72837Y39873D02*
X72067D01*
Y38485D01*
X72172Y38499D01*
X72388Y38588D01*
X72574Y38731D01*
X72717Y38917D01*
X72806Y39133D01*
X72837Y39365D01*
Y39873D01*
D02*
G37*
G36*
X71813Y41515D02*
X71708Y41501D01*
X71492Y41412D01*
X71306Y41269D01*
X71163Y41083D01*
X71074Y40867D01*
X71043Y40635D01*
Y40127D01*
X71813D01*
Y41515D01*
D02*
G37*
G36*
X23023Y42423D02*
X20737D01*
Y40137D01*
X23023D01*
Y42423D01*
D02*
G37*
G36*
X37120Y42433D02*
X36822Y42394D01*
X36544Y42278D01*
X36305Y42095D01*
X36122Y41856D01*
X36006Y41578D01*
X35967Y41280D01*
X36006Y40982D01*
X36122Y40704D01*
X36305Y40465D01*
X36544Y40282D01*
X36822Y40166D01*
X37120Y40127D01*
X37418Y40166D01*
X37696Y40282D01*
X37935Y40465D01*
X38118Y40704D01*
X38234Y40982D01*
X38273Y41280D01*
X38234Y41578D01*
X38118Y41856D01*
X37935Y42095D01*
X37696Y42278D01*
X37418Y42394D01*
X37120Y42433D01*
D02*
G37*
G36*
X72067Y41515D02*
Y40127D01*
X72837D01*
Y40635D01*
X72806Y40867D01*
X72717Y41083D01*
X72574Y41269D01*
X72388Y41412D01*
X72172Y41501D01*
X72067Y41515D01*
D02*
G37*
G36*
X71813Y39873D02*
X71043D01*
Y39365D01*
X71074Y39133D01*
X71163Y38917D01*
X71306Y38731D01*
X71492Y38588D01*
X71708Y38499D01*
X71813Y38485D01*
Y39873D01*
D02*
G37*
G36*
X59240Y41532D02*
X59008Y41501D01*
X58792Y41412D01*
X58606Y41269D01*
X58463Y41083D01*
X58374Y40867D01*
X58343Y40635D01*
Y39365D01*
X58374Y39133D01*
X58463Y38917D01*
X58606Y38731D01*
X58792Y38588D01*
X59008Y38499D01*
X59240Y38468D01*
X59472Y38499D01*
X59688Y38588D01*
X59874Y38731D01*
X60017Y38917D01*
X60106Y39133D01*
X60137Y39365D01*
Y40635D01*
X60106Y40867D01*
X60017Y41083D01*
X59874Y41269D01*
X59688Y41412D01*
X59472Y41501D01*
X59240Y41532D01*
D02*
G37*
G36*
X56700D02*
X56468Y41501D01*
X56252Y41412D01*
X56066Y41269D01*
X55923Y41083D01*
X55834Y40867D01*
X55803Y40635D01*
Y39365D01*
X55834Y39133D01*
X55923Y38917D01*
X56066Y38731D01*
X56252Y38588D01*
X56468Y38499D01*
X56700Y38468D01*
X56932Y38499D01*
X57148Y38588D01*
X57334Y38731D01*
X57477Y38917D01*
X57566Y39133D01*
X57597Y39365D01*
Y40635D01*
X57566Y40867D01*
X57477Y41083D01*
X57334Y41269D01*
X57148Y41412D01*
X56932Y41501D01*
X56700Y41532D01*
D02*
G37*
G36*
X49080D02*
X48848Y41501D01*
X48632Y41412D01*
X48446Y41269D01*
X48303Y41083D01*
X48214Y40867D01*
X48183Y40635D01*
Y39365D01*
X48214Y39133D01*
X48303Y38917D01*
X48446Y38731D01*
X48632Y38588D01*
X48848Y38499D01*
X49080Y38468D01*
X49312Y38499D01*
X49528Y38588D01*
X49714Y38731D01*
X49857Y38917D01*
X49946Y39133D01*
X49977Y39365D01*
Y40635D01*
X49946Y40867D01*
X49857Y41083D01*
X49714Y41269D01*
X49528Y41412D01*
X49312Y41501D01*
X49080Y41532D01*
D02*
G37*
G36*
X61780D02*
X61548Y41501D01*
X61332Y41412D01*
X61146Y41269D01*
X61003Y41083D01*
X60914Y40867D01*
X60883Y40635D01*
Y39365D01*
X60914Y39133D01*
X61003Y38917D01*
X61146Y38731D01*
X61332Y38588D01*
X61548Y38499D01*
X61780Y38468D01*
X62012Y38499D01*
X62228Y38588D01*
X62414Y38731D01*
X62557Y38917D01*
X62646Y39133D01*
X62677Y39365D01*
Y40635D01*
X62646Y40867D01*
X62557Y41083D01*
X62414Y41269D01*
X62228Y41412D01*
X62012Y41501D01*
X61780Y41532D01*
D02*
G37*
G36*
X44889Y41524D02*
X43111D01*
Y38476D01*
X44889D01*
Y41524D01*
D02*
G37*
G36*
X66860Y41532D02*
X66628Y41501D01*
X66412Y41412D01*
X66226Y41269D01*
X66083Y41083D01*
X65994Y40867D01*
X65963Y40635D01*
Y39365D01*
X65994Y39133D01*
X66083Y38917D01*
X66226Y38731D01*
X66412Y38588D01*
X66628Y38499D01*
X66860Y38468D01*
X67092Y38499D01*
X67308Y38588D01*
X67494Y38731D01*
X67637Y38917D01*
X67726Y39133D01*
X67757Y39365D01*
Y40635D01*
X67726Y40867D01*
X67637Y41083D01*
X67494Y41269D01*
X67308Y41412D01*
X67092Y41501D01*
X66860Y41532D01*
D02*
G37*
G36*
X64320D02*
X64088Y41501D01*
X63872Y41412D01*
X63686Y41269D01*
X63543Y41083D01*
X63454Y40867D01*
X63423Y40635D01*
Y39365D01*
X63454Y39133D01*
X63543Y38917D01*
X63686Y38731D01*
X63872Y38588D01*
X64088Y38499D01*
X64320Y38468D01*
X64552Y38499D01*
X64768Y38588D01*
X64954Y38731D01*
X65097Y38917D01*
X65186Y39133D01*
X65217Y39365D01*
Y40635D01*
X65186Y40867D01*
X65097Y41083D01*
X64954Y41269D01*
X64768Y41412D01*
X64552Y41501D01*
X64320Y41532D01*
D02*
G37*
%LPD*%
D11*
X30500Y16000D02*
Y27500D01*
X38390Y15890D02*
X40237Y17737D01*
X36376Y13340D02*
X38390Y15354D01*
X36376Y13340D02*
X37120D01*
X38390Y15354D02*
Y15890D01*
X39483Y18420D02*
X39816Y18753D01*
X37120Y18420D02*
X39483D01*
X37662Y15880D02*
X40027Y18245D01*
X37120Y15880D02*
X37662D01*
X38390Y22328D02*
Y24026D01*
Y22328D02*
X40218Y20500D01*
X36376Y26040D02*
X38390Y24026D01*
X36376Y26040D02*
X37120D01*
Y22880D02*
X40231Y19769D01*
X37120Y22880D02*
Y23500D01*
Y20960D02*
X38819Y19261D01*
X29500Y13500D02*
Y29500D01*
X57500Y4000D02*
X65000D01*
X73750Y4500D02*
X86250D01*
X95135Y21540D02*
Y21865D01*
X94008Y22992D02*
X95135Y21865D01*
X94432Y23500D02*
X96024Y21908D01*
X96532Y20397D02*
Y22119D01*
X95135Y20270D02*
X96024Y21159D01*
Y21908D01*
X95135Y19000D02*
X96532Y20397D01*
X94643Y24008D02*
X96532Y22119D01*
X93540Y21540D02*
X93865D01*
X90500Y19500D02*
Y20500D01*
X89000Y19000D02*
Y19500D01*
X87500D02*
Y20000D01*
X89737Y17737D02*
X93540Y21540D01*
X89245Y18245D02*
X90500Y19500D01*
X88753Y18753D02*
X89000Y19000D01*
X87261Y19261D02*
X87500Y19500D01*
X40237Y17737D02*
X89737D01*
X40027Y18245D02*
X89245D01*
X39816Y18753D02*
X88753D01*
X38819Y19261D02*
X87261D01*
X40231Y19769D02*
X85269D01*
X86000Y20500D01*
X40218D02*
X84500D01*
X86992Y22992D01*
X94008D01*
X40500Y22500D02*
X85500D01*
X86500Y23500D01*
X94432D01*
X41500Y21500D02*
X84000D01*
Y24000D02*
X84008Y24008D01*
X94643D01*
X51620Y40000D02*
X54120Y42500D01*
X93595D02*
X93865Y42770D01*
X54120Y42500D02*
X93595D01*
X66143Y2857D02*
X72107D01*
X65000Y4000D02*
X66143Y2857D01*
X72107D02*
X73750Y4500D01*
X86000Y50960D02*
X90960D01*
X51620Y53620D02*
Y55240D01*
X20610Y26566D02*
X21354Y27310D01*
X24310D01*
X28500Y31500D01*
X23758Y26040D02*
X29008Y31290D01*
X21880Y26040D02*
X23758D01*
X20610Y25514D02*
X21880Y24244D01*
X20610Y25514D02*
Y26566D01*
X21880Y23500D02*
Y24244D01*
X31492Y36192D02*
X31500Y36200D01*
X32780Y5720D02*
X37120D01*
X31492Y5008D02*
Y36192D01*
X32500Y4000D02*
X57500D01*
X31492Y5008D02*
X32500Y4000D01*
X32780Y5720D02*
Y41220D01*
X29008Y31290D02*
Y44274D01*
X28992Y44290D02*
X29008Y44274D01*
X28500Y31500D02*
Y44063D01*
X28484Y44079D02*
X28500Y44063D01*
X28484Y44079D02*
Y50984D01*
X28992Y44290D02*
Y50774D01*
X29500Y44500D02*
X32780Y41220D01*
X29500Y44500D02*
Y50500D01*
X30500Y51500D01*
X30599Y52381D02*
X50381D01*
X28992Y50774D02*
X30599Y52381D01*
X28484Y50984D02*
X30389Y52889D01*
X30500Y51500D02*
X45500D01*
X50381Y52381D02*
X51620Y53620D01*
X30389Y52889D02*
X48389D01*
X49080Y53580D01*
Y55240D01*
D12*
X48000Y9000D02*
X49500Y10500D01*
X59500Y31000D02*
X61000Y32500D01*
X58500Y31000D02*
X59500D01*
X53500Y26000D02*
X58500Y31000D01*
X48000Y27500D02*
Y32500D01*
X46500Y26000D02*
X48000Y27500D01*
X69400Y30600D02*
Y40000D01*
Y30600D02*
X72040Y27960D01*
X93865D01*
X60500Y9000D02*
Y9000D01*
X67500Y16000D01*
X49500Y10500D02*
X56400D01*
X60500Y14600D01*
Y16000D01*
D13*
X13500Y56500D02*
Y57000D01*
X67660Y4000D02*
Y12340D01*
X40500Y27500D02*
Y38000D01*
D14*
X61780Y52220D02*
Y55240D01*
Y52220D02*
X63000Y51000D01*
X77000D01*
X84000Y44000D01*
X59240Y54033D02*
Y55240D01*
Y54033D02*
X62787Y50486D01*
X86616Y43116D02*
X87000Y43500D01*
X62787Y50486D02*
X76068D01*
X83438Y43116D01*
X86616D01*
D15*
X67660Y4000D02*
D03*
X57500D02*
D03*
X46500Y26000D02*
D03*
Y15840D02*
D03*
X53500Y26000D02*
D03*
Y15840D02*
D03*
X60500Y16000D02*
D03*
Y26160D02*
D03*
X67500Y16000D02*
D03*
Y26160D02*
D03*
X12500Y28160D02*
D03*
Y18000D02*
D03*
X4500Y21481D02*
D03*
Y23487D02*
D03*
Y25494D02*
D03*
X40540Y55000D02*
D03*
X35460D02*
D03*
X38540Y47500D02*
D03*
X33460D02*
D03*
X86000Y50960D02*
D03*
Y56040D02*
D03*
D16*
X50540Y32500D02*
D03*
X48000D02*
D03*
X63540D02*
D03*
X61000D02*
D03*
X50540Y9000D02*
D03*
X48000D02*
D03*
X63040D02*
D03*
X60500D02*
D03*
D17*
X45460Y32500D02*
D03*
X58460D02*
D03*
X45460Y9000D02*
D03*
X57960D02*
D03*
D18*
X4500Y19398D02*
D03*
Y27602D02*
D03*
X73750Y9500D02*
D03*
X86250D02*
D03*
X73750Y4500D02*
D03*
X86250D02*
D03*
D19*
X93865Y44040D02*
D03*
Y21540D02*
D03*
Y33040D02*
D03*
D20*
X95135Y44040D02*
D03*
X93865Y42770D02*
D03*
X95135D02*
D03*
X93865Y41500D02*
D03*
X95135D02*
D03*
X93865Y40230D02*
D03*
X95135D02*
D03*
X93865Y38960D02*
D03*
X95135D02*
D03*
Y21540D02*
D03*
X93865Y20270D02*
D03*
X95135D02*
D03*
X93865Y19000D02*
D03*
X95135D02*
D03*
X93865Y17730D02*
D03*
X95135D02*
D03*
X93865Y16460D02*
D03*
X95135D02*
D03*
Y33040D02*
D03*
X93865Y31770D02*
D03*
X95135D02*
D03*
X93865Y30500D02*
D03*
X95135D02*
D03*
X93865Y29230D02*
D03*
X95135D02*
D03*
X93865Y27960D02*
D03*
X95135D02*
D03*
D21*
X44000Y40000D02*
D03*
D03*
D22*
X46540D02*
D03*
X49080D02*
D03*
X51620D02*
D03*
X54160D02*
D03*
X56700D02*
D03*
X59240D02*
D03*
X61780D02*
D03*
X64320D02*
D03*
X66860D02*
D03*
X69400D02*
D03*
X71940D02*
D03*
X44000Y55240D02*
D03*
X46540D02*
D03*
X49080D02*
D03*
X51620D02*
D03*
X54160D02*
D03*
X56700D02*
D03*
X59240D02*
D03*
X61780D02*
D03*
X64320D02*
D03*
X66860D02*
D03*
X69400D02*
D03*
X71940D02*
D03*
X46540Y40000D02*
D03*
X49080D02*
D03*
X51620D02*
D03*
X54160D02*
D03*
X56700D02*
D03*
X59240D02*
D03*
X61780D02*
D03*
X64320D02*
D03*
X66860D02*
D03*
X69400D02*
D03*
X71940D02*
D03*
X44000Y55240D02*
D03*
X46540D02*
D03*
X49080D02*
D03*
X51620D02*
D03*
X54160D02*
D03*
X56700D02*
D03*
X59240D02*
D03*
X61780D02*
D03*
X64320D02*
D03*
X66860D02*
D03*
X69400D02*
D03*
X71940D02*
D03*
D23*
X37120Y38740D02*
D03*
Y36200D02*
D03*
Y33660D02*
D03*
Y31120D02*
D03*
Y28580D02*
D03*
Y26040D02*
D03*
Y23500D02*
D03*
Y20960D02*
D03*
Y18420D02*
D03*
Y15880D02*
D03*
Y13340D02*
D03*
Y10800D02*
D03*
Y8260D02*
D03*
Y5720D02*
D03*
X21880D02*
D03*
Y8260D02*
D03*
Y10800D02*
D03*
Y13340D02*
D03*
Y15880D02*
D03*
Y18420D02*
D03*
Y20960D02*
D03*
Y23500D02*
D03*
Y26040D02*
D03*
Y28580D02*
D03*
Y31120D02*
D03*
Y33660D02*
D03*
X37120Y41280D02*
D03*
X21880Y36200D02*
D03*
Y38740D02*
D03*
X18580Y57000D02*
D03*
X16040D02*
D03*
X13500D02*
D03*
X2000Y46580D02*
D03*
Y44040D02*
D03*
Y41500D02*
D03*
D24*
X21880Y41280D02*
D03*
D25*
X93500Y53500D02*
D03*
Y6500D02*
D03*
X6500Y53500D02*
D03*
Y6500D02*
D03*
D26*
X4500Y15603D02*
D03*
Y13063D02*
D03*
D27*
X31500Y36200D02*
D03*
X30500Y27500D02*
D03*
X16635Y48000D02*
D03*
X40500Y22500D02*
D03*
X41500Y21500D02*
D03*
X53500Y26000D02*
D03*
X46500Y26000D02*
D03*
X30500Y16000D02*
D03*
X29500Y13500D02*
D03*
Y29500D02*
D03*
X90500Y20500D02*
D03*
X89000Y19500D02*
D03*
X87500Y20000D02*
D03*
X86000Y20500D02*
D03*
X84000Y21500D02*
D03*
Y24000D02*
D03*
Y44000D02*
D03*
X87000Y43500D02*
D03*
X67660Y12340D02*
D03*
X40500Y27500D02*
D03*
Y38000D02*
D03*
X45500Y51500D02*
D03*
M02*
