G04 Layer_Physical_Order=1*
G04 Layer_Color=25308*
%FSLAX43Y43*%
%MOMM*%
G71*
G01*
G75*
%ADD10O,0.600X1.900*%
%ADD11C,0.254*%
%ADD12C,0.250*%
%ADD13C,0.500*%
%ADD14C,0.260*%
%ADD15C,1.524*%
%ADD16C,1.700*%
%ADD17R,1.700X1.700*%
%ADD18C,1.800*%
%ADD19R,1.016X1.016*%
%ADD20C,1.016*%
%ADD21R,1.270X2.540*%
%ADD22O,1.270X2.540*%
%ADD23C,1.778*%
%ADD24R,1.778X1.778*%
%ADD25C,9.000*%
%ADD26C,1.600*%
%ADD27C,1.000*%
G36*
X68362Y57884D02*
X68360Y57873D01*
X68237Y57791D01*
X67159Y56713D01*
X67092Y56741D01*
X66860Y56772D01*
X66628Y56741D01*
X66412Y56652D01*
X66226Y56509D01*
X66083Y56323D01*
X65994Y56107D01*
X65963Y55875D01*
Y54605D01*
X65994Y54373D01*
X66083Y54157D01*
X66226Y53971D01*
X66412Y53828D01*
X66628Y53739D01*
X66860Y53708D01*
X66992Y53726D01*
X67052Y53605D01*
X66838Y53392D01*
X65162D01*
X64830Y53724D01*
X64846Y53888D01*
X64954Y53971D01*
X65097Y54157D01*
X65186Y54373D01*
X65217Y54605D01*
Y55875D01*
X65186Y56107D01*
X65097Y56323D01*
X64954Y56509D01*
X64768Y56652D01*
X64552Y56741D01*
X64320Y56772D01*
X64088Y56741D01*
X63872Y56652D01*
X63686Y56509D01*
X63543Y56323D01*
X63454Y56107D01*
X63423Y55875D01*
Y54605D01*
X63454Y54373D01*
X63543Y54157D01*
X63686Y53971D01*
X63872Y53828D01*
X63928Y53805D01*
Y53680D01*
X63928Y53680D01*
X63958Y53530D01*
X64043Y53403D01*
X64723Y52723D01*
X64723Y52723D01*
X64850Y52638D01*
X65000Y52608D01*
X65000Y52608D01*
X67000D01*
X67000Y52608D01*
X67150Y52638D01*
X67277Y52723D01*
X68277Y53723D01*
X68277Y53723D01*
X68362Y53850D01*
X68392Y54000D01*
Y54481D01*
X68519Y54490D01*
X68534Y54373D01*
X68623Y54157D01*
X68766Y53971D01*
X68952Y53828D01*
X69008Y53805D01*
Y49600D01*
X69008Y49600D01*
X69038Y49450D01*
X69123Y49323D01*
X72416Y46030D01*
X72368Y45913D01*
X64641D01*
X57092Y53462D01*
Y53805D01*
X57148Y53828D01*
X57334Y53971D01*
X57477Y54157D01*
X57566Y54373D01*
X57597Y54605D01*
Y55875D01*
X57566Y56107D01*
X57477Y56323D01*
X57334Y56509D01*
X57148Y56652D01*
X56932Y56741D01*
X56700Y56772D01*
X56468Y56741D01*
X56252Y56652D01*
X56066Y56509D01*
X55923Y56323D01*
X55834Y56107D01*
X55803Y55875D01*
Y54605D01*
X55834Y54373D01*
X55923Y54157D01*
X56066Y53971D01*
X56252Y53828D01*
X56308Y53805D01*
Y53300D01*
X56308Y53300D01*
X56338Y53150D01*
X56423Y53023D01*
X63931Y45516D01*
X63882Y45398D01*
X58012D01*
X57864Y45369D01*
X57739Y45285D01*
X53959Y41505D01*
X53928Y41501D01*
X53712Y41412D01*
X53526Y41269D01*
X53383Y41083D01*
X53294Y40867D01*
X53263Y40635D01*
Y39365D01*
X53294Y39133D01*
X53383Y38917D01*
X53526Y38731D01*
X53712Y38588D01*
X53928Y38499D01*
X54160Y38468D01*
X54392Y38499D01*
X54608Y38588D01*
X54794Y38731D01*
X54937Y38917D01*
X54987Y39037D01*
X55114Y39012D01*
Y38663D01*
X54339Y37888D01*
X51661D01*
X50954Y38595D01*
X51038Y38691D01*
X51172Y38588D01*
X51388Y38499D01*
X51620Y38468D01*
X51852Y38499D01*
X52068Y38588D01*
X52254Y38731D01*
X52397Y38917D01*
X52486Y39133D01*
X52517Y39365D01*
Y40635D01*
X52486Y40867D01*
X52397Y41083D01*
X52254Y41269D01*
X52068Y41412D01*
X51852Y41501D01*
X51620Y41532D01*
X51388Y41501D01*
X51172Y41412D01*
X51015Y41292D01*
X50888Y41335D01*
Y41905D01*
X52275Y43292D01*
X52359Y43418D01*
X52388Y43566D01*
Y52919D01*
X53446Y53976D01*
X53526Y53971D01*
X53712Y53828D01*
X53928Y53739D01*
X54160Y53708D01*
X54392Y53739D01*
X54608Y53828D01*
X54794Y53971D01*
X54937Y54157D01*
X55026Y54373D01*
X55057Y54605D01*
Y55875D01*
X55026Y56107D01*
X54937Y56323D01*
X54794Y56509D01*
X54608Y56652D01*
X54392Y56741D01*
X54160Y56772D01*
X53928Y56741D01*
X53712Y56652D01*
X53526Y56509D01*
X53383Y56323D01*
X53294Y56107D01*
X53263Y55875D01*
Y54893D01*
X52539Y54168D01*
X52431Y54240D01*
X52486Y54373D01*
X52517Y54605D01*
Y55875D01*
X52486Y56107D01*
X52397Y56323D01*
X52254Y56509D01*
X52068Y56652D01*
X51852Y56741D01*
X51620Y56772D01*
X51388Y56741D01*
X51172Y56652D01*
X50986Y56509D01*
X50843Y56323D01*
X50754Y56107D01*
X50723Y55875D01*
Y54605D01*
X50754Y54373D01*
X50843Y54157D01*
X50986Y53971D01*
X51172Y53828D01*
X51388Y53739D01*
X51620Y53708D01*
X51852Y53739D01*
X51985Y53794D01*
X52057Y53686D01*
X51725Y53355D01*
X51641Y53229D01*
X51612Y53080D01*
Y43727D01*
X50225Y42341D01*
X50141Y42215D01*
X50112Y42066D01*
Y38500D01*
X50141Y38351D01*
X50225Y38225D01*
X51225Y37225D01*
X51351Y37141D01*
X51500Y37112D01*
X54500D01*
X54649Y37141D01*
X54775Y37225D01*
X55775Y38225D01*
X55859Y38351D01*
X55888Y38500D01*
X55886Y38510D01*
Y38756D01*
X56013Y38799D01*
X56066Y38731D01*
X56252Y38588D01*
X56468Y38499D01*
X56700Y38468D01*
X56932Y38499D01*
X57148Y38588D01*
X57334Y38731D01*
X57477Y38917D01*
X57566Y39133D01*
X57597Y39365D01*
Y40350D01*
X58323Y41077D01*
X58431Y41005D01*
X58374Y40867D01*
X58343Y40635D01*
Y39365D01*
X58374Y39133D01*
X58463Y38917D01*
X58606Y38731D01*
X58792Y38588D01*
X59008Y38499D01*
X59240Y38468D01*
X59472Y38499D01*
X59688Y38588D01*
X59874Y38731D01*
X60017Y38917D01*
X60106Y39133D01*
X60137Y39365D01*
Y40090D01*
X60766Y40720D01*
X60887Y40661D01*
X60883Y40635D01*
Y39365D01*
X60914Y39133D01*
X61003Y38917D01*
X61146Y38731D01*
X61332Y38588D01*
X61548Y38499D01*
X61780Y38468D01*
X62012Y38499D01*
X62228Y38588D01*
X62414Y38731D01*
X62557Y38917D01*
X62646Y39133D01*
X62677Y39365D01*
Y40347D01*
X63401Y41072D01*
X63509Y41000D01*
X63454Y40867D01*
X63423Y40635D01*
Y39365D01*
X63454Y39133D01*
X63543Y38917D01*
X63686Y38731D01*
X63872Y38588D01*
X64088Y38499D01*
X64320Y38468D01*
X64552Y38499D01*
X64768Y38588D01*
X64954Y38731D01*
X65097Y38917D01*
X65186Y39133D01*
X65217Y39365D01*
Y40347D01*
X65941Y41072D01*
X66049Y41000D01*
X65994Y40867D01*
X65963Y40635D01*
Y39365D01*
X65994Y39133D01*
X66083Y38917D01*
X66226Y38731D01*
X66412Y38588D01*
X66628Y38499D01*
X66860Y38468D01*
X67092Y38499D01*
X67308Y38588D01*
X67494Y38731D01*
X67637Y38917D01*
X67726Y39133D01*
X67757Y39365D01*
Y40186D01*
X68401Y40830D01*
X68521Y40771D01*
X68503Y40635D01*
Y39365D01*
X68534Y39133D01*
X68623Y38917D01*
X68766Y38731D01*
X68952Y38588D01*
X69168Y38499D01*
X69400Y38468D01*
X69632Y38499D01*
X69848Y38588D01*
X70034Y38731D01*
X70177Y38917D01*
X70266Y39133D01*
X70297Y39365D01*
Y40635D01*
X70266Y40867D01*
X70177Y41083D01*
X70034Y41269D01*
X69848Y41412D01*
X69715Y41467D01*
X69741Y41594D01*
X71599D01*
X71625Y41467D01*
X71492Y41412D01*
X71306Y41269D01*
X71163Y41083D01*
X71074Y40867D01*
X71043Y40635D01*
Y39365D01*
X71074Y39133D01*
X71163Y38917D01*
X71306Y38731D01*
X71492Y38588D01*
X71708Y38499D01*
X71940Y38468D01*
X72172Y38499D01*
X72388Y38588D01*
X72574Y38731D01*
X72717Y38917D01*
X72806Y39133D01*
X72837Y39365D01*
Y40635D01*
X72806Y40867D01*
X72717Y41083D01*
X72574Y41269D01*
X72388Y41412D01*
X72255Y41467D01*
X72281Y41594D01*
X72998D01*
X79888Y34703D01*
X79888Y34703D01*
X79972Y34647D01*
X80014Y34619D01*
X80162Y34590D01*
X80162Y34590D01*
X94214D01*
X94749Y34055D01*
Y33815D01*
X94627Y33802D01*
X94627Y33802D01*
X94627Y33802D01*
X93103D01*
Y33386D01*
X67000D01*
X66852Y33357D01*
X66727Y33273D01*
X66340Y32886D01*
X64575D01*
X64504Y33057D01*
X64327Y33287D01*
X64097Y33464D01*
X63828Y33576D01*
X63540Y33614D01*
X63252Y33576D01*
X62983Y33464D01*
X62753Y33287D01*
X62695Y33212D01*
X62542Y33222D01*
X62502Y33282D01*
X61511Y34273D01*
X61386Y34357D01*
X61238Y34386D01*
X52040D01*
X51892Y34357D01*
X51767Y34273D01*
X50999Y33505D01*
X50828Y33576D01*
X50540Y33614D01*
X50252Y33576D01*
X49983Y33464D01*
X49753Y33287D01*
X49576Y33057D01*
X49464Y32788D01*
X49426Y32500D01*
X49464Y32212D01*
X49576Y31943D01*
X49753Y31713D01*
X49983Y31536D01*
X50037Y31513D01*
X50012Y31386D01*
X48528D01*
X48503Y31513D01*
X48557Y31536D01*
X48787Y31713D01*
X48964Y31943D01*
X49076Y32212D01*
X49114Y32500D01*
X49076Y32788D01*
X48964Y33057D01*
X48787Y33287D01*
X48557Y33464D01*
X48288Y33576D01*
X48000Y33614D01*
X47712Y33576D01*
X47443Y33464D01*
X47213Y33287D01*
X47036Y33057D01*
X46924Y32788D01*
X46886Y32500D01*
X46924Y32212D01*
X47036Y31943D01*
X47213Y31713D01*
X47443Y31536D01*
X47497Y31513D01*
X47472Y31386D01*
X46687D01*
X46564Y31396D01*
Y33604D01*
X44356D01*
Y32886D01*
X43010D01*
X43000Y32888D01*
X42851Y32859D01*
X42725Y32775D01*
X40189Y30238D01*
X38044D01*
X37982Y30365D01*
X38118Y30544D01*
X38234Y30822D01*
X38273Y31120D01*
X38234Y31418D01*
X38118Y31696D01*
X37935Y31935D01*
X37889Y31970D01*
X37894Y32097D01*
X37921Y32115D01*
X41417Y35612D01*
X45080D01*
X45229Y35641D01*
X45355Y35725D01*
X45361Y35734D01*
X48363Y38736D01*
X48446Y38731D01*
X48632Y38588D01*
X48848Y38499D01*
X49080Y38468D01*
X49312Y38499D01*
X49528Y38588D01*
X49714Y38731D01*
X49857Y38917D01*
X49946Y39133D01*
X49977Y39365D01*
Y40635D01*
X49946Y40867D01*
X49857Y41083D01*
X49714Y41269D01*
X49528Y41412D01*
X49312Y41501D01*
X49080Y41532D01*
X48848Y41501D01*
X48632Y41412D01*
X48446Y41269D01*
X48303Y41083D01*
X48214Y40867D01*
X48183Y40635D01*
Y39650D01*
X47457Y38923D01*
X47349Y38995D01*
X47406Y39133D01*
X47437Y39365D01*
Y40635D01*
X47406Y40867D01*
X47317Y41083D01*
X47174Y41269D01*
X46988Y41412D01*
X46772Y41501D01*
X46540Y41532D01*
X46308Y41501D01*
X46092Y41412D01*
X45906Y41269D01*
X45763Y41083D01*
X45674Y40867D01*
X45643Y40635D01*
Y39365D01*
X45674Y39133D01*
X45763Y38917D01*
X45906Y38731D01*
X45987Y38669D01*
X45995Y38542D01*
X44626Y37172D01*
X41284D01*
X41135Y37143D01*
X41009Y37059D01*
X39269Y35318D01*
X38044D01*
X37982Y35445D01*
X38118Y35624D01*
X38234Y35902D01*
X38273Y36200D01*
X38234Y36498D01*
X38118Y36776D01*
X37935Y37015D01*
X37889Y37050D01*
X37894Y37177D01*
X37921Y37195D01*
X40337Y39612D01*
X43111D01*
Y38476D01*
X44889D01*
Y41524D01*
X43111D01*
Y40388D01*
X40176D01*
X40052Y40364D01*
X40027Y40359D01*
X39901Y40275D01*
X38397Y38770D01*
X38263Y38816D01*
X38234Y39038D01*
X38118Y39316D01*
X37935Y39555D01*
X37696Y39738D01*
X37418Y39854D01*
X37120Y39893D01*
X36822Y39854D01*
X36544Y39738D01*
X36305Y39555D01*
X36122Y39316D01*
X36006Y39038D01*
X35967Y38740D01*
X36006Y38442D01*
X36122Y38164D01*
X36258Y37985D01*
X36196Y37858D01*
X22804D01*
X22742Y37985D01*
X22878Y38164D01*
X22994Y38442D01*
X23033Y38740D01*
X22994Y39038D01*
X22878Y39316D01*
X22695Y39555D01*
X22456Y39738D01*
X22178Y39854D01*
X21880Y39893D01*
X21582Y39854D01*
X21304Y39738D01*
X21065Y39555D01*
X20882Y39316D01*
X20766Y39038D01*
X20727Y38740D01*
X20766Y38442D01*
X20882Y38164D01*
X21018Y37985D01*
X20956Y37858D01*
X20921D01*
X20772Y37829D01*
X20646Y37745D01*
X19725Y36824D01*
X19641Y36698D01*
X19612Y36549D01*
Y6000D01*
X19641Y5851D01*
X19725Y5725D01*
X20005Y5445D01*
X20131Y5361D01*
X20280Y5332D01*
X20804D01*
X20882Y5144D01*
X21065Y4905D01*
X21304Y4722D01*
X21582Y4606D01*
X21880Y4567D01*
X22178Y4606D01*
X22456Y4722D01*
X22695Y4905D01*
X22878Y5144D01*
X22994Y5422D01*
X23033Y5720D01*
X22994Y6018D01*
X22878Y6296D01*
X22695Y6535D01*
X22456Y6718D01*
X22178Y6834D01*
X21880Y6873D01*
X21582Y6834D01*
X21304Y6718D01*
X21065Y6535D01*
X20882Y6296D01*
X20804Y6108D01*
X20441D01*
X20388Y6161D01*
Y36388D01*
X20721Y36721D01*
X20829Y36649D01*
X20766Y36498D01*
X20727Y36200D01*
X20766Y35902D01*
X20882Y35624D01*
X21065Y35385D01*
X21304Y35202D01*
X21582Y35086D01*
X21880Y35047D01*
X22178Y35086D01*
X22456Y35202D01*
X22695Y35385D01*
X22878Y35624D01*
X22956Y35812D01*
X30848D01*
X30962Y35662D01*
X31120Y35541D01*
X31303Y35465D01*
X31455Y35445D01*
X31446Y35318D01*
X28430D01*
X28281Y35289D01*
X28155Y35205D01*
X24459Y31508D01*
X22956D01*
X22878Y31696D01*
X22695Y31935D01*
X22456Y32118D01*
X22178Y32234D01*
X21880Y32273D01*
X21582Y32234D01*
X21304Y32118D01*
X21065Y31935D01*
X20882Y31696D01*
X20766Y31418D01*
X20727Y31120D01*
X20766Y30822D01*
X20882Y30544D01*
X21065Y30305D01*
X21304Y30122D01*
X21582Y30006D01*
X21880Y29967D01*
X22178Y30006D01*
X22456Y30122D01*
X22695Y30305D01*
X22878Y30544D01*
X22956Y30732D01*
X24620D01*
X24769Y30761D01*
X24895Y30845D01*
X28591Y34542D01*
X36196D01*
X36258Y34415D01*
X36122Y34236D01*
X36006Y33958D01*
X35967Y33660D01*
X36006Y33362D01*
X36122Y33084D01*
X36258Y32905D01*
X36196Y32778D01*
X27890D01*
X27741Y32749D01*
X27615Y32665D01*
X23919Y28968D01*
X22956D01*
X22878Y29156D01*
X22695Y29395D01*
X22456Y29578D01*
X22178Y29694D01*
X21880Y29733D01*
X21582Y29694D01*
X21304Y29578D01*
X21065Y29395D01*
X20882Y29156D01*
X20766Y28878D01*
X20727Y28580D01*
X20766Y28282D01*
X20882Y28004D01*
X21065Y27765D01*
X21304Y27582D01*
X21582Y27466D01*
X21880Y27427D01*
X22178Y27466D01*
X22456Y27582D01*
X22695Y27765D01*
X22878Y28004D01*
X22956Y28192D01*
X24080D01*
X24229Y28221D01*
X24355Y28305D01*
X28051Y32002D01*
X36196D01*
X36258Y31875D01*
X36122Y31696D01*
X36006Y31418D01*
X35967Y31120D01*
X36006Y30822D01*
X36122Y30544D01*
X36305Y30305D01*
X36351Y30270D01*
X36346Y30143D01*
X36319Y30125D01*
X36083Y29888D01*
X30152D01*
X30038Y30038D01*
X29880Y30159D01*
X29697Y30235D01*
X29500Y30261D01*
X29303Y30235D01*
X29120Y30159D01*
X28962Y30038D01*
X28841Y29880D01*
X28765Y29697D01*
X28739Y29500D01*
X28765Y29303D01*
X28841Y29120D01*
X28962Y28962D01*
X29120Y28841D01*
X29303Y28765D01*
X29500Y28739D01*
X29697Y28765D01*
X29880Y28841D01*
X30038Y28962D01*
X30152Y29112D01*
X35989D01*
X36059Y29006D01*
X36006Y28878D01*
X35967Y28580D01*
X36006Y28282D01*
X36122Y28004D01*
X36258Y27825D01*
X36196Y27698D01*
X31234D01*
X31159Y27880D01*
X31038Y28038D01*
X30880Y28159D01*
X30697Y28235D01*
X30500Y28261D01*
X30303Y28235D01*
X30120Y28159D01*
X29962Y28038D01*
X29841Y27880D01*
X29765Y27697D01*
X29740Y27500D01*
X29765Y27303D01*
X29841Y27120D01*
X29962Y26962D01*
X30120Y26841D01*
X30303Y26765D01*
X30500Y26739D01*
X30697Y26765D01*
X30880Y26841D01*
X30985Y26922D01*
X36196D01*
X36258Y26795D01*
X36122Y26616D01*
X36006Y26338D01*
X35967Y26040D01*
X36006Y25742D01*
X36122Y25464D01*
X36305Y25225D01*
X36544Y25042D01*
X36822Y24926D01*
X37120Y24887D01*
X37418Y24926D01*
X37696Y25042D01*
X37935Y25225D01*
X38118Y25464D01*
X38234Y25742D01*
X38273Y26040D01*
X38234Y26338D01*
X38118Y26616D01*
X37982Y26795D01*
X38044Y26922D01*
X38810D01*
X38959Y26951D01*
X39085Y27035D01*
X39621Y27571D01*
X39741Y27512D01*
X39739Y27500D01*
X39765Y27303D01*
X39841Y27120D01*
X39962Y26962D01*
X40120Y26841D01*
X40303Y26765D01*
X40373Y26756D01*
Y27500D01*
X40500D01*
Y27627D01*
X41244D01*
X41235Y27697D01*
X41159Y27880D01*
X41038Y28038D01*
X40880Y28159D01*
X40697Y28235D01*
X40500Y28261D01*
X40488Y28259D01*
X40429Y28379D01*
X42663Y30614D01*
X56500D01*
X56648Y30643D01*
X56773Y30727D01*
X57442Y31396D01*
X59564D01*
Y33487D01*
X59564Y33604D01*
X59687Y33614D01*
X60472D01*
X60497Y33487D01*
X60443Y33464D01*
X60213Y33287D01*
X60036Y33057D01*
X59924Y32788D01*
X59886Y32500D01*
X59924Y32212D01*
X60036Y31943D01*
X60213Y31713D01*
X60443Y31536D01*
X60712Y31424D01*
X61000Y31386D01*
X61288Y31424D01*
X61557Y31536D01*
X61733Y31671D01*
X61872Y31624D01*
X61872Y31623D01*
X61956Y31498D01*
X62456Y30998D01*
X62456Y30998D01*
X62540Y30942D01*
X62581Y30914D01*
X62729Y30885D01*
X62729Y30885D01*
X64049D01*
X64197Y30914D01*
X64322Y30998D01*
X64709Y31385D01*
X93200D01*
X93322Y31227D01*
X93358Y31198D01*
Y31072D01*
X93322Y31043D01*
X93199Y30884D01*
X93123Y30699D01*
X93096Y30500D01*
X93122Y30304D01*
X92705Y29886D01*
X87000D01*
X86852Y29857D01*
X86727Y29773D01*
X67840Y10886D01*
X55000D01*
X54852Y10857D01*
X54727Y10773D01*
X53340Y9386D01*
X51575D01*
X51504Y9557D01*
X51327Y9787D01*
X51097Y9964D01*
X50828Y10076D01*
X50540Y10114D01*
X50252Y10076D01*
X49983Y9964D01*
X49753Y9787D01*
X49576Y9557D01*
X49464Y9288D01*
X49426Y9000D01*
X49464Y8712D01*
X49576Y8443D01*
X49753Y8213D01*
X49983Y8036D01*
X50252Y7924D01*
X50540Y7886D01*
X50828Y7924D01*
X51097Y8036D01*
X51327Y8213D01*
X51504Y8443D01*
X51575Y8614D01*
X53500D01*
X53648Y8643D01*
X53773Y8727D01*
X55160Y10114D01*
X56733D01*
X56856Y10104D01*
X56856Y9987D01*
Y8442D01*
X55792Y7378D01*
X38044D01*
X37982Y7505D01*
X38118Y7684D01*
X38234Y7962D01*
X38273Y8260D01*
X38243Y8485D01*
X38338Y8612D01*
X44356D01*
Y7896D01*
X46564D01*
Y10104D01*
X44356D01*
Y9388D01*
X38337D01*
X37921Y9805D01*
X37894Y9823D01*
X37889Y9950D01*
X37935Y9985D01*
X38118Y10224D01*
X38234Y10502D01*
X38256Y10673D01*
X35984D01*
X36006Y10502D01*
X36122Y10224D01*
X36258Y10045D01*
X36196Y9918D01*
X31631D01*
X30475Y11075D01*
X30349Y11159D01*
X30200Y11188D01*
X22956D01*
X22878Y11376D01*
X22695Y11615D01*
X22456Y11798D01*
X22178Y11914D01*
X21880Y11953D01*
X21582Y11914D01*
X21304Y11798D01*
X21065Y11615D01*
X20882Y11376D01*
X20766Y11098D01*
X20727Y10800D01*
X20766Y10502D01*
X20882Y10224D01*
X21065Y9985D01*
X21304Y9802D01*
X21582Y9686D01*
X21880Y9647D01*
X22178Y9686D01*
X22456Y9802D01*
X22695Y9985D01*
X22878Y10224D01*
X22956Y10412D01*
X30039D01*
X31195Y9255D01*
X31321Y9171D01*
X31470Y9142D01*
X36196D01*
X36258Y9015D01*
X36122Y8836D01*
X36006Y8558D01*
X35977Y8336D01*
X35843Y8290D01*
X35599Y8535D01*
X35473Y8619D01*
X35324Y8648D01*
X22956D01*
X22878Y8836D01*
X22695Y9075D01*
X22456Y9258D01*
X22178Y9374D01*
X21880Y9413D01*
X21582Y9374D01*
X21304Y9258D01*
X21065Y9075D01*
X20882Y8836D01*
X20766Y8558D01*
X20727Y8260D01*
X20766Y7962D01*
X20882Y7684D01*
X21065Y7445D01*
X21304Y7262D01*
X21582Y7146D01*
X21880Y7107D01*
X22178Y7146D01*
X22456Y7262D01*
X22695Y7445D01*
X22878Y7684D01*
X22956Y7872D01*
X35163D01*
X36319Y6715D01*
X36346Y6697D01*
X36351Y6570D01*
X36305Y6535D01*
X36122Y6296D01*
X36006Y6018D01*
X35967Y5720D01*
X36006Y5422D01*
X36122Y5144D01*
X36305Y4905D01*
X36544Y4722D01*
X36822Y4606D01*
X37120Y4567D01*
X37418Y4606D01*
X37696Y4722D01*
X37935Y4905D01*
X38118Y5144D01*
X38234Y5422D01*
X38273Y5720D01*
X38234Y6018D01*
X38118Y6296D01*
X37982Y6475D01*
X38044Y6602D01*
X55950D01*
X56099Y6631D01*
X56225Y6715D01*
X56230Y6724D01*
X57402Y7896D01*
X59064D01*
Y9987D01*
X59064Y10104D01*
X59187Y10114D01*
X59972D01*
X59997Y9987D01*
X59943Y9964D01*
X59713Y9787D01*
X59536Y9557D01*
X59424Y9288D01*
X59386Y9000D01*
X59424Y8712D01*
X59536Y8443D01*
X59713Y8213D01*
X59943Y8036D01*
X60212Y7924D01*
X60500Y7886D01*
X60788Y7924D01*
X61057Y8036D01*
X61287Y8213D01*
X61464Y8443D01*
X61576Y8712D01*
X61614Y9000D01*
X61576Y9288D01*
X61464Y9557D01*
X61287Y9787D01*
X61057Y9964D01*
X61003Y9987D01*
X61028Y10114D01*
X62512D01*
X62537Y9987D01*
X62483Y9964D01*
X62253Y9787D01*
X62076Y9557D01*
X61964Y9288D01*
X61926Y9000D01*
X61964Y8712D01*
X62076Y8443D01*
X62253Y8213D01*
X62483Y8036D01*
X62752Y7924D01*
X63040Y7886D01*
X63328Y7924D01*
X63597Y8036D01*
X63827Y8213D01*
X64004Y8443D01*
X64074Y8612D01*
X67216D01*
X67364Y8641D01*
X67490Y8725D01*
X83300Y24535D01*
X83396Y24451D01*
X83341Y24380D01*
X83265Y24197D01*
X83239Y24000D01*
X83265Y23803D01*
X83341Y23620D01*
X83462Y23462D01*
X83612Y23348D01*
Y22152D01*
X83462Y22038D01*
X83341Y21880D01*
X83265Y21697D01*
X83239Y21500D01*
X83265Y21303D01*
X83341Y21120D01*
X83462Y20962D01*
X83620Y20841D01*
X83803Y20765D01*
X84000Y20739D01*
X84197Y20765D01*
X84380Y20841D01*
X84538Y20962D01*
X84659Y21120D01*
X84735Y21303D01*
X84761Y21500D01*
X84735Y21697D01*
X84659Y21880D01*
X84538Y22038D01*
X84388Y22152D01*
Y23348D01*
X84538Y23462D01*
X84659Y23620D01*
X84735Y23803D01*
X84761Y24000D01*
X84735Y24197D01*
X84659Y24380D01*
X84538Y24538D01*
X84380Y24659D01*
X84197Y24735D01*
X84000Y24761D01*
X83803Y24735D01*
X83620Y24659D01*
X83549Y24604D01*
X83465Y24700D01*
X87370Y28606D01*
X93075D01*
X93223Y28635D01*
X93231Y28640D01*
X93267Y28621D01*
X93281Y28590D01*
X93291Y28464D01*
X93199Y28344D01*
X93123Y28159D01*
X93096Y27960D01*
X93123Y27761D01*
X93199Y27576D01*
X93322Y27417D01*
X93481Y27294D01*
X93666Y27218D01*
X93865Y27191D01*
X94064Y27218D01*
X94249Y27294D01*
X94408Y27417D01*
X94437Y27453D01*
X94563D01*
X94592Y27417D01*
X94751Y27294D01*
X94936Y27218D01*
X95135Y27191D01*
X95334Y27218D01*
X95519Y27294D01*
X95678Y27417D01*
X95801Y27576D01*
X95877Y27761D01*
X95904Y27960D01*
X95877Y28159D01*
X95874Y28168D01*
X97815Y30109D01*
X97815Y30109D01*
X97873Y30196D01*
X98000Y30157D01*
Y8411D01*
X97873Y8381D01*
X97626Y8882D01*
X97280Y9400D01*
X96869Y9869D01*
X96400Y10280D01*
X95882Y10626D01*
X95323Y10902D01*
X94733Y11102D01*
X94122Y11223D01*
X93500Y11264D01*
X92878Y11223D01*
X92267Y11102D01*
X91677Y10902D01*
X91118Y10626D01*
X90600Y10280D01*
X90131Y9869D01*
X89720Y9400D01*
X89374Y8882D01*
X89098Y8323D01*
X88898Y7733D01*
X88777Y7122D01*
X88736Y6500D01*
X88777Y5878D01*
X88898Y5267D01*
X89098Y4677D01*
X89374Y4118D01*
X89720Y3600D01*
X90131Y3131D01*
X90600Y2720D01*
X91118Y2374D01*
X91619Y2127D01*
X91589Y2000D01*
X8411D01*
X8381Y2127D01*
X8882Y2374D01*
X9400Y2720D01*
X9869Y3131D01*
X10280Y3600D01*
X10626Y4118D01*
X10902Y4677D01*
X11102Y5267D01*
X11223Y5878D01*
X11264Y6500D01*
X11223Y7122D01*
X11102Y7733D01*
X10902Y8323D01*
X10626Y8882D01*
X10280Y9400D01*
X9869Y9869D01*
X9400Y10280D01*
X8882Y10626D01*
X8323Y10902D01*
X7733Y11102D01*
X7122Y11223D01*
X6500Y11264D01*
X5878Y11223D01*
X5267Y11102D01*
X4677Y10902D01*
X4118Y10626D01*
X3600Y10280D01*
X3131Y9869D01*
X2720Y9400D01*
X2374Y8882D01*
X2127Y8381D01*
X2000Y8411D01*
Y40347D01*
X2298Y40386D01*
X2576Y40502D01*
X2815Y40685D01*
X2998Y40924D01*
X3114Y41202D01*
X3136Y41373D01*
X2000D01*
Y41627D01*
X3136D01*
X3114Y41798D01*
X2998Y42076D01*
X2815Y42315D01*
X2576Y42498D01*
X2298Y42614D01*
X2000Y42653D01*
Y42887D01*
X2298Y42926D01*
X2576Y43042D01*
X2815Y43225D01*
X2998Y43464D01*
X3114Y43742D01*
X3153Y44040D01*
X3114Y44338D01*
X2998Y44616D01*
X2815Y44855D01*
X2576Y45038D01*
X2298Y45154D01*
X2000Y45193D01*
Y45427D01*
X2298Y45466D01*
X2576Y45582D01*
X2815Y45765D01*
X2998Y46004D01*
X3114Y46282D01*
X3153Y46580D01*
X3114Y46878D01*
X2998Y47156D01*
X2815Y47395D01*
X2576Y47578D01*
X2298Y47694D01*
X2000Y47733D01*
Y51589D01*
X2127Y51619D01*
X2374Y51118D01*
X2720Y50600D01*
X3131Y50131D01*
X3600Y49720D01*
X4118Y49374D01*
X4677Y49098D01*
X5267Y48898D01*
X5878Y48777D01*
X6500Y48736D01*
X7122Y48777D01*
X7733Y48898D01*
X8323Y49098D01*
X8882Y49374D01*
X9400Y49720D01*
X9869Y50131D01*
X10280Y50600D01*
X10626Y51118D01*
X10902Y51677D01*
X11102Y52267D01*
X11223Y52878D01*
X11264Y53500D01*
X11223Y54122D01*
X11102Y54733D01*
X10902Y55323D01*
X10626Y55882D01*
X10280Y56400D01*
X9869Y56869D01*
X9400Y57280D01*
X8882Y57626D01*
X8381Y57873D01*
X8411Y58000D01*
X12717D01*
X12760Y57873D01*
X12685Y57815D01*
X12502Y57576D01*
X12386Y57298D01*
X12347Y57000D01*
X12386Y56702D01*
X12486Y56461D01*
Y41213D01*
X8637Y37363D01*
X8525Y37197D01*
X8486Y37000D01*
Y29213D01*
X5409Y26135D01*
X5282Y26144D01*
X5225Y26219D01*
X5012Y26381D01*
X4956Y26405D01*
Y26542D01*
X5082Y26594D01*
X5323Y26779D01*
X5508Y27020D01*
X5624Y27301D01*
X5664Y27602D01*
X5624Y27903D01*
X5508Y28184D01*
X5323Y28425D01*
X5082Y28610D01*
X4801Y28726D01*
X4500Y28766D01*
X4199Y28726D01*
X3918Y28610D01*
X3677Y28425D01*
X3492Y28184D01*
X3376Y27903D01*
X3336Y27602D01*
X3376Y27301D01*
X3492Y27020D01*
X3677Y26779D01*
X3918Y26594D01*
X4044Y26542D01*
Y26405D01*
X3988Y26381D01*
X3775Y26219D01*
X3613Y26006D01*
X3510Y25759D01*
X3475Y25494D01*
X3510Y25229D01*
X3613Y24982D01*
X3775Y24769D01*
X3988Y24606D01*
X4101Y24559D01*
Y24422D01*
X3988Y24375D01*
X3775Y24212D01*
X3613Y24000D01*
X3510Y23753D01*
X3475Y23487D01*
X3510Y23222D01*
X3613Y22975D01*
X3775Y22763D01*
X3988Y22600D01*
X4101Y22553D01*
Y22415D01*
X3988Y22368D01*
X3775Y22205D01*
X3613Y21993D01*
X3510Y21746D01*
X3475Y21481D01*
X3510Y21215D01*
X3613Y20968D01*
X3775Y20756D01*
X3988Y20593D01*
X4026Y20577D01*
Y20450D01*
X3918Y20406D01*
X3677Y20221D01*
X3492Y19980D01*
X3376Y19699D01*
X3336Y19398D01*
X3376Y19097D01*
X3492Y18816D01*
X3677Y18575D01*
X3918Y18390D01*
X4199Y18274D01*
X4500Y18234D01*
X4801Y18274D01*
X5082Y18390D01*
X5323Y18575D01*
X5508Y18816D01*
X5624Y19097D01*
X5664Y19398D01*
X5624Y19699D01*
X5508Y19980D01*
X5323Y20221D01*
X5082Y20406D01*
X4974Y20450D01*
Y20577D01*
X5012Y20593D01*
X5225Y20756D01*
X5387Y20968D01*
X5490Y21215D01*
X5525Y21481D01*
X5490Y21746D01*
X5387Y21993D01*
X5225Y22205D01*
X5012Y22368D01*
X4899Y22415D01*
Y22553D01*
X5012Y22600D01*
X5225Y22763D01*
X5387Y22975D01*
X5490Y23222D01*
X5496Y23269D01*
X10363Y28137D01*
X10475Y28303D01*
X10514Y28500D01*
Y36287D01*
X18268Y44042D01*
X18380Y44208D01*
X18419Y44405D01*
Y44772D01*
X18427Y44784D01*
X18470Y45000D01*
Y46300D01*
X18427Y46516D01*
X18304Y46699D01*
X18121Y46822D01*
X17905Y46865D01*
X17689Y46822D01*
X17506Y46699D01*
X17383Y46516D01*
X17340Y46300D01*
Y45000D01*
X17383Y44784D01*
X17391Y44772D01*
Y44618D01*
X13611Y40838D01*
X13494Y40900D01*
X13514Y41000D01*
Y44644D01*
X13641Y44682D01*
X13696Y44601D01*
X13879Y44478D01*
X14095Y44435D01*
X14311Y44478D01*
X14494Y44601D01*
X14617Y44784D01*
X14660Y45000D01*
Y46300D01*
X14617Y46516D01*
X14494Y46699D01*
X14311Y46822D01*
X14095Y46865D01*
X13879Y46822D01*
X13696Y46699D01*
X13641Y46618D01*
X13514Y46656D01*
Y49344D01*
X13641Y49382D01*
X13696Y49301D01*
X13879Y49178D01*
X13968Y49160D01*
Y50350D01*
Y51540D01*
X13879Y51522D01*
X13696Y51399D01*
X13641Y51318D01*
X13514Y51356D01*
Y55849D01*
X13798Y55886D01*
X14076Y56002D01*
X14315Y56185D01*
X14498Y56424D01*
X14614Y56702D01*
X14653Y57000D01*
X14614Y57298D01*
X14498Y57576D01*
X14315Y57815D01*
X14240Y57873D01*
X14283Y58000D01*
X15257D01*
X15300Y57873D01*
X15225Y57815D01*
X15042Y57576D01*
X14926Y57298D01*
X14887Y57000D01*
X14926Y56702D01*
X15042Y56424D01*
X15225Y56185D01*
X15464Y56002D01*
X15742Y55886D01*
X16040Y55847D01*
X16338Y55886D01*
X16616Y56002D01*
X16855Y56185D01*
X17038Y56424D01*
X17154Y56702D01*
X17193Y57000D01*
X17154Y57298D01*
X17038Y57576D01*
X16855Y57815D01*
X16780Y57873D01*
X16823Y58000D01*
X17797D01*
X17840Y57873D01*
X17765Y57815D01*
X17582Y57576D01*
X17466Y57298D01*
X17427Y57000D01*
X17466Y56702D01*
X17582Y56424D01*
X17765Y56185D01*
X18004Y56002D01*
X18282Y55886D01*
X18580Y55847D01*
X18878Y55886D01*
X19156Y56002D01*
X19395Y56185D01*
X19578Y56424D01*
X19694Y56702D01*
X19733Y57000D01*
X19694Y57298D01*
X19578Y57576D01*
X19395Y57815D01*
X19320Y57873D01*
X19363Y58000D01*
X68339D01*
X68362Y57884D01*
D02*
G37*
%LPC*%
G36*
X21880Y17033D02*
X21582Y16994D01*
X21304Y16878D01*
X21065Y16695D01*
X20882Y16456D01*
X20766Y16178D01*
X20727Y15880D01*
X20766Y15582D01*
X20882Y15304D01*
X21065Y15065D01*
X21304Y14882D01*
X21582Y14766D01*
X21880Y14727D01*
X22178Y14766D01*
X22456Y14882D01*
X22695Y15065D01*
X22878Y15304D01*
X22956Y15492D01*
X29940D01*
X29962Y15462D01*
X30120Y15341D01*
X30303Y15265D01*
X30500Y15240D01*
X30697Y15265D01*
X30880Y15341D01*
X31038Y15462D01*
X31159Y15620D01*
X31235Y15803D01*
X31261Y16000D01*
X31235Y16197D01*
X31159Y16380D01*
X31038Y16538D01*
X30880Y16659D01*
X30697Y16735D01*
X30500Y16761D01*
X30303Y16735D01*
X30120Y16659D01*
X29962Y16538D01*
X29841Y16380D01*
X29795Y16268D01*
X22956D01*
X22878Y16456D01*
X22695Y16695D01*
X22456Y16878D01*
X22178Y16994D01*
X21880Y17033D01*
D02*
G37*
G36*
X67500Y17025D02*
X67235Y16990D01*
X66988Y16887D01*
X66775Y16725D01*
X66613Y16512D01*
X66510Y16265D01*
X66475Y16000D01*
X66510Y15735D01*
X66613Y15488D01*
X66775Y15275D01*
X66988Y15113D01*
X67235Y15010D01*
X67500Y14975D01*
X67765Y15010D01*
X68012Y15113D01*
X68225Y15275D01*
X68387Y15488D01*
X68490Y15735D01*
X68525Y16000D01*
X68490Y16265D01*
X68387Y16512D01*
X68225Y16725D01*
X68012Y16887D01*
X67765Y16990D01*
X67500Y17025D01*
D02*
G37*
G36*
X95135Y22309D02*
X94936Y22282D01*
X94751Y22206D01*
X94741Y22198D01*
X94627Y22254D01*
Y22302D01*
X93103D01*
Y20888D01*
X91152D01*
X91038Y21038D01*
X90880Y21159D01*
X90697Y21235D01*
X90500Y21261D01*
X90303Y21235D01*
X90120Y21159D01*
X89962Y21038D01*
X89841Y20880D01*
X89765Y20697D01*
X89739Y20500D01*
X89765Y20303D01*
X89841Y20120D01*
X89962Y19962D01*
X90120Y19841D01*
X90303Y19765D01*
X90500Y19739D01*
X90697Y19765D01*
X90880Y19841D01*
X91038Y19962D01*
X91152Y20112D01*
X93117D01*
X93123Y20071D01*
X93199Y19886D01*
X93322Y19727D01*
X93358Y19698D01*
Y19572D01*
X93322Y19543D01*
X93203Y19388D01*
X89842D01*
X89758Y19484D01*
X89761Y19500D01*
X89735Y19697D01*
X89659Y19880D01*
X89538Y20038D01*
X89380Y20159D01*
X89197Y20235D01*
X89000Y20261D01*
X88803Y20235D01*
X88620Y20159D01*
X88462Y20038D01*
X88379Y19930D01*
X88258Y19980D01*
X88261Y20000D01*
X88235Y20197D01*
X88159Y20380D01*
X88038Y20538D01*
X87880Y20659D01*
X87697Y20735D01*
X87500Y20761D01*
X87303Y20735D01*
X87120Y20659D01*
X86962Y20538D01*
X86879Y20430D01*
X86758Y20480D01*
X86761Y20500D01*
X86735Y20697D01*
X86659Y20880D01*
X86538Y21038D01*
X86380Y21159D01*
X86197Y21235D01*
X86000Y21261D01*
X85803Y21235D01*
X85620Y21159D01*
X85462Y21038D01*
X85341Y20880D01*
X85265Y20697D01*
X85239Y20500D01*
X85265Y20303D01*
X85341Y20120D01*
X85462Y19962D01*
X85620Y19841D01*
X85658Y19825D01*
X85725Y19725D01*
X87225Y18225D01*
X87225Y18225D01*
X89265Y16185D01*
X89341Y16135D01*
X89391Y16101D01*
X89540Y16072D01*
X93203D01*
X93322Y15917D01*
X93481Y15794D01*
X93666Y15718D01*
X93865Y15691D01*
X94064Y15718D01*
X94249Y15794D01*
X94408Y15917D01*
X94437Y15953D01*
X94563D01*
X94592Y15917D01*
X94751Y15794D01*
X94936Y15718D01*
X95135Y15691D01*
X95334Y15718D01*
X95519Y15794D01*
X95678Y15917D01*
X95801Y16076D01*
X95877Y16261D01*
X95904Y16460D01*
X95877Y16659D01*
X95801Y16844D01*
X95678Y17003D01*
X95642Y17031D01*
Y17159D01*
X95678Y17187D01*
X95801Y17346D01*
X95877Y17531D01*
X95904Y17730D01*
X95877Y17929D01*
X95801Y18114D01*
X95678Y18273D01*
X95642Y18302D01*
Y18428D01*
X95678Y18457D01*
X95801Y18616D01*
X95877Y18801D01*
X95904Y19000D01*
X95877Y19199D01*
X95801Y19384D01*
X95678Y19543D01*
X95642Y19572D01*
Y19698D01*
X95678Y19727D01*
X95801Y19886D01*
X95877Y20071D01*
X95904Y20270D01*
X95877Y20469D01*
X95801Y20654D01*
X95678Y20813D01*
X95642Y20841D01*
Y20969D01*
X95678Y20997D01*
X95801Y21156D01*
X95877Y21341D01*
X95904Y21540D01*
X95877Y21739D01*
X95801Y21924D01*
X95678Y22083D01*
X95519Y22206D01*
X95334Y22282D01*
X95135Y22309D01*
D02*
G37*
G36*
X37120Y24653D02*
X36822Y24614D01*
X36544Y24498D01*
X36305Y24315D01*
X36122Y24076D01*
X36006Y23798D01*
X35967Y23500D01*
X36006Y23202D01*
X36122Y22924D01*
X36305Y22685D01*
X36351Y22650D01*
X36346Y22523D01*
X36319Y22505D01*
X35163Y21348D01*
X22956D01*
X22878Y21536D01*
X22695Y21775D01*
X22456Y21958D01*
X22178Y22074D01*
X21880Y22113D01*
X21582Y22074D01*
X21304Y21958D01*
X21065Y21775D01*
X20882Y21536D01*
X20766Y21258D01*
X20727Y20960D01*
X20766Y20662D01*
X20882Y20384D01*
X21065Y20145D01*
X21304Y19962D01*
X21582Y19846D01*
X21880Y19807D01*
X22178Y19846D01*
X22456Y19962D01*
X22695Y20145D01*
X22878Y20384D01*
X22956Y20572D01*
X35324D01*
X35473Y20601D01*
X35599Y20685D01*
X35843Y20930D01*
X35977Y20884D01*
X36006Y20662D01*
X36122Y20384D01*
X36305Y20145D01*
X36351Y20110D01*
X36346Y19983D01*
X36319Y19965D01*
X35163Y18808D01*
X22956D01*
X22878Y18996D01*
X22695Y19235D01*
X22456Y19418D01*
X22178Y19534D01*
X21880Y19573D01*
X21582Y19534D01*
X21304Y19418D01*
X21065Y19235D01*
X20882Y18996D01*
X20766Y18718D01*
X20727Y18420D01*
X20766Y18122D01*
X20882Y17844D01*
X21065Y17605D01*
X21304Y17422D01*
X21582Y17306D01*
X21880Y17267D01*
X22178Y17306D01*
X22456Y17422D01*
X22695Y17605D01*
X22878Y17844D01*
X22956Y18032D01*
X35324D01*
X35473Y18061D01*
X35599Y18145D01*
X35843Y18390D01*
X35977Y18344D01*
X36006Y18122D01*
X36122Y17844D01*
X36305Y17605D01*
X36544Y17422D01*
X36822Y17306D01*
X37120Y17267D01*
X37418Y17306D01*
X37696Y17422D01*
X37935Y17605D01*
X38118Y17844D01*
X38234Y18122D01*
X38273Y18420D01*
X38234Y18718D01*
X38118Y18996D01*
X37935Y19235D01*
X37889Y19270D01*
X37894Y19397D01*
X37921Y19415D01*
X38665Y20159D01*
X38749Y20285D01*
X38778Y20434D01*
Y20729D01*
X39990Y21941D01*
X40120Y21841D01*
X40303Y21765D01*
X40500Y21739D01*
X40654Y21760D01*
X40688Y21740D01*
X40740Y21688D01*
X40760Y21654D01*
X40739Y21500D01*
X40765Y21303D01*
X40841Y21120D01*
X40962Y20962D01*
X41120Y20841D01*
X41303Y20765D01*
X41500Y20739D01*
X41697Y20765D01*
X41880Y20841D01*
X42038Y20962D01*
X42159Y21120D01*
X42235Y21303D01*
X42261Y21500D01*
X42235Y21697D01*
X42159Y21880D01*
X42038Y22038D01*
X41880Y22159D01*
X41769Y22205D01*
Y22865D01*
X41740Y23014D01*
X41656Y23140D01*
X41140Y23656D01*
X41014Y23740D01*
X40865Y23769D01*
X39881D01*
X39732Y23740D01*
X39606Y23656D01*
X38569Y22618D01*
X38044D01*
X37982Y22745D01*
X38118Y22924D01*
X38234Y23202D01*
X38273Y23500D01*
X38234Y23798D01*
X38118Y24076D01*
X37935Y24315D01*
X37696Y24498D01*
X37418Y24614D01*
X37120Y24653D01*
D02*
G37*
G36*
X60500Y17025D02*
X60235Y16990D01*
X59988Y16887D01*
X59775Y16725D01*
X59613Y16512D01*
X59510Y16265D01*
X59475Y16000D01*
X59510Y15735D01*
X59613Y15488D01*
X59775Y15275D01*
X59988Y15113D01*
X60235Y15010D01*
X60500Y14975D01*
X60765Y15010D01*
X61012Y15113D01*
X61225Y15275D01*
X61387Y15488D01*
X61490Y15735D01*
X61525Y16000D01*
X61490Y16265D01*
X61387Y16512D01*
X61225Y16725D01*
X61012Y16887D01*
X60765Y16990D01*
X60500Y17025D01*
D02*
G37*
G36*
X37120Y17033D02*
X36822Y16994D01*
X36544Y16878D01*
X36305Y16695D01*
X36122Y16456D01*
X36006Y16178D01*
X35967Y15880D01*
X36006Y15582D01*
X36122Y15304D01*
X36305Y15065D01*
X36544Y14882D01*
X36822Y14766D01*
X37120Y14727D01*
X37418Y14766D01*
X37696Y14882D01*
X37935Y15065D01*
X38118Y15304D01*
X38234Y15582D01*
X38273Y15880D01*
X38234Y16178D01*
X38118Y16456D01*
X37935Y16695D01*
X37696Y16878D01*
X37418Y16994D01*
X37120Y17033D01*
D02*
G37*
G36*
X4500Y16666D02*
X4225Y16630D01*
X3968Y16524D01*
X3748Y16355D01*
X3579Y16135D01*
X3473Y15878D01*
X3437Y15603D01*
X3473Y15328D01*
X3579Y15072D01*
X3748Y14851D01*
X3968Y14682D01*
X4225Y14576D01*
X4500Y14540D01*
X4775Y14576D01*
X5032Y14682D01*
X5252Y14851D01*
X5421Y15072D01*
X5527Y15328D01*
X5563Y15603D01*
X5527Y15878D01*
X5421Y16135D01*
X5252Y16355D01*
X5032Y16524D01*
X4775Y16630D01*
X4500Y16666D01*
D02*
G37*
G36*
X53500Y16865D02*
X53235Y16830D01*
X52988Y16727D01*
X52775Y16565D01*
X52613Y16352D01*
X52510Y16105D01*
X52475Y15840D01*
X52510Y15575D01*
X52613Y15328D01*
X52775Y15115D01*
X52988Y14953D01*
X53235Y14850D01*
X53500Y14815D01*
X53765Y14850D01*
X54012Y14953D01*
X54225Y15115D01*
X54387Y15328D01*
X54490Y15575D01*
X54525Y15840D01*
X54490Y16105D01*
X54387Y16352D01*
X54225Y16565D01*
X54012Y16727D01*
X53765Y16830D01*
X53500Y16865D01*
D02*
G37*
G36*
X46500D02*
X46235Y16830D01*
X45988Y16727D01*
X45775Y16565D01*
X45613Y16352D01*
X45510Y16105D01*
X45475Y15840D01*
X45510Y15575D01*
X45613Y15328D01*
X45775Y15115D01*
X45988Y14953D01*
X46235Y14850D01*
X46500Y14815D01*
X46765Y14850D01*
X47012Y14953D01*
X47225Y15115D01*
X47387Y15328D01*
X47490Y15575D01*
X47525Y15840D01*
X47490Y16105D01*
X47387Y16352D01*
X47225Y16565D01*
X47012Y16727D01*
X46765Y16830D01*
X46500Y16865D01*
D02*
G37*
G36*
X41244Y27373D02*
X40627D01*
Y26756D01*
X40697Y26765D01*
X40880Y26841D01*
X41038Y26962D01*
X41159Y27120D01*
X41235Y27303D01*
X41244Y27373D01*
D02*
G37*
G36*
X67500Y27185D02*
X67235Y27150D01*
X66988Y27047D01*
X66775Y26885D01*
X66613Y26672D01*
X66510Y26425D01*
X66475Y26160D01*
X66510Y25895D01*
X66613Y25648D01*
X66775Y25435D01*
X66988Y25273D01*
X67235Y25170D01*
X67500Y25135D01*
X67765Y25170D01*
X68012Y25273D01*
X68225Y25435D01*
X68387Y25648D01*
X68490Y25895D01*
X68525Y26160D01*
X68490Y26425D01*
X68387Y26672D01*
X68225Y26885D01*
X68012Y27047D01*
X67765Y27150D01*
X67500Y27185D01*
D02*
G37*
G36*
X13508Y28033D02*
X12627D01*
Y27152D01*
X12765Y27170D01*
X13012Y27273D01*
X13225Y27435D01*
X13387Y27648D01*
X13490Y27895D01*
X13508Y28033D01*
D02*
G37*
G36*
X12373D02*
X11492D01*
X11510Y27895D01*
X11613Y27648D01*
X11775Y27435D01*
X11988Y27273D01*
X12235Y27170D01*
X12373Y27152D01*
Y28033D01*
D02*
G37*
G36*
X60500Y27185D02*
X60235Y27150D01*
X59988Y27047D01*
X59775Y26885D01*
X59613Y26672D01*
X59510Y26425D01*
X59475Y26160D01*
X59510Y25895D01*
X59613Y25648D01*
X59775Y25435D01*
X59988Y25273D01*
X60235Y25170D01*
X60500Y25135D01*
X60765Y25170D01*
X61012Y25273D01*
X61225Y25435D01*
X61387Y25648D01*
X61490Y25895D01*
X61525Y26160D01*
X61490Y26425D01*
X61387Y26672D01*
X61225Y26885D01*
X61012Y27047D01*
X60765Y27150D01*
X60500Y27185D01*
D02*
G37*
G36*
X21880Y27193D02*
X21582Y27154D01*
X21304Y27038D01*
X21065Y26855D01*
X20882Y26616D01*
X20766Y26338D01*
X20727Y26040D01*
X20766Y25742D01*
X20882Y25464D01*
X21065Y25225D01*
X21304Y25042D01*
X21582Y24926D01*
X21880Y24887D01*
X22178Y24926D01*
X22456Y25042D01*
X22695Y25225D01*
X22878Y25464D01*
X22994Y25742D01*
X23033Y26040D01*
X22994Y26338D01*
X22878Y26616D01*
X22695Y26855D01*
X22456Y27038D01*
X22178Y27154D01*
X21880Y27193D01*
D02*
G37*
G36*
Y24653D02*
X21582Y24614D01*
X21304Y24498D01*
X21065Y24315D01*
X20882Y24076D01*
X20766Y23798D01*
X20727Y23500D01*
X20766Y23202D01*
X20882Y22924D01*
X21065Y22685D01*
X21304Y22502D01*
X21582Y22386D01*
X21880Y22347D01*
X22178Y22386D01*
X22456Y22502D01*
X22695Y22685D01*
X22878Y22924D01*
X22994Y23202D01*
X23033Y23500D01*
X22994Y23798D01*
X22878Y24076D01*
X22695Y24315D01*
X22456Y24498D01*
X22178Y24614D01*
X21880Y24653D01*
D02*
G37*
G36*
X53500Y27025D02*
X53235Y26990D01*
X52988Y26887D01*
X52775Y26725D01*
X52613Y26512D01*
X52510Y26265D01*
X52475Y26000D01*
X52510Y25735D01*
X52613Y25488D01*
X52775Y25275D01*
X52988Y25113D01*
X53235Y25010D01*
X53500Y24975D01*
X53765Y25010D01*
X54012Y25113D01*
X54225Y25275D01*
X54387Y25488D01*
X54490Y25735D01*
X54525Y26000D01*
X54490Y26265D01*
X54387Y26512D01*
X54225Y26725D01*
X54012Y26887D01*
X53765Y26990D01*
X53500Y27025D01*
D02*
G37*
G36*
X46500D02*
X46235Y26990D01*
X45988Y26887D01*
X45775Y26725D01*
X45613Y26512D01*
X45510Y26265D01*
X45475Y26000D01*
X45510Y25735D01*
X45613Y25488D01*
X45775Y25275D01*
X45988Y25113D01*
X46235Y25010D01*
X46500Y24975D01*
X46765Y25010D01*
X47012Y25113D01*
X47225Y25275D01*
X47387Y25488D01*
X47490Y25735D01*
X47525Y26000D01*
X47490Y26265D01*
X47387Y26512D01*
X47225Y26725D01*
X47012Y26887D01*
X46765Y26990D01*
X46500Y27025D01*
D02*
G37*
G36*
X12500Y19025D02*
X12235Y18990D01*
X11988Y18887D01*
X11775Y18725D01*
X11613Y18512D01*
X11510Y18265D01*
X11475Y18000D01*
X11510Y17735D01*
X11613Y17488D01*
X11775Y17275D01*
X11988Y17113D01*
X12112Y17061D01*
Y14161D01*
X11339Y13388D01*
X5506D01*
X5421Y13595D01*
X5252Y13815D01*
X5032Y13984D01*
X4775Y14090D01*
X4500Y14126D01*
X4225Y14090D01*
X3968Y13984D01*
X3748Y13815D01*
X3579Y13595D01*
X3473Y13338D01*
X3437Y13063D01*
X3473Y12788D01*
X3579Y12532D01*
X3748Y12311D01*
X3968Y12142D01*
X4225Y12036D01*
X4500Y12000D01*
X4775Y12036D01*
X5032Y12142D01*
X5252Y12311D01*
X5421Y12532D01*
X5454Y12612D01*
X11500D01*
X11649Y12641D01*
X11775Y12725D01*
X12775Y13725D01*
X12859Y13851D01*
X12888Y14000D01*
Y17061D01*
X13012Y17113D01*
X13225Y17275D01*
X13387Y17488D01*
X13490Y17735D01*
X13525Y18000D01*
X13490Y18265D01*
X13387Y18512D01*
X13225Y18725D01*
X13012Y18887D01*
X12765Y18990D01*
X12500Y19025D01*
D02*
G37*
G36*
X67787Y5008D02*
Y4127D01*
X68668D01*
X68650Y4265D01*
X68547Y4512D01*
X68385Y4725D01*
X68172Y4887D01*
X67925Y4990D01*
X67787Y5008D01*
D02*
G37*
G36*
X67533D02*
X67395Y4990D01*
X67148Y4887D01*
X66935Y4725D01*
X66773Y4512D01*
X66670Y4265D01*
X66652Y4127D01*
X67533D01*
Y5008D01*
D02*
G37*
G36*
X73750Y10664D02*
X73449Y10624D01*
X73168Y10508D01*
X72927Y10323D01*
X72742Y10082D01*
X72626Y9801D01*
X72586Y9500D01*
X72626Y9199D01*
X72742Y8918D01*
X72927Y8677D01*
X73168Y8492D01*
X73449Y8376D01*
X73750Y8336D01*
X74051Y8376D01*
X74332Y8492D01*
X74573Y8677D01*
X74758Y8918D01*
X74874Y9199D01*
X74914Y9500D01*
X74874Y9801D01*
X74758Y10082D01*
X74573Y10323D01*
X74332Y10508D01*
X74051Y10624D01*
X73750Y10664D01*
D02*
G37*
G36*
X48000Y10114D02*
X47712Y10076D01*
X47443Y9964D01*
X47213Y9787D01*
X47036Y9557D01*
X46924Y9288D01*
X46886Y9000D01*
X46924Y8712D01*
X47036Y8443D01*
X47213Y8213D01*
X47443Y8036D01*
X47712Y7924D01*
X48000Y7886D01*
X48288Y7924D01*
X48557Y8036D01*
X48787Y8213D01*
X48964Y8443D01*
X49076Y8712D01*
X49114Y9000D01*
X49076Y9288D01*
X48964Y9557D01*
X48787Y9787D01*
X48557Y9964D01*
X48288Y10076D01*
X48000Y10114D01*
D02*
G37*
G36*
X86250Y5664D02*
X85949Y5624D01*
X85668Y5508D01*
X85427Y5323D01*
X85242Y5082D01*
X85126Y4801D01*
X85086Y4500D01*
X85126Y4199D01*
X85242Y3918D01*
X85427Y3677D01*
X85668Y3492D01*
X85949Y3376D01*
X86250Y3336D01*
X86551Y3376D01*
X86832Y3492D01*
X87073Y3677D01*
X87258Y3918D01*
X87374Y4199D01*
X87414Y4500D01*
X87374Y4801D01*
X87258Y5082D01*
X87073Y5323D01*
X86832Y5508D01*
X86551Y5624D01*
X86250Y5664D01*
D02*
G37*
G36*
X67533Y3873D02*
X66652D01*
X66670Y3735D01*
X66773Y3488D01*
X66935Y3275D01*
X67148Y3113D01*
X67395Y3010D01*
X67533Y2992D01*
Y3873D01*
D02*
G37*
G36*
X57500Y5025D02*
X57235Y4990D01*
X56988Y4887D01*
X56775Y4725D01*
X56613Y4512D01*
X56510Y4265D01*
X56475Y4000D01*
X56510Y3735D01*
X56613Y3488D01*
X56775Y3275D01*
X56988Y3113D01*
X57235Y3010D01*
X57500Y2975D01*
X57765Y3010D01*
X58012Y3113D01*
X58225Y3275D01*
X58387Y3488D01*
X58490Y3735D01*
X58525Y4000D01*
X58490Y4265D01*
X58387Y4512D01*
X58225Y4725D01*
X58012Y4887D01*
X57765Y4990D01*
X57500Y5025D01*
D02*
G37*
G36*
X73750Y5664D02*
X73449Y5624D01*
X73168Y5508D01*
X72927Y5323D01*
X72742Y5082D01*
X72626Y4801D01*
X72586Y4500D01*
X72626Y4199D01*
X72742Y3918D01*
X72927Y3677D01*
X73168Y3492D01*
X73449Y3376D01*
X73750Y3336D01*
X74051Y3376D01*
X74332Y3492D01*
X74573Y3677D01*
X74758Y3918D01*
X74874Y4199D01*
X74914Y4500D01*
X74874Y4801D01*
X74758Y5082D01*
X74573Y5323D01*
X74332Y5508D01*
X74051Y5624D01*
X73750Y5664D01*
D02*
G37*
G36*
X68668Y3873D02*
X67787D01*
Y2992D01*
X67925Y3010D01*
X68172Y3113D01*
X68385Y3275D01*
X68547Y3488D01*
X68650Y3735D01*
X68668Y3873D01*
D02*
G37*
G36*
X67533Y13084D02*
X67463Y13075D01*
X67280Y12999D01*
X67122Y12878D01*
X67001Y12720D01*
X66925Y12537D01*
X66916Y12467D01*
X67533D01*
Y13084D01*
D02*
G37*
G36*
X37120Y14493D02*
X36822Y14454D01*
X36544Y14338D01*
X36305Y14155D01*
X36122Y13916D01*
X36006Y13638D01*
X35967Y13340D01*
X36006Y13042D01*
X36122Y12764D01*
X36305Y12525D01*
X36544Y12342D01*
X36822Y12226D01*
X37120Y12187D01*
X37418Y12226D01*
X37696Y12342D01*
X37935Y12525D01*
X38118Y12764D01*
X38234Y13042D01*
X38273Y13340D01*
X38234Y13638D01*
X38118Y13916D01*
X37935Y14155D01*
X37696Y14338D01*
X37418Y14454D01*
X37120Y14493D01*
D02*
G37*
G36*
X21880D02*
X21582Y14454D01*
X21304Y14338D01*
X21065Y14155D01*
X20882Y13916D01*
X20766Y13638D01*
X20727Y13340D01*
X20766Y13042D01*
X20882Y12764D01*
X21065Y12525D01*
X21304Y12342D01*
X21582Y12226D01*
X21880Y12187D01*
X22178Y12226D01*
X22456Y12342D01*
X22695Y12525D01*
X22878Y12764D01*
X22994Y13042D01*
X23003Y13112D01*
X28848D01*
X28962Y12962D01*
X29120Y12841D01*
X29303Y12765D01*
X29500Y12739D01*
X29697Y12765D01*
X29880Y12841D01*
X30038Y12962D01*
X30159Y13120D01*
X30235Y13303D01*
X30261Y13500D01*
X30235Y13697D01*
X30159Y13880D01*
X30038Y14038D01*
X29880Y14159D01*
X29697Y14235D01*
X29500Y14261D01*
X29303Y14235D01*
X29120Y14159D01*
X28962Y14038D01*
X28848Y13888D01*
X22890D01*
X22878Y13916D01*
X22695Y14155D01*
X22456Y14338D01*
X22178Y14454D01*
X21880Y14493D01*
D02*
G37*
G36*
X67787Y13084D02*
Y12467D01*
X68404D01*
X68395Y12537D01*
X68319Y12720D01*
X68198Y12878D01*
X68040Y12999D01*
X67857Y13075D01*
X67787Y13084D01*
D02*
G37*
G36*
X68404Y12213D02*
X67787D01*
Y11596D01*
X67857Y11605D01*
X68040Y11681D01*
X68198Y11802D01*
X68319Y11960D01*
X68395Y12143D01*
X68404Y12213D01*
D02*
G37*
G36*
X36993Y11936D02*
X36822Y11914D01*
X36544Y11798D01*
X36305Y11615D01*
X36122Y11376D01*
X36006Y11098D01*
X35984Y10927D01*
X36993D01*
Y11936D01*
D02*
G37*
G36*
X86250Y10664D02*
X85949Y10624D01*
X85668Y10508D01*
X85427Y10323D01*
X85242Y10082D01*
X85126Y9801D01*
X85086Y9500D01*
X85126Y9199D01*
X85242Y8918D01*
X85427Y8677D01*
X85668Y8492D01*
X85949Y8376D01*
X86250Y8336D01*
X86551Y8376D01*
X86832Y8492D01*
X87073Y8677D01*
X87258Y8918D01*
X87374Y9199D01*
X87414Y9500D01*
X87374Y9801D01*
X87258Y10082D01*
X87073Y10323D01*
X86832Y10508D01*
X86551Y10624D01*
X86250Y10664D01*
D02*
G37*
G36*
X67533Y12213D02*
X66916D01*
X66925Y12143D01*
X67001Y11960D01*
X67122Y11802D01*
X67280Y11681D01*
X67463Y11605D01*
X67533Y11596D01*
Y12213D01*
D02*
G37*
G36*
X37247Y11936D02*
Y10927D01*
X38256D01*
X38234Y11098D01*
X38118Y11376D01*
X37935Y11615D01*
X37696Y11798D01*
X37418Y11914D01*
X37247Y11936D01*
D02*
G37*
G36*
X49080Y56772D02*
X48848Y56741D01*
X48632Y56652D01*
X48446Y56509D01*
X48303Y56323D01*
X48214Y56107D01*
X48183Y55875D01*
Y54605D01*
X48214Y54373D01*
X48303Y54157D01*
X48446Y53971D01*
X48632Y53828D01*
X48848Y53739D01*
X49080Y53708D01*
X49312Y53739D01*
X49528Y53828D01*
X49714Y53971D01*
X49857Y54157D01*
X49946Y54373D01*
X49977Y54605D01*
Y55875D01*
X49946Y56107D01*
X49857Y56323D01*
X49714Y56509D01*
X49528Y56652D01*
X49312Y56741D01*
X49080Y56772D01*
D02*
G37*
G36*
X46540D02*
X46308Y56741D01*
X46092Y56652D01*
X45906Y56509D01*
X45763Y56323D01*
X45674Y56107D01*
X45643Y55875D01*
Y54605D01*
X45674Y54373D01*
X45763Y54157D01*
X45906Y53971D01*
X46092Y53828D01*
X46152Y53804D01*
Y52701D01*
X45687Y52236D01*
X45500Y52261D01*
X45303Y52235D01*
X45120Y52159D01*
X44962Y52038D01*
X44841Y51880D01*
X44765Y51697D01*
X44739Y51500D01*
X44765Y51303D01*
X44841Y51120D01*
X44962Y50962D01*
X45120Y50841D01*
X45303Y50765D01*
X45500Y50739D01*
X45697Y50765D01*
X45880Y50841D01*
X46038Y50962D01*
X46159Y51120D01*
X46235Y51303D01*
X46261Y51500D01*
X46236Y51687D01*
X46815Y52265D01*
X46899Y52391D01*
X46928Y52540D01*
Y53804D01*
X46988Y53828D01*
X47174Y53971D01*
X47317Y54157D01*
X47406Y54373D01*
X47437Y54605D01*
Y55875D01*
X47406Y56107D01*
X47317Y56323D01*
X47174Y56509D01*
X46988Y56652D01*
X46772Y56741D01*
X46540Y56772D01*
D02*
G37*
G36*
X61780D02*
X61548Y56741D01*
X61332Y56652D01*
X61146Y56509D01*
X61003Y56323D01*
X60914Y56107D01*
X60883Y55875D01*
Y54605D01*
X60914Y54373D01*
X61003Y54157D01*
X61146Y53971D01*
X61332Y53828D01*
X61548Y53739D01*
X61780Y53708D01*
X62012Y53739D01*
X62228Y53828D01*
X62414Y53971D01*
X62557Y54157D01*
X62646Y54373D01*
X62677Y54605D01*
Y55875D01*
X62646Y56107D01*
X62557Y56323D01*
X62414Y56509D01*
X62228Y56652D01*
X62012Y56741D01*
X61780Y56772D01*
D02*
G37*
G36*
X59240D02*
X59008Y56741D01*
X58792Y56652D01*
X58606Y56509D01*
X58463Y56323D01*
X58374Y56107D01*
X58343Y55875D01*
Y54605D01*
X58374Y54373D01*
X58463Y54157D01*
X58606Y53971D01*
X58792Y53828D01*
X59008Y53739D01*
X59240Y53708D01*
X59472Y53739D01*
X59688Y53828D01*
X59874Y53971D01*
X60017Y54157D01*
X60106Y54373D01*
X60137Y54605D01*
Y55875D01*
X60106Y56107D01*
X60017Y56323D01*
X59874Y56509D01*
X59688Y56652D01*
X59472Y56741D01*
X59240Y56772D01*
D02*
G37*
G36*
X16635Y51565D02*
X16419Y51522D01*
X16236Y51399D01*
X16113Y51216D01*
X16070Y51000D01*
Y50864D01*
X15930D01*
Y51000D01*
X15887Y51216D01*
X15764Y51399D01*
X15581Y51522D01*
X15365Y51565D01*
X15149Y51522D01*
X14966Y51399D01*
X14843Y51216D01*
X14800Y51000D01*
Y49700D01*
X14843Y49484D01*
X14966Y49301D01*
X15149Y49178D01*
X15365Y49135D01*
X15581Y49178D01*
X15764Y49301D01*
X15887Y49484D01*
X15930Y49700D01*
Y49836D01*
X16070D01*
Y49700D01*
X16113Y49484D01*
X16121Y49472D01*
Y48556D01*
X16097Y48538D01*
X15976Y48380D01*
X15900Y48197D01*
X15874Y48000D01*
X15900Y47803D01*
X15976Y47620D01*
X16097Y47462D01*
X16121Y47444D01*
Y46528D01*
X16113Y46516D01*
X16070Y46300D01*
Y46164D01*
X15930D01*
Y46300D01*
X15887Y46516D01*
X15764Y46699D01*
X15581Y46822D01*
X15365Y46865D01*
X15149Y46822D01*
X14966Y46699D01*
X14843Y46516D01*
X14800Y46300D01*
Y45000D01*
X14843Y44784D01*
X14966Y44601D01*
X15149Y44478D01*
X15365Y44435D01*
X15581Y44478D01*
X15764Y44601D01*
X15887Y44784D01*
X15930Y45000D01*
Y45136D01*
X16070D01*
Y45000D01*
X16113Y44784D01*
X16236Y44601D01*
X16419Y44478D01*
X16635Y44435D01*
X16851Y44478D01*
X17034Y44601D01*
X17157Y44784D01*
X17200Y45000D01*
Y46300D01*
X17157Y46516D01*
X17149Y46528D01*
Y47444D01*
X17173Y47462D01*
X17294Y47620D01*
X17370Y47803D01*
X17396Y48000D01*
X17370Y48197D01*
X17294Y48380D01*
X17173Y48538D01*
X17149Y48556D01*
Y49472D01*
X17157Y49484D01*
X17200Y49700D01*
Y51000D01*
X17157Y51216D01*
X17034Y51399D01*
X16851Y51522D01*
X16635Y51565D01*
D02*
G37*
G36*
X14222Y51540D02*
Y50477D01*
X14660D01*
Y51000D01*
X14617Y51216D01*
X14494Y51399D01*
X14311Y51522D01*
X14222Y51540D01*
D02*
G37*
G36*
X18470Y50223D02*
X18032D01*
Y49160D01*
X18121Y49178D01*
X18304Y49301D01*
X18427Y49484D01*
X18470Y49700D01*
Y50223D01*
D02*
G37*
G36*
X18032Y51540D02*
Y50477D01*
X18470D01*
Y51000D01*
X18427Y51216D01*
X18304Y51399D01*
X18121Y51522D01*
X18032Y51540D01*
D02*
G37*
G36*
X17778D02*
X17689Y51522D01*
X17506Y51399D01*
X17383Y51216D01*
X17340Y51000D01*
Y50477D01*
X17778D01*
Y51540D01*
D02*
G37*
G36*
X40667Y56008D02*
Y55127D01*
X41548D01*
X41530Y55265D01*
X41427Y55512D01*
X41265Y55725D01*
X41052Y55887D01*
X40805Y55990D01*
X40667Y56008D01*
D02*
G37*
G36*
X40413D02*
X40275Y55990D01*
X40028Y55887D01*
X39815Y55725D01*
X39653Y55512D01*
X39550Y55265D01*
X39532Y55127D01*
X40413D01*
Y56008D01*
D02*
G37*
G36*
X44127Y56755D02*
Y55367D01*
X44897D01*
Y55875D01*
X44866Y56107D01*
X44777Y56323D01*
X44634Y56509D01*
X44448Y56652D01*
X44232Y56741D01*
X44127Y56755D01*
D02*
G37*
G36*
X43873D02*
X43768Y56741D01*
X43552Y56652D01*
X43366Y56509D01*
X43223Y56323D01*
X43134Y56107D01*
X43103Y55875D01*
Y55367D01*
X43873D01*
Y56755D01*
D02*
G37*
G36*
X41548Y54873D02*
X40667D01*
Y53992D01*
X40805Y54010D01*
X41052Y54113D01*
X41265Y54275D01*
X41427Y54488D01*
X41530Y54735D01*
X41548Y54873D01*
D02*
G37*
G36*
X44897Y55113D02*
X44127D01*
Y53725D01*
X44232Y53739D01*
X44448Y53828D01*
X44634Y53971D01*
X44777Y54157D01*
X44866Y54373D01*
X44897Y54605D01*
Y55113D01*
D02*
G37*
G36*
X43873D02*
X43103D01*
Y54605D01*
X43134Y54373D01*
X43223Y54157D01*
X43366Y53971D01*
X43552Y53828D01*
X43768Y53739D01*
X43873Y53725D01*
Y55113D01*
D02*
G37*
G36*
X40413Y54873D02*
X39532D01*
X39550Y54735D01*
X39653Y54488D01*
X39815Y54275D01*
X40028Y54113D01*
X40275Y54010D01*
X40413Y53992D01*
Y54873D01*
D02*
G37*
G36*
X35460Y56025D02*
X35195Y55990D01*
X34948Y55887D01*
X34735Y55725D01*
X34573Y55512D01*
X34470Y55265D01*
X34435Y55000D01*
X34470Y54735D01*
X34573Y54488D01*
X34735Y54275D01*
X34948Y54113D01*
X35195Y54010D01*
X35460Y53975D01*
X35725Y54010D01*
X35972Y54113D01*
X36185Y54275D01*
X36347Y54488D01*
X36450Y54735D01*
X36485Y55000D01*
X36450Y55265D01*
X36347Y55512D01*
X36185Y55725D01*
X35972Y55887D01*
X35725Y55990D01*
X35460Y56025D01*
D02*
G37*
G36*
X17778Y50223D02*
X17340D01*
Y49700D01*
X17383Y49484D01*
X17506Y49301D01*
X17689Y49178D01*
X17778Y49160D01*
Y50223D01*
D02*
G37*
G36*
X40627Y38744D02*
Y38127D01*
X41244D01*
X41235Y38197D01*
X41159Y38380D01*
X41038Y38538D01*
X40880Y38659D01*
X40697Y38735D01*
X40627Y38744D01*
D02*
G37*
G36*
X40373D02*
X40303Y38735D01*
X40120Y38659D01*
X39962Y38538D01*
X39841Y38380D01*
X39765Y38197D01*
X39756Y38127D01*
X40373D01*
Y38744D01*
D02*
G37*
G36*
X36993Y41153D02*
X35984D01*
X36006Y40982D01*
X36122Y40704D01*
X36305Y40465D01*
X36544Y40282D01*
X36822Y40166D01*
X36993Y40144D01*
Y41153D01*
D02*
G37*
G36*
X23023Y42423D02*
X20737D01*
Y40137D01*
X23023D01*
Y42423D01*
D02*
G37*
G36*
X41244Y37873D02*
X40627D01*
Y37256D01*
X40697Y37265D01*
X40880Y37341D01*
X41038Y37462D01*
X41159Y37620D01*
X41235Y37803D01*
X41244Y37873D01*
D02*
G37*
G36*
X12627Y29168D02*
Y28287D01*
X13508D01*
X13490Y28425D01*
X13387Y28672D01*
X13225Y28885D01*
X13012Y29047D01*
X12765Y29150D01*
X12627Y29168D01*
D02*
G37*
G36*
X12373D02*
X12235Y29150D01*
X11988Y29047D01*
X11775Y28885D01*
X11613Y28672D01*
X11510Y28425D01*
X11492Y28287D01*
X12373D01*
Y29168D01*
D02*
G37*
G36*
X40373Y37873D02*
X39756D01*
X39765Y37803D01*
X39841Y37620D01*
X39962Y37462D01*
X40120Y37341D01*
X40303Y37265D01*
X40373Y37256D01*
Y37873D01*
D02*
G37*
G36*
X21880Y34813D02*
X21582Y34774D01*
X21304Y34658D01*
X21065Y34475D01*
X20882Y34236D01*
X20766Y33958D01*
X20727Y33660D01*
X20766Y33362D01*
X20882Y33084D01*
X21065Y32845D01*
X21304Y32662D01*
X21582Y32546D01*
X21880Y32507D01*
X22178Y32546D01*
X22456Y32662D01*
X22695Y32845D01*
X22878Y33084D01*
X22994Y33362D01*
X23033Y33660D01*
X22994Y33958D01*
X22878Y34236D01*
X22695Y34475D01*
X22456Y34658D01*
X22178Y34774D01*
X21880Y34813D01*
D02*
G37*
G36*
X38413Y48508D02*
X38275Y48490D01*
X38028Y48387D01*
X37815Y48225D01*
X37653Y48012D01*
X37550Y47765D01*
X37532Y47627D01*
X38413D01*
Y48508D01*
D02*
G37*
G36*
X39548Y47373D02*
X38667D01*
Y46492D01*
X38805Y46510D01*
X39052Y46613D01*
X39265Y46775D01*
X39427Y46988D01*
X39530Y47235D01*
X39548Y47373D01*
D02*
G37*
G36*
X14660Y50223D02*
X14222D01*
Y49160D01*
X14311Y49178D01*
X14494Y49301D01*
X14617Y49484D01*
X14660Y49700D01*
Y50223D01*
D02*
G37*
G36*
X38667Y48508D02*
Y47627D01*
X39548D01*
X39530Y47765D01*
X39427Y48012D01*
X39265Y48225D01*
X39052Y48387D01*
X38805Y48490D01*
X38667Y48508D01*
D02*
G37*
G36*
X38413Y47373D02*
X37532D01*
X37550Y47235D01*
X37653Y46988D01*
X37815Y46775D01*
X38028Y46613D01*
X38275Y46510D01*
X38413Y46492D01*
Y47373D01*
D02*
G37*
G36*
X36993Y42416D02*
X36822Y42394D01*
X36544Y42278D01*
X36305Y42095D01*
X36122Y41856D01*
X36006Y41578D01*
X35984Y41407D01*
X36993D01*
Y42416D01*
D02*
G37*
G36*
X38256Y41153D02*
X37247D01*
Y40144D01*
X37418Y40166D01*
X37696Y40282D01*
X37935Y40465D01*
X38118Y40704D01*
X38234Y40982D01*
X38256Y41153D01*
D02*
G37*
G36*
X33460Y48525D02*
X33195Y48490D01*
X32948Y48387D01*
X32735Y48225D01*
X32573Y48012D01*
X32470Y47765D01*
X32435Y47500D01*
X32470Y47235D01*
X32573Y46988D01*
X32735Y46775D01*
X32948Y46613D01*
X33195Y46510D01*
X33460Y46475D01*
X33725Y46510D01*
X33972Y46613D01*
X34185Y46775D01*
X34347Y46988D01*
X34450Y47235D01*
X34485Y47500D01*
X34450Y47765D01*
X34347Y48012D01*
X34185Y48225D01*
X33972Y48387D01*
X33725Y48490D01*
X33460Y48525D01*
D02*
G37*
G36*
X37247Y42416D02*
Y41407D01*
X38256D01*
X38234Y41578D01*
X38118Y41856D01*
X37935Y42095D01*
X37696Y42278D01*
X37418Y42394D01*
X37247Y42416D01*
D02*
G37*
%LPD*%
D10*
X17905Y50350D02*
D03*
X16635D02*
D03*
X15365D02*
D03*
X14095D02*
D03*
X17905Y45650D02*
D03*
X16635D02*
D03*
X15365D02*
D03*
X14095D02*
D03*
D11*
X20000Y36549D02*
X20921Y37470D01*
X20000Y6000D02*
Y36549D01*
Y6000D02*
X20280Y5720D01*
X20921Y37470D02*
X37646D01*
X21880Y36200D02*
X31500D01*
X37646Y37470D02*
X40176Y40000D01*
X44000D01*
X28430Y34930D02*
X39430D01*
X31500Y36200D02*
X37120D01*
X24620Y31120D02*
X28430Y34930D01*
X30500Y27500D02*
X30690Y27310D01*
X21880Y31120D02*
X24620D01*
X20280Y5720D02*
X21880D01*
X67216Y9000D02*
X87210Y28994D01*
X93311Y29230D02*
X93865D01*
X93075Y28994D02*
X93311Y29230D01*
X87210Y28994D02*
X93075D01*
X36594Y19690D02*
X37646D01*
X38390Y20890D02*
X40000Y22500D01*
X38390Y20434D02*
Y20890D01*
X37646Y19690D02*
X38390Y20434D01*
X40000Y22500D02*
X40500D01*
X38730Y22230D02*
X39881Y23381D01*
X36594Y22230D02*
X38730D01*
X40865Y23381D02*
X41381Y22865D01*
X39881Y23381D02*
X40865D01*
X41381Y21619D02*
Y22865D01*
X30690Y27310D02*
X38810D01*
X41284Y36784D02*
X44784D01*
X41256Y36000D02*
X45080D01*
X39430Y34930D02*
X41284Y36784D01*
X41381Y21619D02*
X41500Y21500D01*
X21880Y20960D02*
X35324D01*
X36594Y22230D01*
X35324Y18420D02*
X36594Y19690D01*
X21880Y18420D02*
X35324D01*
X21716Y19000D02*
X21880D01*
Y18420D02*
Y19000D01*
X36594Y6990D02*
X55950D01*
X35324Y8260D02*
X36594Y6990D01*
X21880Y8260D02*
X35324D01*
X21880Y10800D02*
X30200D01*
X31470Y9530D01*
X37646D01*
X38176Y9000D01*
X45460D01*
X21880Y15880D02*
X30380D01*
X30500Y16000D01*
X38810Y27310D02*
X42500Y31000D01*
X21880Y13340D02*
X22040Y13500D01*
X29500D01*
Y29500D02*
X36244D01*
X36594Y29850D01*
X40350D01*
X43000Y32500D01*
X37646Y32390D02*
X41256Y36000D01*
X27890Y32390D02*
X37646D01*
X24080Y28580D02*
X27890Y32390D01*
X21880Y28580D02*
X24080D01*
X12500Y14000D02*
Y18000D01*
X4500Y13000D02*
X11500D01*
X12500Y14000D01*
X93635Y20500D02*
X93865Y20270D01*
X90500Y20500D02*
X93635D01*
X89000Y19500D02*
X89500Y19000D01*
X93865D01*
X87500Y19500D02*
Y20000D01*
Y19500D02*
X89270Y17730D01*
X93865D01*
X87500Y18500D02*
X89540Y16460D01*
X93865D01*
X86000Y20000D02*
Y20500D01*
Y20000D02*
X87500Y18500D01*
X84000Y21500D02*
Y24000D01*
X63040Y9000D02*
X67216D01*
X61780Y40000D02*
X64774Y42994D01*
X64320Y40000D02*
X66806Y42486D01*
X95135Y31770D02*
X95417D01*
X95135Y30500D02*
X96532Y31897D01*
X95417Y31770D02*
X96024Y32377D01*
X64774Y42994D02*
X73578D01*
X80582Y35990D01*
X66806Y42486D02*
X73367D01*
X80371Y35482D01*
X80582Y35990D02*
X94794D01*
X96532Y31897D02*
Y34252D01*
X80371Y35482D02*
X94584D01*
X96024Y32377D02*
Y34042D01*
X94794Y35990D02*
X96532Y34252D01*
X94584Y35482D02*
X96024Y34042D01*
X54500Y37500D02*
X55500Y38500D01*
X50500Y38500D02*
Y42066D01*
Y38500D02*
X51500Y37500D01*
X54500D01*
X51620Y40000D02*
X52000D01*
X50500Y42066D02*
X52000Y43566D01*
Y53080D01*
X54160Y55240D01*
X45500Y51500D02*
X46540Y52540D01*
Y55240D01*
D12*
X92865Y29500D02*
X93865Y30500D01*
X87000Y29500D02*
X92865D01*
X68000Y10500D02*
X87000Y29500D01*
X46540Y38540D02*
Y40000D01*
X44784Y36784D02*
X46540Y38540D01*
X45080Y36000D02*
X49080Y40000D01*
X50540Y9000D02*
X53500D01*
X55000Y10500D01*
X53500Y26000D02*
X53500Y26000D01*
X55950Y6990D02*
X57960Y9000D01*
X42500Y31000D02*
X56500D01*
X58000Y32500D01*
X58460D01*
X43000D02*
X45460D01*
X55000Y10500D02*
X68000D01*
X50540Y32500D02*
X52040Y34000D01*
X61238D01*
X62229Y33009D01*
Y31771D02*
Y33009D01*
Y31771D02*
X62729Y31271D01*
X64049D01*
X64549Y31771D01*
X93864D01*
X93865Y31770D01*
X63540Y32500D02*
X66500D01*
X67000Y33000D01*
X93825D01*
X93865Y33040D01*
X59240Y40000D02*
X59500D01*
X66860D02*
X67024D01*
X59500D02*
X63000Y43500D01*
X56700Y40000D02*
X60704Y44004D01*
X67024Y40000D02*
X69004Y41980D01*
X95135Y29230D02*
X97038Y31133D01*
X95135Y27960D02*
Y28343D01*
X95502D01*
X97542Y30383D01*
X60704Y44004D02*
X73996D01*
X81000Y37000D01*
X63000Y43500D02*
X73787D01*
X80791Y36496D01*
X69004Y41980D02*
X73158D01*
X80162Y34976D01*
X80791Y36496D02*
X95004D01*
X97038Y34462D01*
Y31133D02*
Y34462D01*
X95213Y37000D02*
X97542Y34671D01*
X81000Y37000D02*
X95213D01*
X97542Y30383D02*
Y34671D01*
X80162Y34976D02*
X94374D01*
X95135Y34215D01*
Y33040D02*
Y34215D01*
X55500Y38500D02*
Y41500D01*
X58508Y44508D01*
X74205D01*
X81209Y37504D01*
X92409D01*
X93865Y38960D01*
X54160Y40000D02*
Y41160D01*
X58012Y45012D01*
X92893D01*
X93865Y44040D01*
D13*
X10000Y36500D02*
X17905Y44405D01*
X10000Y28500D02*
Y36500D01*
X4987Y23487D02*
X10000Y28500D01*
X4500Y23487D02*
X4987D01*
X4500Y25494D02*
X5494D01*
X16635Y48000D02*
Y50350D01*
Y45650D02*
Y48000D01*
X15365Y50350D02*
X16635D01*
X15365Y45650D02*
X16635D01*
X17905Y44405D02*
Y45650D01*
X5494Y25494D02*
X9000Y29000D01*
Y37000D01*
X13000Y41000D01*
X13500Y56500D02*
Y57000D01*
X13000Y41000D02*
Y56500D01*
X13500Y57000D01*
D14*
X56700Y53300D02*
Y55240D01*
Y53300D02*
X64479Y45521D01*
X95135Y42770D02*
X96027Y43662D01*
X69400Y49600D02*
X72965Y46035D01*
X69400Y49600D02*
Y55240D01*
X95135Y41500D02*
X96541Y42906D01*
X71940Y48060D02*
X73451Y46549D01*
X71940Y48060D02*
Y55240D01*
X95135Y40230D02*
X97055Y42150D01*
X95135Y38960D02*
X97569Y41394D01*
X64320Y55240D02*
Y55820D01*
Y53680D02*
Y55240D01*
Y53680D02*
X65000Y53000D01*
X67000D01*
X68000Y54000D01*
X64479Y45521D02*
X94479D01*
X95135Y44865D01*
Y44040D02*
Y44865D01*
X95423Y47577D02*
X97569Y45431D01*
Y41394D02*
Y45431D01*
X95210Y47063D02*
X97055Y45218D01*
Y42150D02*
Y45218D01*
X94997Y46549D02*
X96541Y45005D01*
Y42906D02*
Y45005D01*
X94784Y46035D02*
X96027Y44792D01*
Y43662D02*
Y44792D01*
X73451Y46549D02*
X94997D01*
X72965Y46035D02*
X94784D01*
X88500Y41500D02*
X93865D01*
X87000Y43000D02*
X88500Y41500D01*
X87000Y43000D02*
Y43500D01*
X84000Y44000D02*
X87770Y40230D01*
X93865D01*
X73486Y57514D02*
X83423Y47577D01*
X95423D01*
X73273Y57000D02*
X83210Y47063D01*
X95210D01*
X68000Y54000D02*
Y56000D01*
X69000Y57000D01*
X73273D01*
X66860Y55240D02*
Y55860D01*
X68514Y57514D01*
X73486D01*
D15*
X67660Y4000D02*
D03*
X57500D02*
D03*
X46500Y26000D02*
D03*
Y15840D02*
D03*
X53500Y26000D02*
D03*
Y15840D02*
D03*
X60500Y16000D02*
D03*
Y26160D02*
D03*
X67500Y16000D02*
D03*
Y26160D02*
D03*
X12500Y28160D02*
D03*
Y18000D02*
D03*
X4500Y21481D02*
D03*
Y23487D02*
D03*
Y25494D02*
D03*
X40540Y55000D02*
D03*
X35460D02*
D03*
X38540Y47500D02*
D03*
X33460D02*
D03*
X86000Y50960D02*
D03*
Y56040D02*
D03*
D16*
X50540Y32500D02*
D03*
X48000D02*
D03*
X63540D02*
D03*
X61000D02*
D03*
X50540Y9000D02*
D03*
X48000D02*
D03*
X63040D02*
D03*
X60500D02*
D03*
D17*
X45460Y32500D02*
D03*
X58460D02*
D03*
X45460Y9000D02*
D03*
X57960D02*
D03*
D18*
X4500Y19398D02*
D03*
Y27602D02*
D03*
X73750Y9500D02*
D03*
X86250D02*
D03*
X73750Y4500D02*
D03*
X86250D02*
D03*
D19*
X93865Y44040D02*
D03*
Y21540D02*
D03*
Y33040D02*
D03*
D20*
X95135Y44040D02*
D03*
X93865Y42770D02*
D03*
X95135D02*
D03*
X93865Y41500D02*
D03*
X95135D02*
D03*
X93865Y40230D02*
D03*
X95135D02*
D03*
X93865Y38960D02*
D03*
X95135D02*
D03*
Y21540D02*
D03*
X93865Y20270D02*
D03*
X95135D02*
D03*
X93865Y19000D02*
D03*
X95135D02*
D03*
X93865Y17730D02*
D03*
X95135D02*
D03*
X93865Y16460D02*
D03*
X95135D02*
D03*
Y33040D02*
D03*
X93865Y31770D02*
D03*
X95135D02*
D03*
X93865Y30500D02*
D03*
X95135D02*
D03*
X93865Y29230D02*
D03*
X95135D02*
D03*
X93865Y27960D02*
D03*
X95135D02*
D03*
D21*
X44000Y40000D02*
D03*
D03*
D22*
X46540D02*
D03*
X49080D02*
D03*
X51620D02*
D03*
X54160D02*
D03*
X56700D02*
D03*
X59240D02*
D03*
X61780D02*
D03*
X64320D02*
D03*
X66860D02*
D03*
X69400D02*
D03*
X71940D02*
D03*
X44000Y55240D02*
D03*
X46540D02*
D03*
X49080D02*
D03*
X51620D02*
D03*
X54160D02*
D03*
X56700D02*
D03*
X59240D02*
D03*
X61780D02*
D03*
X64320D02*
D03*
X66860D02*
D03*
X69400D02*
D03*
X71940D02*
D03*
X46540Y40000D02*
D03*
X49080D02*
D03*
X51620D02*
D03*
X54160D02*
D03*
X56700D02*
D03*
X59240D02*
D03*
X61780D02*
D03*
X64320D02*
D03*
X66860D02*
D03*
X69400D02*
D03*
X71940D02*
D03*
X44000Y55240D02*
D03*
X46540D02*
D03*
X49080D02*
D03*
X51620D02*
D03*
X54160D02*
D03*
X56700D02*
D03*
X59240D02*
D03*
X61780D02*
D03*
X64320D02*
D03*
X66860D02*
D03*
X69400D02*
D03*
X71940D02*
D03*
D23*
X37120Y38740D02*
D03*
Y36200D02*
D03*
Y33660D02*
D03*
Y31120D02*
D03*
Y28580D02*
D03*
Y26040D02*
D03*
Y23500D02*
D03*
Y20960D02*
D03*
Y18420D02*
D03*
Y15880D02*
D03*
Y13340D02*
D03*
Y10800D02*
D03*
Y8260D02*
D03*
Y5720D02*
D03*
X21880D02*
D03*
Y8260D02*
D03*
Y10800D02*
D03*
Y13340D02*
D03*
Y15880D02*
D03*
Y18420D02*
D03*
Y20960D02*
D03*
Y23500D02*
D03*
Y26040D02*
D03*
Y28580D02*
D03*
Y31120D02*
D03*
Y33660D02*
D03*
X37120Y41280D02*
D03*
X21880Y36200D02*
D03*
Y38740D02*
D03*
X18580Y57000D02*
D03*
X16040D02*
D03*
X13500D02*
D03*
X2000Y46580D02*
D03*
Y44040D02*
D03*
Y41500D02*
D03*
D24*
X21880Y41280D02*
D03*
D25*
X93500Y53500D02*
D03*
Y6500D02*
D03*
X6500Y53500D02*
D03*
Y6500D02*
D03*
D26*
X4500Y15603D02*
D03*
Y13063D02*
D03*
D27*
X31500Y36200D02*
D03*
X30500Y27500D02*
D03*
X16635Y48000D02*
D03*
X40500Y22500D02*
D03*
X41500Y21500D02*
D03*
X53500Y26000D02*
D03*
X46500Y26000D02*
D03*
X30500Y16000D02*
D03*
X29500Y13500D02*
D03*
Y29500D02*
D03*
X90500Y20500D02*
D03*
X89000Y19500D02*
D03*
X87500Y20000D02*
D03*
X86000Y20500D02*
D03*
X84000Y21500D02*
D03*
Y24000D02*
D03*
Y44000D02*
D03*
X87000Y43500D02*
D03*
X67660Y12340D02*
D03*
X40500Y27500D02*
D03*
Y38000D02*
D03*
X45500Y51500D02*
D03*
M02*
