M48
;Layer_Color=6321
;FILE_FORMAT=4:3
METRIC,LZ
;TYPE=PLATED
T1F00S00C0.254
T2F00S00C0.500
T3F00S00C0.610
T4F00S00C0.635
T5F00S00C0.762
T6F00S00C0.787
T7F00S00C1.000
T8F00S00C1.016
T9F00S00C1.100
T10F00S00C1.200
T11F00S00C1.499
T12F00S00C5.000
%
T01
X006686Y004
X00694
X007194
X006432
X006178
X005924
X00567
X005416
X005162
Y005524
X004908
X004654
X0044
X005416
X00567
X005924
X006178
X006432
X006686
X00694
X007194
T02
X006766Y001234
X0084Y00215
Y0024
X0086Y00205
X00875Y002
X0089Y00195
X00905Y00205
X0087Y00435
X0084Y0044
X00535Y0026
X00465Y0026
X00405Y00275
Y00225
X00415Y00215
X00305Y0016
X00295Y00135
X00305Y00275
X00295Y00295
X00315Y00362
X00405Y0038
X0016635Y0048
X00455Y00515
T03
X0093865Y001646
Y001773
Y0019
Y002027
Y002154
X0095135
Y002027
Y0019
Y001773
Y001646
Y002796
Y002923
Y00305
Y003177
Y003304
X0093865
Y003177
Y00305
Y002923
Y002796
Y003896
Y004023
Y00415
Y004277
Y004404
X0095135
Y004277
Y00415
Y004023
Y003896
T04
X006686Y004
X00694
X007194
X006432
X006178
X005924
X00567
X005416
X005162
X004908
X004654
X0044
Y005524
X004654
X004908
X005162
X005416
X00567
X005924
X006178
X006432
X006686
X00694
X007194
T05
X00575Y0004
X006766
X00675Y0016
Y002616
X00605
X00535Y0026
X00465
Y001584
X00535
X00605Y0016
X003854Y00475
X003346
X00125Y002816
Y0018
X003546Y0055
X004054
X0086Y005604
Y005096
T06
X00045Y0021481
Y0023487
Y0025494
T07
X00045Y0013063
Y0015603
T08
X002188Y000572
Y000826
X003712
Y000572
Y00108
Y001334
Y001588
Y001842
Y002096
Y00235
Y002604
Y002858
Y003112
Y003366
Y00362
Y003874
Y004128
X002188
Y003874
Y00362
Y003366
Y003112
Y002858
Y002604
Y00235
Y002096
Y001842
Y001588
Y001334
Y00108
X0002Y00415
Y004404
Y004658
X00135Y0057
X001604
X001858
T09
X004546Y0009
X0048
X005054
X005796
X00605
X006304
X006354Y00325
X0061
X005846
X005054
X0048
X004546
T10
X007375Y00045
Y00095
X008625
Y00045
T11
X00045Y0019398
Y0027602
T12
X00065Y00065
X00935
X00065Y00535
X00935
M30
